<mxfile host="app.diagrams.net" modified="2021-04-21T06:10:56.661Z" agent="5.0 (Macintosh; Intel Mac OS X 10_15_5) AppleWebKit/537.36 (KHTML, like Gecko) Chrome/89.0.4389.90 Safari/537.36" etag="Z5b1wl4V9YrSXCudebs-" version="14.6.0" type="github" pages="3">
  <diagram id="mwQjbs6TfYdmA_ObkQcU" name="Page-1">
    <mxGraphModel dx="786" dy="461" grid="1" gridSize="10" guides="1" tooltips="1" connect="1" arrows="1" fold="1" page="1" pageScale="1" pageWidth="850" pageHeight="1100" math="0" shadow="0">
      <root>
        <mxCell id="0" />
        <mxCell id="1" parent="0" />
        <mxCell id="pb-_uc08zx9VU8N3hvFd-4" value="1.5 cm" style="text;html=1;strokeColor=none;fillColor=none;align=center;verticalAlign=middle;whiteSpace=wrap;rounded=0;" parent="1" vertex="1">
          <mxGeometry x="100" y="70" width="40" height="20" as="geometry" />
        </mxCell>
        <mxCell id="pb-_uc08zx9VU8N3hvFd-5" value="3.0 cm" style="text;html=1;strokeColor=none;fillColor=none;align=center;verticalAlign=middle;whiteSpace=wrap;rounded=0;" parent="1" vertex="1">
          <mxGeometry x="550" y="70" width="40" height="20" as="geometry" />
        </mxCell>
        <mxCell id="pb-_uc08zx9VU8N3hvFd-6" value="" style="shape=crossbar;whiteSpace=wrap;html=1;rounded=1;rotation=90;" parent="1" vertex="1">
          <mxGeometry x="530" y="186.5" width="175" height="20" as="geometry" />
        </mxCell>
        <mxCell id="pb-_uc08zx9VU8N3hvFd-7" value="10.0 cm" style="text;html=1;strokeColor=none;fillColor=none;align=center;verticalAlign=middle;whiteSpace=wrap;rounded=0;" parent="1" vertex="1">
          <mxGeometry x="627.5" y="180" width="60" height="20" as="geometry" />
        </mxCell>
        <mxCell id="pb-_uc08zx9VU8N3hvFd-8" value="" style="shape=curlyBracket;whiteSpace=wrap;html=1;rounded=1;rotation=90;flipV=1;flipH=1;" parent="1" vertex="1">
          <mxGeometry x="123.5" y="272.5" width="18" height="55" as="geometry" />
        </mxCell>
        <mxCell id="pb-_uc08zx9VU8N3hvFd-9" value="起始位" style="text;html=1;strokeColor=none;fillColor=none;align=center;verticalAlign=middle;whiteSpace=wrap;rounded=0;" parent="1" vertex="1">
          <mxGeometry x="113" y="314" width="40" height="20" as="geometry" />
        </mxCell>
        <mxCell id="pb-_uc08zx9VU8N3hvFd-16" value="" style="shape=curlyBracket;whiteSpace=wrap;html=1;rounded=1;rotation=90;flipV=1;flipH=1;" parent="1" vertex="1">
          <mxGeometry x="560" y="275" width="20" height="50" as="geometry" />
        </mxCell>
        <mxCell id="pb-_uc08zx9VU8N3hvFd-17" value="结束位" style="text;html=1;strokeColor=none;fillColor=none;align=center;verticalAlign=middle;whiteSpace=wrap;rounded=0;" parent="1" vertex="1">
          <mxGeometry x="550" y="315" width="40" height="20" as="geometry" />
        </mxCell>
        <mxCell id="pb-_uc08zx9VU8N3hvFd-18" value="" style="shape=curlyBracket;whiteSpace=wrap;html=1;rounded=1;rotation=90;flipV=1;flipH=1;size=0.5;" parent="1" vertex="1">
          <mxGeometry x="82" y="286" width="18" height="26" as="geometry" />
        </mxCell>
        <mxCell id="pb-_uc08zx9VU8N3hvFd-19" value="ID" style="text;html=1;strokeColor=none;fillColor=none;align=center;verticalAlign=middle;whiteSpace=wrap;rounded=0;" parent="1" vertex="1">
          <mxGeometry x="73" y="314" width="40" height="20" as="geometry" />
        </mxCell>
        <mxCell id="jwewneAI4I8cU-zN0pH0-2" value="" style="shape=image;verticalLabelPosition=bottom;labelBackgroundColor=#ffffff;verticalAlign=top;aspect=fixed;imageAspect=0;image=data:image/png,iVBORw0KGgoAAAANSUhEUgAACIAAAAMCCAYAAAAbbS/AAAAgAElEQVR4Aezdv6pu213G8ZRiLVgIXoOVjb2FvXgHgrUX4FUIFlax1Euws9BCsBMPgkVAg0kqiXBQkyVL5k+yx5kjJ/ucN+9Yz/N+DhxG5sjea/7G9/mzJ2Gw8503/yCAAAIIIIAAAggggAACCCCAAAIIIIAAAggggAACCCCAAAIIIIAAAghEE/hO9PSGRwABBBBAAAEEEEAAAQQQQAABBBBAAAEEEEAAAQQQQAABBBBAAAEEEHhzAYQJEEAAAQQQQAABBBBAAAEEEEAAAQQQQAABBBBAAAEEEEAAAQQQQACBcAIugIQLaHwEEEAAAQQQQAABBBBAAAEEEEAAAQQQQAABBBBAAAEEEEAAAQQQQGB7AeQ73/nOm38x4AEe4AEe4AEe4AEe4AEe4AEe4AEe4AEe4AEe4AEe4AEe4AEe4AEe4AEe4AEe4IGP44HdVRcXQFx0cdGHB3iAB3iAB3iAB3iAB3iAB3iAB3iAB3iAB3iAB3iAB3iAB3iAB3iAB3iAB3ggxAMugIQI9ahbUzvB7WcQeJQP/JyPcQsvw3WmRKCbgD78GH34KB263dp/ukf5wM/pyjU9z+rZ3zzdJ5Sfs/l5NP9ut/af7tF+8PPO5rvfsU6IwMcnoAfP9iD++N954OM3hwkR6Ccw2dyd1N8AUnoxZCe4/QwCE1xrxwdWhutMiUA3AX3a0aejY7db+083Olq7cknPbD37m6f7hPKXnb9Vv2639p9u1dNzdj77HeuECHx8Ano0u0fp16nfx28OEyLQT2D6dXdSF0BcANl5w/5BAhNca8cH0kEreTUCCFwE9GlHn46OjJ1NYHS0duWSntl6ZreK6eUvO3+rfhydTWDV03N2PrPdaHoEOgjo0ewepV+nfh3t4hQIZBOYft2dwgUQF0B23rB/kMAE19rxgXTQSl6NAAIXAX3a0aejI2NnExgdrV25pGe2ntmtYnr5y87fqh9HZxNY9fScnc9sN5oegQ4CejS7R+nXqV9HuzgFAtkEpl93p3ABxAWQnTfsHyQwwbV2fCAdtJJXI4DARUCfdvTp6MjY2QRGR2tXLumZrWd2q5he/rLzt+rH0dkEVj09Z+cz242mR+CxBH70ox+9/eAHP3j7/ve///av//qvD/33/We+/+z3d6z/6NHsHqVfp35rTj0jgMDzCUy/7t7sAogLIDtv2D9IYIJr7fhAOmglr0YAgYuAPu3o09GRsbMJjI7WrlzSM1vP7FYxvfxl52/Vj6OzCax6es7OZ7YbTY/AYwm8X9D44Q9/+Ev99/0d6z96NLtH6dep35pTzwgg8HwC06+7N7sA4gLIzhv2DxKY4Fo7PpAOWsmrEUDgIqBPO/p0dGTsbAKjo7Url/TM1jO7VUwvf9n5W/Xj6GwCq56es/OZ7UbTI/BYAu9/S8f7BZAf//jHb19++eVD/33/me8/+/0d6z96NLtH6dep35pTzwgg8HwC06+7N7sA4gLIzhv2DxKY4Fo7PpAOWsmrEUDgIqBPO/p0dGTsbAKjo7Url/TM1jO7VUwvf9n5W/Xj6GwCq56es/OZ7UbTI/BYAu//ty/vlzTeL388+p/3n/n+s9/fsf6jR7N7lH6d+q059YwAAs8nMP26e7MLIC6A7Lxh/yCBCa614wPpoJW8GgEELgL6tKNPR0fGziYwOlq7cknPbD2zW8X08pedv1U/js4msOrpOTuf2W40PQKPJeACSHaf+fOIfo/0wGPbxU9DAIFvQmAyvfu9LoC4ALLzhv2DBCa41o4Ps4NW8moEELgI6NOOPh0dGTubwOho7colPbP1zG4V08tfdv5W/Tg6m8Cqp+fsfGa70fQIPJaACyDZfebPI/o90gOPbRc/DQEEvgmByfTu97oA4gLIzhv2DxKY4Fo7PswOWsmrEUDgIqBPO/p0dGTsbAKjo7Url/TM1jO7VUwvf9n5W/Xj6GwCq56es/OZ7UbTI/BYAi6AZPeZP4/o90gPPLZd/DQEEPgmBCbTu9/rAogLIDtv2D9IYIJr7fgwO2glr0YAgYuAPu3o09GRsbMJjI7WrlzSM1vP7FYxvfxl52/Vj6OzCax6es7OZ7YbTY/AYwm4AJLdZ/48ot8jPfDYdvHTEEDgmxCYTO9+rwsgLoDsvGH/IIEJrrXjw+yglbwaAQQuAvq0o09HR8bOJjA6WrtySc9sPbNbxfTyl52/VT+Oziaw6uk5O5/ZbjQ9Ao8l4AJIdp/584h+j/TAY9vFT0MAgW9CYDK9+70ugLgAsvOG/YMEJrjWjg+zg1byagQQuAjo044+HR0ZO5vA6GjtyiU9s/XMbhXTy192/lb9ODqbwKqn5+x8ZrvR9Ag8lsDdBZD/+Z//efvP//zPt//4j//4rH/ff8/7751/vvzyy7cf/vCHb+/vWP/Ro9k9Sr9O/dacekYAgecTmH7dvdkFEBdAdt6wf5DABNfa8YF00EpejQACFwF92tGnoyNjZxMYHa1duaRntp7ZrWJ6+cvO36ofR2cTWPX0nJ3PbDeaHoHHEri7APJ+keN73/ve2xdffPFZ/77/nvffO/+4AJLdlf6sez39JrtWBBA4R2C6dzeBCyAugOy8Yf8ggQmutePj6aCVvBoBBC4C+rSjT0dHxs4mMDpau3JJz2w9s1vF9PKXnb9VP47OJrDq6Tk7n9luND0CjyXw8y6A/OM//uPbP/zDP7z9/d///c/99/3XvP9aF0Cyu9GfbfR7bLv4aQgg8E0ITBfvfq8LIC6A7Lxh/yCBCa6142PqoJW8GgEELgL6tKNPR0fGziYwOlq7cknPbD2zW8X08pedv1U/js4msOrpOTuf2W40PQKPJXB3AWT+L2D+/d///f8udnzdBZD3yx/vv9b/BUx2N/qzjX6PbRc/DQEEvgmB6eLd73UBxAWQnTfsHyQwwbV2fEwdtJJXI4DARUCfdvTp6MjY2QRGR2tXLumZrWd2q5he/rLzt+rH0dkEVj09Z+cz242mR+CxBO4ugMwb5v8KZvc3gez+5o/5/f4vYLK70p91r6ffZNeKAALnCEz37iZwAcQFkJ037B8kMMG1dnw8HbSSVyOAwEVAn3b06ejI2NkERkdrVy7pma1ndquYXv6y87fqx9HZBFY9PWfnM9uNpkfgsQR+3gWQr/ubQHZ/88dM6AJIdlf6s+719JvsWhFA4ByB6d7dBC6AuACy84b9gwQmuNaOj6eDVvJqBBC4COjTjj4dHRk7m8DoaO3KJT2z9cxuFdPLX3b+Vv04OpvAqqfn7Hxmu9H0CDyWwM+7ADJvWv8mkK/7mz/m97kAkt2V/qx7Pf0mu1YEEDhHYLp3N4ELIC6A7Lxh/yCBCa614+PpoJW8GgEELgL6tKNPR0fGziYwOlq7cknPbD2zW8X08pedv1U/js4msOrpOTuf2W40PQKPJfCLXABZ/yaQr/ubP2ZCF0Cyu9Kfda+n32TXigAC5whM9+4mcAHEBZCdN+wfJDDBtXZ8PB20klcjgMBFQJ929OnoyNjZBEZHa1cu6ZmtZ3armF7+svO36sfR2QRWPT1n5zPbjaZH4LEEfpELIPPG+ZtAvve97729/+ev+8cFkOyu9Gfd6+n3dZn23yOAwC+fwHTv7k0ugLgAsvOG/YMEJrjWjo+ng1byagQQuAjo044+HR0ZO5vA6GjtyiU9s/XMbhXTy192/lb9ODqbwKqn5+x8ZrvR9Ag8lsDnXACZvwnk/fLH+3/+un9cAMnuSn/WvZ5+X5dp/z0CCPzyCUz37t7kAogLIDtv2D9IYIJr7fh4Omglr0YAgYuAPu3o09GRsbMJjI7WrlzSM1vP7FYxvfxl52/Vj6OzCax6es7OZ7YbTY/AYwl8zgWQz32zCyDZXenPutfT73Mz7tcjgMDjCUz37n6yCyAugOy8Yf8ggQmutePj6aCVvBoBBC4C+rSjT0dHxs4mMDpau3JJz2w9s1vF9PKXnb9VP47OJrDq6Tk7n9luND0CjyXgAkh2n/nziH6P9MBj28VPQwCBb0JgMr37vS6AuACy84b9gwQmuNaOD7ODVvJqBBC4COjTjj4dHRk7m8DoaO3KJT2z9cxuFdPLX3b+Vv04OpvAqqfn7Hxmu9H0CDyWgAsg2X3mzyP6PdIDj20XPw0BBL4Jgcn07ve6AOICyM4b9g8SmOBaOz7MDlrJqxFA4CKgTzv6dHRk7GwCo6O1K5f0zNYzu1VML3/Z+Vv14+hsAquenrPzme1G0yPwWAIugGT3mT+P6PdIDzy2Xfw0BBD4JgQm07vf6wKICyA7b9g/SGCCa+34MDtoJa9GAIGLgD7t6NPRkbGzCYyO1q5c0jNbz+xWMb38Zedv1Y+jswmsenrOzme2G02PwGMJfP/733/74Q9/+PbjH//47csvv3zov+8/8/1nv79j/UePZvco/Tr1W3PqGQEEnk9g+nX3ZhdAXADZecP+QQITXGvHB9JBK3k1AghcBPRpR5+OjoydTWB0tHblkp7Zema3iunlLzt/q34cnU1g1dNzdj6z3Wh6BB5L4Ac/+MH/XdJ4v6jxy/r3/R3rP3o0u0fp16nfmlPPCCDwfALTr7s3uwDiAsjOG/YPEpjgWjs+kA5ayasRQOAioE87+nR0ZOxsAqOjtSuX9MzWM7tVTC9/2flb9ePobAKrnp6z85ntRtMj8FgCP/rRj97eL2i8/y0d7/93MI/89/1nvv/s93es/+jR7B6lX6d+a049I4DA8wlMv+7e7AKICyA7b9g/SGCCa+34QDpoJa9GAIGLgD7t6NPRkbGzCYyO1q5c0jNbz+xWMb38Zedv1Y+jswmsenrOzme2G02PQAcBPZrdo/Tr1K+jXZwCgWwC06+7U7gA4gLIzhv2DxKY4Fo7PpAOWsmrEUDgIqBPO/p0dGTsbAKjo7Url/TM1jO7VUwvf9n5W/Xj6GwCq56es/OZ7UbTI9BBQI9m9yj9OvXraBenQCCbwPTr7hQugLgAsvOG/YMEJrjWjg+kg1byagQQuAjo044+HR0ZO5vA6GjtyiU9s/XMbhXTy192/lb9ODqbwKqn5+x8ZrvR9Ah0ENCj2T1Kv079OtrFKRDIJjD9ujuFCyAugOy8Yf8ggQmuteMD6aCVvBoBBC4C+rSjT0dHxs4mMDpau3JJz2w9s1vF9PKXnb9VP47OJrDq6Tk7n9luND0CHQT0aHaP0q9Tv452cQoEsglMv+5O4QKICyA7b9g/SGCCa+34QDpoJa9GAIGLgD7t6NPRkbGzCYyO1q5c0jNbz+xWMb38Zedv1Y+jswmsenrOzme2G02PQAcBPZrdo/Tr1K+jXZwCgWwC06+7U7gA4gLIzhv2DxKY4Fo7PpAOWsmrEUDgIqBPO/p0dGTsbAKjo7Url/TM1jO7VUwvf9n5W/Xj6GwCq56es/OZ7UbTI9BBQI9m9yj9OvXraBenQCCbwPTr7hQugLgAsvOG/YMEJrjWjg+kg1byagQQuAjo044+HR0ZO5vA6GjtyiU9s/XMbhXTy192/lb9ODqbwKqn5+x8ZrvR9Ah0ENCj2T1Kv079OtrFKRDIJjD9ujuFCyAugOy8Yf8ggQmuteMD6aCVvBoBBC4C+rSjT0dHxs4mMDpau3JJz2w9s1vF9PKXnb9VP47OJrDq6Tk7n9luND0CHQT0aHaP0q9Tv452cQoEsglMv+5O4QKICyA7b9g/SGCCa+34QDpoJa9GAIGLgD7t6NPRkbGzCYyO1q5c0jNbz+xWMb38Zedv1Y+jswmsenrOzme2G02PQAcBPZrdo/Tr1K+jXZwCgWwC06+7U7gA4gLIzhv2DxKY4Fo7PpAOWsmrEUDgIqBPO/p0dGTsbAKjo7Url/TM1jO7VUwvf9n5W/Xj6GwCq56es/OZ7UbTI9BBQI9m9yj9OvXraBenQCCbwPTr7hQugLgAsvOG/YMEJrjWjg+kg1byagQQuAjo044+HR0ZO5vA6GjtyiU9s/XMbhXTy192/lb9ODqbwKqn5+x8ZrvR9Ah0ENCj2T1Kv079OtrFKRDIJjD9ujuFCyAugOy8Yf8ggQmuteMD6aCVvBoBBC4C+rSjT0dHxs4mMDpau3JJz2w9s1vF9PKXnb9VP47OJrDq6Tk7n9luND0CHQT0aHaP0q9Tv452cQoEsglMv+5O4QKICyA7b9g/SGCCa+34QDpoJa9GAIGLgD7t6NPRkbGzCYyO1q5c0jNbz+xWMb38Zedv1Y+jswmsenrOzme2G02PQAcBPZrdo/Tr1K+jXZwCgWwC06+7U7gA4gLIzhv2DxKY4Fo7PpAOWsmrEUDgIqBPO/p0dGTsbAKjo7Url/TM1jO7VUwvf9n5W/Xj6GwCq56es/OZ7UbTI9BBQI9m9yj9OvXraBenQCCbwPTr7hQugLgAsvOG/YMEJrjWjg+kg1byagQQuAjo044+HR0ZO5vA6GjtyiU9s/XMbhXTy192/lb9ODqbwKqn5+x8ZrvR9Ah0ENCj2T1Kv079OtrFKRDIJjD9ujuFCyAugOy8Yf8ggQmuteMD6aCVvBoBBC4C+rSjT0dHxs4mMDpau3JJz2w9s1vF9PKXnb9VP47OJrDq6Tk7n9luND0CHQT0aHaP0q9Tv452cQoEsglMv+5O4QKICyA7b9g/SGCCa+34QDpoJa9GAIGLgD7t6NPRkbGzCYyO1q5c0jNbz+xWMb38Zedv1Y+jswmsenrOzme2G02PQAcBPZrdo/Tr1K+jXZwCgWwC06+7U7gA4gLIzhv2DxKY4Fo7PpAOWsmrEUDgIqBPO/p0dGTsbAKjo7Url/TM1jO7VUwvf9n5W/Xj6GwCq56es/OZ7UbTI9BBQI9m9yj9OvXraBenQCCbwPTr7hQugLgAsvOG/YMEJrjWjg+kg1byagQQuAjo044+HR0ZO5vA6GjtyiU9s/XMbhXTy192/lb9ODqbwKqn5+x8ZrvR9Ah0ENCj2T1Kv079OtrFKRDIJjD9ujuFCyAugOy8Yf8ggQmuteMD6aCVvBoBBC4C+rSjT0dHxs4mMDpau3JJz2w9s1vF9PKXnb9VP47OJrDq6Tk7n9luND0CHQT0aHaP0q9Tv452cQoEsglMv+5O4QKICyA7b9g/SGCCa+34QDpoJa9GAIGLgD7t6NPRkbGzCYyO1q5c0jNbz+xWMb38Zedv1Y+jswmsenrOzme2G02PQAcBPZrdo/Tr1K+jXZwCgWwC06+7U7gA4gLIzhv2DxKY4Fo7PpAOWsmrEUDgIqBPO/p0dGTsbAKjo7Url/TM1jO7VUwvf9n5W/Xj6GwCq56es/OZ7UbTI9BBQI9m9yj9OvXraBenQCCbwPTr7hQugLgAsvOG/YMEJrjWjg+kg1byagQQuAjo044+HR0ZO5vA6GjtyiU9s/XMbhXTy192/lb9ODqbwKqn5+x8ZrvR9Ah0ENCj2T1Kv079OtrFKRDIJjD9ujuFCyAugOy8Yf8ggQmuteMD6aCVvBoBBC4C+rSjT0dHxs4mMDpau3JJz2w9s1vF9PKXnb9VP47OJrDq6Tk7n9luND0CHQT0aHaP0q9Tv452cQoEsglMv+5O4QKICyA7b9g/SGCCa+34QDpoJa9GAIGLgD7t6NPRkbGzCYyO1q5c0jNbz+xWMb38Zedv1Y+jswmsenrOzme2G02PQAcBPZrdo/Tr1K+jXZwCgWwC06+7U7gA4gLIzhv2DxKY4Fo7PpAOWsmrEUDgIqBPO/p0dGTsbAKjo7Url/TM1jO7VUwvf9n5W/Xj6GwCq56es/OZ7UbTI9BBQI9m9yj9OvXraBenQCCbwPTr7hQugLgAsvOG/YMEJrjWjg+kg1byagQQuAjo044+HR0ZO5vA6GjtyiU9s/XMbhXTy192/lb9ODqbwKqn5+x8ZrvR9Ah0ENCj2T1Kv079OtrFKRDIJjD9ujuFCyAugOy8Yf8ggQmuteMD6aCVvBoBBC4C+rSjT0dHxs4mMDpau3JJz2w9s1vF9PKXnb9VP47OJrDq6Tk7n9luND0CHQT0aHaP0q9Tv452cQoEsglMv+5O4QKICyA7b9g/SGCCa+34QDpoJa9GAIGLgD7t6NPRkbGzCYyO1q5c0jNbz+xWMb38Zedv1Y+jswmsenrOzme2G02PQAcBPZrdo/Tr1K+jXZwCgWwC06+7U7gA4gLIzhv2DxKY4Fo7PpAOWsmrEUDgIqBPO/p0dGTsbAKjo7Url/TM1jO7VUwvf9n5W/Xj6GwCq56es/OZ7UbTI9BBQI9m9yj9OvXraBenQCCbwPTr7hQugLgAsvOG/YMEJrjWjg+kg1byagQQuAjo044+HR0ZO5vA6GjtyiU9s/XMbhXTy192/lb9ODqbwKqn5+x8ZrvR9Ah0ENCj2T1Kv079OtrFKRDIJjD9ujuFCyAugOy8Yf8ggQmuteMD6aCVvBoBBC4C+rSjT0dHxs4mMDpau3JJz2w9s1vF9PKXnb9VP47OJrDq6Tk7n9luND0CHQT0aHaP0q9Tv452cQoEsglMv+5O4QKICyA7b9g/SGCCa+34QDpoJa9GAIGLgD7t6NPRkbGzCYyO1q5c0jNbz+xWMb38Zedv1Y+jswmsenrOzme2G02PQAcBPZrdo/Tr1K+jXZwCgWwC06+7U7gA4gLIzhv2DxKY4Fo7PpAOWsmrEUDgIqBPO/p0dGTsbAKjo7Url/TM1jO7VUwvf9n5W/Xj6GwCq56es/OZ7UbTI9BBQI9m9yj9OvXraBenQCCbwPTr7hQugLgAsvOG/YMEJrjWjg+kg1byagQQuAjo044+HR0ZO5vA6GjtyiU9s/XMbhXTy192/lb9ODqbwKqn5+x8ZrvR9Ah0ENCj2T1Kv079OtrFKRDIJjD9ujuFCyAugOy8Yf8ggQmuteMD6aCVvBoBBC4C+rSjT0dHxs4mMDpau3JJz2w9s1vF9PKXnb9VP47OJrDq6Tk7n9luND0CHQT0aHaP0q9Tv452cQoEsglMv+5O4QKICyA7b9g/SGCCa+34QDpoJa9GAIGLgD7t6NPRkbGzCYyO1q5c0jNbz+xWMb38Zedv1Y+jswmsenrOzme2G02PQAcBPZrdo/Tr1K+jXZwCgWwC06+7U7gA4gLIzhv2DxKY4Fo7PpAOWsmrEUDgIqBPO/p0dGTsbAKjo7Url/TM1jO7VUwvf9n5W/Xj6GwCq56es/OZ7UbTI9BBQI9m9yj9OvXraBenQCCbwPTr7hQugLgAsvOG/YMEJrjWjg+kg1byagQQuAjo044+HR0ZO5vA6GjtyiU9s/XMbhXTy192/lb9ODqbwKqn5+x8ZrvR9Ah0ENCj2T1Kv079OtrFKRDIJjD9ujuFCyAugOy8Yf8ggQmuteMD6aCVvBoBBC4C+rSjT0dHxs4mMDpau3JJz2w9s1vF9PKXnb9VP47OJrDq6Tk7n9luND0CHQT0aHaP0q9Tv452cQoEsglMv+5O4QKICyA7b9g/SGCCa+34QDpoJa9GAIGLgD7t6NPRkbGzCYyO1q5c0jNbz+xWMb38Zedv1Y+jswmsenrOzme2G02PQAcBPZrdo/Tr1K+jXZwCgWwC06+7U7gA4gLIzhv2DxKY4Fo7PpAOWsmrEUDgIqBPO/p0dGTsbAKjo7Url/TM1jO7VUwvf9n5W/Xj6GwCq56es/OZ7UbTI9BBQI9m9yj9OvXraBenQCCbwPTr7hQugLgAsvOG/YMEJrjWjg+kg1byagQQuAjo044+HR0ZO5vA6GjtyiU9s/XMbhXTy192/lb9ODqbwKqn5+x8ZrvR9Ah0ENCj2T1Kv079OtrFKRDIJjD9ujuFCyAugOy8Yf8ggQmuteMD6aCVvBoBBC4C+rSjT0dHxs4mMDpau3JJz2w9s1vF9PKXnb9VP47OJrDq6Tk7n9luND0CHQT0aHaP0q9Tv452cQoEsglMv+5O4QKICyA7b9g/SGCCa+34QDpoJa9GAIGLgD7t6NPRkbGzCYyO1q5c0jNbz+xWMb38Zedv1Y+jswmsenrOzme2G02PQAcBPZrdo/Tr1K+jXZwCgWwC06+7U7gA4gLIzhv2DxKY4Fo7PpAOWsmrEUDgIqBPO/p0dGTsbAKjo7Url/TM1jO7VUwvf9n5W/Xj6GwCq56es/OZ7UbTI9BBQI9m9yj9OvXraBenQCCbwPTr7hQugLgAsvOG/YMEJrjWjg+kg1byagQQuAjo044+HR0ZO5vA6GjtyiU9s/XMbhXTy192/lb9ODqbwKqn5+x8ZrvR9Ah0ENCj2T1Kv079OtrFKRDIJjD9ujuFCyAugOy8Yf8ggQmuteMD6aCVvBoBBC4C+rSjT0dHxs4mMDpau3JJz2w9s1vF9PKXnb9VP47OJrDq6Tk7n9luND0CHQT0aHaP0q9Tv452cQoEsglMv+5O4QKICyA7b9g/SGCCa+34QDpoJa9GAIGLgD7t6NPRkbGzCYyO1q5c0jNbz+xWMb38Zedv1Y+jswmsenrOzme2G02PQAcBPZrdo/Tr1K+jXZwCgWwC06+7U7gA4gLIzhv2DxKY4Fo7PpAOWsmrEUDgIqBPO/p0dGTsbAKjo7Url/TM1jO7VUwvf9n5W/Xj6GwCq56es/OZ7UbTI9BBQI9m9yj9OvXraBenQCCbwPTr7hQugLgAsvOG/YMEJrjWjg+kg1byagQQuAjo044+HR0ZO5vA6GjtyiU9s/XMbhXTy192/lb9ODqbwKqn5+x8ZrvR9Ah0ENCj2T1Kv079OtrFKRDIJjD9ujuFCyAugOy8Yf8ggQmuteMD6aCVvBoBBC4C+rSjT0dHxs4mMDpau3JJz2w9s1vF9PKXnb9VP47OJrDq6Tk7n9luND0CHQT0aHaP0q9Tv452cQoEsglMv+5O4QKICyA7b9g/SGCCa+34QDpoJa9GAIGLgD7t6NPRkbGzCYyO1q5c0jNbz+xWMb38Zedv1Y+jswmsenrOzme2G02PQAcBPZrdo/Tr1K+jXZwCgWwC06+7U7gA4gLIzhv2Dy35fc4AACAASURBVBKY4Fo7PpAOWsmrEUDgIqBPO/p0dGTsbAKjo7Url/TM1jO7VUwvf9n5W/Xj6GwCq56es/OZ7UbTI9BBQI9m9yj9OvXraBenQCCbwPTr7hQugLgAsvOG/YMEJrjWjg+kg1byagQQuAjo044+HR0ZO5vA6GjtyiU9s/XMbhXTy192/lb9ODqbwKqn5+x8ZrvR9Ah0ENCj2T1Kv079OtrFKRDIJjD9ujuFCyAugOy8Yf8ggQmuteMD6aCVvBoBBC4C+rSjT0dHxs4mMDpau3JJz2w9s1vF9PKXnb9VP47OJrDq6Tk7n9luND0CHQT0aHaP0q9Tv452cQoEsglMv+5O4QKICyA7b9g/SGCCa+34QDpoJa9GAIGLgD7t6NPRkbGzCYyO1q5c0jNbz+xWMb38Zedv1Y+jswmsenrOzme2G02PQAcBPZrdo/Tr1K+jXZwCgWwC06+7U7gA4gLIzhv2DxKY4Fo7PpAOWsmrEUDgIqBPO/p0dGTsbAKjo7Url/TM1jO7VUwvf9n5W/Xj6GwCq56es/OZ7UbTI9BBQI9m9yj9OvXraBenQCCbwPTr7hQugLgAsvOG/YMEJrjWjg+kg1byagQQuAjo044+HR0ZO5vA6GjtyiU9s/XMbhXTy192/lb9ODqbwKqn5+x8ZrvR9Ah0ENCj2T1Kv079OtrFKRDIJjD9ujuFCyAugOy8Yf8ggQmuteMD6aCVvBoBBC4C+rSjT0dHxs4mMDpau3JJz2w9s1vF9PKXnb9VP47OJrDq6Tk7n9luND0CHQT0aHaP0q9Tv452cQoEsglMv+5O4QKICyA7b9g/SGCCa+34QDpoJa9GAIGLgD7t6NPRkbGzCYyO1q5c0jNbz+xWMb38Zedv1Y+jswmsenrOzme2G02PQAcBPZrdo/Tr1K+jXZwCgWwC06+7U7gA4gLIzhv2DxKY4Fo7PpAOWsmrEUDgIqBPO/p0dGTsbAKjo7Url/TM1jO7VUwvf9n5W/Xj6GwCq56es/OZ7UbTI9BBQI9m9yj9OvXraBenQCCbwPTr7hQugLgAsvOG/YMEJrjWjg+kg1byagQQuAjo044+HR0ZO5vA6GjtyiU9s/XMbhXTy192/lb9ODqbwKqn5+x8ZrvR9Ah0ENCj2T1Kv079OtrFKRDIJjD9ujuFCyAugOy8Yf8ggQmuteMD6aCVvBoBBC4C+rSjT0dHxs4mMDpau3JJz2w9s1vF9PKXnb9VP47OJrDq6Tk7n9luND0CHQT0aHaP0q9Tv452cQoEsglMv+5O4QKICyA7b9g/SGCCa+34QDpoJa9GAIGLgD7t6NPRkbGzCYyO1q5c0jNbz+xWMb38Zedv1Y+jswmsenrOzme2G02PQAcBPZrdo/Tr1K+jXZwCgWwC06+7U7gA4gLIzhv2DxKY4Fo7PpAOWsmrEUDgIqBPO/p0dGTsbAKjo7Url/TM1jO7VUwvf9n5W/Xj6GwCq56es/OZ7UbTI9BBQI9m9yj9OvXraBenQCCbwPTr7hQugLgAsvOG/YMEJrjWjg+kg1byagQQuAjo044+HR0ZO5vA6GjtyiU9s/XMbhXTy192/lb9ODqbwKqn5+x8ZrvR9Ah0ENCj2T1Kv079OtrFKRDIJjD9ujuFCyAugOy8Yf8ggQmuteMD6aCVvBoBBC4C+rSjT0dHxs4mMDpau3JJz2w9s1vF9PKXnb9VP47OJrDq6Tk7n9luND0CHQT0aHaP0q9Tv452cQoEsglMv+5O4QKICyA7b9g/SGCCa+34QDpoJa9GAIGLgD7t6NPRkbGzCYyO1q5c0jNbz+xWMb38Zedv1Y+jswmsenrOzme2G02PQAcBPZrdo/Tr1K+jXZwCgWwC06+7U7gA4gLIzhv2DxKY4Fo7PpAOWsmrEUDgIqBPO/p0dGTsbAKjo7Url/TM1jO7VUwvf9n5W/Xj6GwCq56es/OZ7UbTI9BBQI9m9yj9OvXraBenQCCbwPTr7hQugLgAsvOG/YMEJrjWjg+kg1byagQQuAjo044+HR0ZO5vA6GjtyiU9s/XMbhXTy192/lb9ODqbwKqn5+x8ZrvR9Ah0ENCj2T1Kv079OtrFKRDIJjD9ujuFCyAugOy8Yf8ggQmuteMD6aCVvBoBBC4C+rSjT0dHxs4mMDpau3JJz2w9s1vF9PKXnb9VP47OJrDq6Tk7n9luND0CHQT0aHaP0q9Tv452cQoEsglMv+5O4QKICyA7b9g/SGCCa+34QDpoJa9GAIGLgD7t6NPRkbGzCYyO1q5c0jNbz+xWMb38Zedv1Y+jswmsenrOzme2G02PQAcBPZrdo/Tr1K+jXZwCgWwC06+7U7gA4gLIzhv2DxKY4Fo7PpAOWsmrEUDgIqBPO/p0dGTsbAKjo7Url/TM1jO7VUwvf9n5W/Xj6GwCq56es/OZ7UbTI9BBQI9m9yj9OvXraBenQCCbwPTr7hQugLgAsvOG/YMEJrjWjg+kg1byagQQuAjo044+HR0ZO5vA6GjtyiU9s/XMbhXTy192/lb9ODqbwKqn5+x8ZrvR9Ah0ENCj2T1Kv079OtrFKRDIJjD9ujuFCyAugOy8Yf8ggQmuteMD6aCVvBoBBC4C+rSjT0dHxs4mMDpau3JJz2w9s1vF9PKXnb9VP47OJrDq6Tk7n9luND0CHQT0aHaP0q9Tv452cQoEsglMv+5O4QKICyA7b9g/SGCCa+34QDpoJa9GAIGLgD7t6NPRkbGzCYyO1q5c0jNbz+xWMb38Zedv1Y+jswmsenrOzme2G02PQAcBPZrdo/Tr1K+jXZwCgWwC06+7U7gA4gLIzhv2DxKY4Fo7PpAOWsmrEUDgIqBPO/p0dGTsbAKjo7Url/TM1jO7VUwvf9n5W/Xj6GwCq56es/OZ7UbTI9BBQI9m9yj9OvXraBenQCCbwPTr7hQugLgAsvOG/YMEJrjWjg+kg1byagQQuAjo044+HR0ZO5vA6GjtyiU9s/XMbhXTy192/lb9ODqbwKqn5+x8ZrvR9Ah0ENCj2T1Kv079OtrFKRDIJjD9ujuFCyAugOy8Yf8ggQmuteMD6aCVvBoBBC4C+rSjT0dHxs4mMDpau3JJz2w9s1vF9PKXnb9VP47OJrDq6Tk7n9luND0CHQT0aHaP0q9Tv452cQoEsglMv+5O4QKICyA7b9g/SGCCa+34QDpoJa9GAIGLgD7t6NPRkbGzCYyO1q5c0jNbz+xWMb38Zedv1Y+jswmsenrOzme2G02PQAcBPZrdo/Tr1K+jXZwCgWwC06+7U7gA4gLIzhv2DxKY4Fo7PpAOWsmrEUDgIqBPO/p0dGTsbAKjo7Url/TM1jO7VUwvf9n5W/Xj6GwCq56es/OZ7UbTI9BBQI9m9yj9OvXraBenQCCbwPTr7hQugLgAsvOG/YMEJrjWjg+kg1byagQQuAjo044+HR0ZO5vA6GjtyiU9s/XMbhXTy192/lb9ODqbwKqn5+x8ZrvR9Ah0ENCj2T1Kv079OtrFKRDIJjD9ujuFCyAugOy8Yf8ggQmuteMD6aCVvBoBBC4C+rSjT0dHxs4mMDpau3JJz2w9s1vF9PKXnb9VP47OJrDq6Tk7n9luND0CHQT0aHaP0q9Tv452cQoEsglMv+5O4QKICyA7b9g/SGCCa+34QDpoJa9GAIGLgD7t6NPRkbGzCYyO1q5c0jNbz+xWMb38Zedv1Y+jswmsenrOzme2G02PQAcBPZrdo/Tr1K+jXZwCgWwC06+7U7gA4gLIzhv2DxKY4Fo7PpAOWsmrEUDgIqBPO/p0dGTsbAKjo7Url/TM1jO7VUwvf9n5W/Xj6GwCq56es/OZ7UbTI9BBQI9m9yj9OvXraBenQCCbwPTr7hQugLgAsvOG/YMEJrjWjg+kg1byagQQuAjo044+HR0ZO5vA6GjtyiU9s/XMbhXTy192/lb9ODqbwKqn5+x8ZrvR9Ah0ENCj2T1Kv079OtrFKRDIJjD9ujuFCyAugOy8Yf8ggQmuteMD6aCVvBoBBC4C+rSjT0dHxs4mMDpau3JJz2w9s1vF9PKXnb9VP47OJrDq6Tk7n9luND0CHQT0aHaP0q9Tv452cQoEsglMv+5O4QKICyA7b9g/SGCCa+34QDpoJa9GAIGLgD7t6NPRkbGzCYyO1q5c0jNbz+xWMb38Zedv1Y+jswmsenrOzme2G02PQAcBPZrdo/Tr1K+jXZwCgWwC06+7U7gA4gLIzhv2DxKY4Fo7PpAOWsmrEUDgIqBPO/p0dGTsbAKjo7Url/TM1jO7VUwvf9n5W/Xj6GwCq56es/OZ7UbTI9BBQI9m9yj9OvXraBenQCCbwPTr7hQugLgAsvOG/YMEJrjWjg+kg1byagQQuAjo044+HR0ZO5vA6GjtyiU9s/XMbhXTy192/lb9ODqbwKqn5+x8ZrvR9Ah0ENCj2T1Kv079OtrFKRDIJjD9ujuFCyAugOy8Yf8ggQmuteMD6aCVvBoBBC4C+rSjT0dHxs4mMDpau3JJz2w9s1vF9PKXnb9VP47OJrDq6Tk7n9luND0CHQT0aHaP0q9Tv452cQoEsglMv+5O4QKICyA7b9g/SGCCa+34QDpoJa9GAIGLgD7t6NPRkbGzCYyO1q5c0jNbz+xWMb38Zedv1Y+jswmsenrOzme2G02PQAcBPZrdo/Tr1K+jXZwCgWwC06+7U7gA4gLIzhv2DxKY4Fo7PpAOWsmrEUDgIqBPO/p0dGTsbAKjo7Url/TM1jO7VUwvf9n5W/Xj6GwCq56es/OZ7UbTI9BBQI9m9yj9OvXraBenQCCbwPTr7hQugLgAsvOG/YMEJrjWjg+kg1byagQQuAjo044+HR0ZO5vA6GjtyiU9s/XMbhXTy192/lb9ODqbwKqn5+x8ZrvR9Ah0ENCj2T1Kv079OtrFKRDIJjD9ujuFCyAugOy8Yf8ggQmuteMD6aCVvBoBBC4C+rSjT0dHxs4mMDpau3JJz2w9s1vF9PKXnb9VP47OJrDq6Tk7n9luND0CHQT0aHaP0q9Tv452cQoEsglMv+5O4QKICyA7b9g/SGCCa+34QDpoJa9GAIGLgD7t6NPRkbGzCYyO1q5c0jNbz+xWMb38Zedv1Y+jswmsenrOzme2G02PQAcBPZrdo/Tr1K+jXZwCgWwC06+7U7gA4gLIzhv2DxKY4Fo7PpAOWsmrEUDgIqBPO/p0dGTsbAKjo7Url/TM1jO7VUwvf9n5W/Xj6GwCq56es/OZ7UbTI9BBQI9m9yj9OvXraBenQCCbwPTr7hQugLgAsvOG/YMEJrjWjg+kg1byagQQuAjo044+HR0ZO5vA6GjtyiU9s/XMbhXTy192/lb9ODqbwKqn5+x8ZrvR9Ah0ENCj2T1Kv079OtrFKRDIJjD9ujuFCyAugOy8Yf8ggQmuteMD6aCVvBoBBC4C+rSjT0dHxs4mMDpau3JJz2w9s1vF9PKXnb9VP47OJrDq6Tk7n9luND0CHQT0aHaP0q9Tv452cQoEsglMv+5O4QKICyA7b9g/SGCCa+34QDpoJa9GAIGLgD7t6NPRkbGzCYyO1q5c0jNbz+xWMb38Zedv1Y+jswmsenrOzme2G02PQAcBPZrdo/Tr1K+jXZwCgWwC06+7U7gA4gLIzhv2DxKY4Fo7PpAOWsmrEUDgIqBPO/p0dGTsbAKjo7Url/TM1jO7VUwvf9n5W/Xj6GwCq56es/OZ7UbTI9BBQI9m9yj9OvXraBenQCCbwPTr7hQugLgAsvOG/YMEJrjWjg+kg1byagQQuAjo044+HR0ZO5vA6GjtyiU9s/XMbhXTy192/lb9ODqbwKqn5+x8ZrvR9Ah0ENCj2T1Kv079OtrFKRDIJjD9ujuFCyAugOy8Yf8ggQmuteMD6aCVvBoBBC4C+rSjT0dHxs4mMDpau3JJz2w9s1vF9PKXnb9VP47OJrDq6Tk7n9luND0CHQT0aHaP0q9Tv452cQoEsglMv+5O4QKICyA7b9g/SGCCa+34QDpoJa9GAIGLgD7t6NPRkbGzCYyO1q5c0jNbz+xWMb38Zedv1Y+jswmsenrOzme2G02PQAcBPZrdo/Tr1K+jXZwCgWwC06+7U7gA4gLIzhv2DxKY4Fo7PpAOWsmrEUDgIqBPO/p0dGTsbAKjo7Url/TM1jO7VUwvf9n5W/Xj6GwCq56es/OZ7UbTI9BBQI9m9yj9OvXraBenQCCbwPTr7hQugLgAsvOG/YMEJrjWjg+kg1byagQQuAjo044+HR0ZO5vA6GjtyiU9s/XMbhXTy192/lb9ODqbwKqn5+x8ZrvR9Ah0ENCj2T1Kv079OtrFKRDIJjD9ujuFCyAugOy8Yf8ggQmuteMD6aCVvBoBBC4C+rSjT0dHxs4mMDpau3JJz2w9s1vF9PKXnb9VP47OJrDq6Tk7n9luND0CHQT0aHaP0q9Tv452cQoEsglMv+5O4QKICyA7b9g/SGCCa+34QDpoJa9GAIGLgD7t6NPRkbGzCYyO1q5c0jNbz+xWMb38Zedv1Y+jswmsenrOzme2G02PQAcBPZrdo/Tr1K+jXZwCgWwC06+7U7gA4gLIzhv2DxKY4Fo7PpAOWsmrEUDgIqBPO/p0dGTsbAKjo7Url/TM1jO7VUwvf9n5W/Xj6GwCq56es/OZ7UbTI9BBQI9m9yj9OvXraBenQCCbwPTr7hQugLgAsvOG/YMEJrjWjg+kg1byagQQuAjo044+HR0ZO5vA6GjtyiU9s/XMbhXTy192/lb9ODqbwKqn5+x8ZrvR9Ah0ENCj2T1Kv079OtrFKRDIJjD9ujuFCyAugOy8Yf8ggQmuteMD6aCVvBoBBC4C+rSjT0dHxs4mMDpau3JJz2w9s1vF9PKXnb9VP47OJrDq6Tk7n9luND0CHQT0aHaP0q9Tv452cQoEsglMv+5O4QKICyA7b9g/SGCCa+34QDpoJa9GAIGLgD7t6NPRkbGzCYyO1q5c0jNbz+xWMb38Zedv1Y+jswmsenrOzme2G02PQAcBPZrdo/Tr1K+jXZwCgWwC06+7U7gA4gLIzhv2DxKY4Fo7PpAOWsmrEUDgIqBPO/p0dGTsbAKjo7Url/TM1jO7VUwvf9n5W/Xj6GwCq56es/OZ7UbTI9BBQI9m9yj9OvXraBenQCCbwPTr7hQugLgAsvOG/YMEJrjWjg+kg1byagQQuAjo044+HR0ZO5vA6GjtyiU9s/XMbhXTy192/lb9ODqbwKqn5+x8ZrvR9Ah0ENCj2T1Kv079OtrFKRDIJjD9ujuFCyAugOy8Yf8ggQmuteMD6aCVvBoBBC4C+rSjT0dHxs4mMDpau3JJz2w9s1vF9PKXnb9VP47OJrDq6Tk7n9luND0CHQT0aHaP0q9Tv452cQoEsglMv+5O4QKICyA7b9g/SGCCa+34QDpoJa9GAIGLgD7t6NPRkbGzCYyO1q5c0jNbz+xWMb38Zedv1Y+jswmsenrOzme2G02PQAcBPZrdo/Tr1K+jXZwCgWwC06+7U7gA4gLIzhv2DxKY4Fo7PpAOWsmrEUDgIqBPO/p0dGTsbAKjo7Url/TM1jO7VUwvf9n5W/Xj6GwCq56es/OZ7UbTI9BBQI9m9yj9OvXraBenQCCbwPTr7hQugLgAsvOG/YMEJrjWjg+kg1byagQQuAjo044+HR0ZO5vA6GjtyiU9s/XMbhXTy192/lb9ODqbwKqn5+x8ZrvR9Ah0ENCj2T1Kv079OtrFKRDIJjD9ujuFCyAugOy8Yf8ggQmuteMD6aCVvBoBBC4C+rSjT0dHxs4mMDpau3JJz2w9s1vF9PKXnb9VP47OJrDq6Tk7n9luND0CHQT0aHaP0q9Tv452cQoEsglMv+5O4QKICyA7b9g/SGCCa+34QDpoJa9GAIGLgD7t6NPRkbGzCYyO1q5c0jNbz+xWMb38Zedv1Y+jswmsenrOzme2G02PQAcBPZrdo/Tr1K+jXZwCgWwC06+7U7gA4gLIzhv2DxKY4Fo7PpAOWsmrEUDgIqBPO/p0dGTsbAKjo7Url/TM1jO7VUwvf9n5W/Xj6GwCq56es/OZ7UbTI9BBQI9m9yj9OvXraBenQCCbwPTr7hQugLgAsvOG/YMEJrjWjg+kg1byagQQuAjo044+HR0ZO5vA6GjtyiU9s/XMbhXTy192/lb9ODqbwKqn5+x8ZrvR9Ah0ENCj2T1Kv079OtrFKRDIJjD9ujuFCyAugOy8Yf8ggQmuteMD6aCVvBoBBC4C+rSjT0dHxs4mMDpau3JJz2w9s1vF9PKXnb9VP47OJrDq6Tk7n9luND0CHQT0aHaP0q9Tv452cQoEsglMv+5O4QKICyA7b9g/SGCCa+34QDpoJa9GAIGLgD7t6NPRkbGzCYyO1q5c0jNbz+xWMb38Zedv1Y+jswmsenrOzme2G02PQAcBPZrdo/Tr1K+jXZwCgWwC06+7U7gA4gLIzhv2DxKY4Fo7PpAOWsmrEUDgIqBPO/p0dGTsbAKjo7Url/TM1jO7VUwvf9n5W/Xj6GwCq56es/OZ7UbTI9BBQI9m9yj9OvXraBenQCCbwPTr7hQugLgAsvOG/YMEJrjWjg+kg1byagQQuAjo044+HR0ZO5vA6GjtyiU9s/XMbhXTy192/lb9ODqbwKqn5+x8ZrvR9Ah0ENCj2T1Kv079OtrFKRDIJjD9ujuFCyAugOy8Yf8ggQmuteMD6aCVvBoBBC4C+rSjT0dHxs4mMDpau3JJz2w9s1vF9PKXnb9VP47OJrDq6Tk7n9luND0CHQT0aHaP0q9Tv452cQoEsglMv+5O4QKICyA7b9g/SGCCa+34QDpoJa9GAIGLgD7t6NPRkbGzCYyO1q5c0jNbz+xWMb38Zedv1Y+jswmsenrOzme2G02PQAcBPZrdo/Tr1K+jXZwCgWwC06+7U7gA4gLIzhv2DxKY4Fo7PpAOWsmrEUDgIqBPO/p0dGTsbAKjo7Url/TM1jO7VUwvf9n5W/Xj6GwCq56es/OZ7UbTI9BBQI9m9yj9OvXraBenQCCbwPTr7hQugLgAsvOG/YMEJrjWjg+kg1byagQQuAjo044+HR0ZO5vA6GjtyiU9s/XMbhXTy192/lb9ODqbwKqn5+x8ZrvR9Ah0ENCj2T1Kv079OtrFKRDIJjD9ujuFCyAugOy8Yf8ggQmuteMD6aCVvBoBBC4C+rSjT0dHxs4mMDpau3JJz2w9s1vF9PKXnb9VP47OJrDq6Tk7n9luND0CHQT0aHaP0q9Tv452cQoEsglMv+5O4QKICyA7b9g/SGCCa+34QDpoJa9GAIGLgD7t6NPRkbGzCYyO1q5c0jNbz+xWMb38Zedv1Y+jswmsenrOzme2G02PQAcBPZrdo/Tr1K+jXZwCgWwC06+7U7gA4gLIzhv2DxKY4Fo7PpAOWsmrEUDgIqBPO/p0dGTsbAKjo7Url/TM1jO7VUwvf9n5W/Xj6GwCq56es/OZ7UbTI9BBQI9m9yj9OvXraBenQCCbwPTr7hQugLgAsvOG/YMEJrjWjg+kg1byagQQuAjo044+HR0ZO5vA6GjtyiU9s/XMbhXTy192/lb9ODqbwKqn5+x8ZrvR9Ah0ENCj2T1Kv079OtrFKRDIJjD9ujuFCyAugOy8Yf8ggQmuteMD6aCVvBoBBC4C+rSjT0dHxs4mMDpau3JJz2w9s1vF9PKXnb9VP47OJrDq6Tk7n9luND0CHQT0aHaP0q9Tv452cQoEsglMv+5O4QKICyA7b9g/SGCCa+34QDpoJa9GAIGLgD7t6NPRkbGzCYyO1q5c0jNbz+xWMb38Zedv1Y+jswmsenrOzme2G02PQAcBPZrdo/Tr1K+jXZwCgWwC06+7U7gA4gLIzhv2DxKY4Fo7PpAOWsmrEUDgIqBPO/p0dGTsbAKjo7Url/TM1jO7VUwvf9n5W/Xj6GwCq56es/OZ7UbTI9BBQI9m9yj9OvXraBenQCCbwPTr7hQugLgAsvOG/YMEJrjWjg+kg1byagQQuAjo044+HR0ZO5vA6GjtyiU9s/XMbhXTy192/lb9ODqbwKqn5+x8ZrvR9Ah0ENCj2T1Kv079OtrFKRDIJjD9ujuFCyAugOy8Yf8ggQmuteMD6aCVvBoBBC4C+rSjT0dHxs4mMDpau3JJz2w9s1vF9PKXnb9VP47OJrDq6Tk7n9luND0CHQT0aHaP0q9Tv452cQoEsglMv+5O4QKICyA7b9g/SGCCa+34QDpoJa9GAIGLgD7t6NPRkbGzCYyO1q5c0jNbz+xWMb38Zedv1Y+jswmsenrOzme2G02PQAcBPZrdo/Tr1K+jXZwCgWwC06+7U7gA4gLIzhv2DxKY4Fo7PpAOWsmrEUDgIqBPO/p0dGTsbAKjo7Url/TM1jO7VUwvf9n5W/Xj6GwCq56es/OZ7UbTI9BBQI9m9yj9OvXraBenQCCbwPTr7hQugLgAsvOG/YMEJrjWjg+kg1byagQQuAjo044+HR0ZO5vA6GjtyiU9s/XMbhXTy192/lb9ODqbwKqn5+x8ZrvR9Ah0ENCj2T1Kv079OtrFKRDIJjD9ujuFCyAugOy8Yf8ggQmuteMD6aCVvBoBBC4C+rSjT0dHxs4mMDpau3JJz2w9s1vF9PKXnb9VP47OJrDq6Tk7n9luND0CHQT0aHaP0q9Tv452cQoEsglMv+5O4QKICyA7b9g/SGCCa+34QDpoJa9GAIGLgD7t6NPRkbGzCYyO1q5c0jNbz+xWMb38Zedv1Y+jswmsenrOzme2G02PQAcBPZrdo/Tr1K+jXZwCgWwC06+7U7gA4gLIzhv2DxKY4Fo7PpAOWsmrEUDgIqBPO/p0dGTsbAKjo7Url/TM1jO7VUwvf9n5W/Xj6GwCq56es/OZ7UbTI9BBQI9m9yj9OvXraBenQCCbwPTr7hQugLgAsvOG/YMEJrjWjg+kg1byagQQuAjo044+HR0ZO5vA6GjtyiU94XNJogAAIABJREFUs/XMbhXTy192/lb9ODqbwKqn5+x8ZrvR9Ah0ENCj2T1Kv079OtrFKRDIJjD9ujuFCyAugOy8Yf8ggQmuteMD6aCVvBoBBC4C+rSjT0dHxs4mMDpau3JJz2w9s1vF9PKXnb9VP47OJrDq6Tk7n9luND0CHQT0aHaP0q9Tv452cQoEsglMv+5O4QKICyA7b9g/SGCCa+34QDpoJa9GAIGLgD7t6NPRkbGzCYyO1q5c0jNbz+xWMb38Zedv1Y+jswmsenrOzme2G02PQAcBPZrdo/Tr1K+jXZwCgWwC06+7U7gA4gLIzhv2DxKY4Fo7PpAOWsmrEUDgIqBPO/p0dGTsbAKjo7Url/TM1jO7VUwvf9n5W/Xj6GwCq56es/OZ7UbTI9BBQI9m9yj9OvXraBenQCCbwPTr7hQugLgAsvOG/YMEJrjWjg+kg1byagQQuAjo044+HR0ZO5vA6GjtyiU9s/XMbhXTy192/lb9ODqbwKqn5+x8ZrvR9Ah0ENCj2T1Kv079OtrFKRDIJjD9ujuFCyAugOy8Yf8ggQmuteMD6aCVvBoBBC4C+rSjT0dHxs4mMDpau3JJz2w9s1vF9PKXnb9VP47OJrDq6Tk7n9luND0CHQT0aHaP0q9Tv452cQoEsglMv+5O4QKICyA7b9g/SGCCa+34QDpoJa9GAIGLgD7t6NPRkbGzCYyO1q5c0jNbz+xWMb38Zedv1Y+jswmsenrOzme2G02PQAcBPZrdo/Tr1K+jXZwCgWwC06+7U7gA4gLIzhv2DxKY4Fo7PpAOWsmrEUDgIqBPO/p0dGTsbAKjo7Url/TM1jO7VUwvf9n5W/Xj6GwCq56es/OZ7UbTI9BBQI9m9yj9OvXraBenQCCbwPTr7hQugLgAsvOG/YMEJrjWjg+kg1byagQQuAjo044+HR0ZO5vA6GjtyiU9s/XMbhXTy192/lb9ODqbwKqn5+x8ZrvR9Ah0ENCj2T1Kv079OtrFKRDIJjD9ujuFCyAugOy8Yf8ggQmuteMD6aCVvBoBBC4C+rSjT0dHxs4mMDpau3JJz2w9s1vF9PKXnb9VP47OJrDq6Tk7n9luND0CHQT0aHaP0q9Tv452cQoEsglMv+5O4QKICyA7b9g/SGCCa+34QDpoJa9GAIGLgD7t6NPRkbGzCYyO1q5c0jNbz+xWMb38Zedv1Y+jswmsenrOzme2G02PQAcBPZrdo/Tr1K+jXZwCgWwC06+7U7gA4gLIzhv2DxKY4Fo7PpAOWsmrEUDgIqBPO/p0dGTsbAKjo7Url/TM1jO7VUwvf9n5W/Xj6GwCq56es/OZ7UbTI9BBQI9m9yj9OvXraBenQCCbwPTr7hQugLgAsvOG/YMEJrjWjg+kg1byagQQuAjo044+HR0ZO5vA6GjtyiU9s/XMbhXTy192/lb9ODqbwKqn5+x8ZrvR9Ah0ENCj2T1Kv079OtrFKRDIJjD9ujuFCyAugOy8Yf8ggQmuteMD6aCVvBoBBC4C+rSjT0dHxs4mMDpau3JJz2w9s1vF9PKXnb9VP47OJrDq6Tk7n9luND0CHQT0aHaP0q9Tv452cQoEsglMv+5O4QKICyA7b9g/SGCCa+34QDpoJa9GAIGLgD7t6NPRkbGzCYyO1q5c0jNbz+xWMb38Zedv1Y+jswmsenrOzme2G02PQAcBPZrdo/Tr1K+jXZwCgWwC06+7U7gA4gLIzhv2DxKY4Fo7PpAOWsmrEUDgIqBPO/p0dGTsbAKjo7Url/TM1jO7VUwvf9n5W/Xj6GwCq56es/OZ7UbTI9BBQI9m9yj9OvXraBenQCCbwPTr7hQugLgAsvOG/YMEJrjWjg+kg1byagQQuAjo044+HR0ZO5vA6GjtyiU9s/XMbhXTy192/lb9ODqbwKqn5+x8ZrvR9Ah0ENCj2T1Kv079OtrFKRDIJjD9ujuFCyAugOy8Yf8ggQmuteMD6aCVvBoBBC4C+rSjT0dHxs4mMDpau3JJz2w9s1vF9PKXnb9VP47OJrDq6Tk7n9luND0CHQT0aHaP0q9Tv452cQoEsglMv+5O4QKICyA7b9g/SGCCa+34QDpoJa9GAIGLgD7t6NPRkbGzCYyO1q5c0jNbz+xWMb38Zedv1Y+jswmsenrOzme2G02PQAcBPZrdo/Tr1K+jXZwCgWwC06+7U7gA4gLIzhv2DxKY4Fo7PpAOWsmrEUDgIqBPO/p0dGTsbAKjo7Url/TM1jO7VUwvf9n5W/Xj6GwCq56es/OZ7UbTI9BBQI9m9yj9OvXraBenQCCbwPTr7hQugLgAsvOG/YMEJrjWjg+kg1byagQQuAjo044+HR0ZO5vA6GjtyiU9s/XMbhXTy192/lb9ODqbwKqn5+x8ZrvR9Ah0ENCj2T1Kv079OtrFKRDIJjD9ujuFCyAugOy8Yf8ggQmuteMD6aCVvBoBBC4C+rSjT0dHxs4mMDpau3JJz2w9s1vF9PKXnb9VP47OJrDq6Tk7n9luND0CHQT0aHaP0q9Tv452cQoEsglMv+5O4QKICyA7b9g/SGCCa+34QDpoJa9GAIGLgD7t6NPRkbGzCYyO1q5c0jNbz+xWMb38Zedv1Y+jswmsenrOzme2G02PQAcBPZrdo/Tr1K+jXZwCgWwC06+7U7gA4gLIzhv2DxKY4Fo7PpAOWsmrEUDgIqBPO/p0dGTsbAKjo7Url/TM1jO7VUwvf9n5W/Xj6GwCq56es/OZ7UbTI9BBQI9m9yj9OvXraBenQCCbwPTr7hQugLgAsvOG/YMEJrjWjg+kg1byagQQuAjo044+HR0ZO5vA6GjtyiU9s/XMbhXTy192/lb9ODqbwKqn5+x8ZrvR9Ah0ENCj2T1Kv079OtrFKRDIJjD9ujuFCyAugOy8Yf8ggQmuteMD6aCVvBoBBC4C+rSjT0dHxs4mMDpau3JJz2w9s1vF9PKXnb9VP47OJrDq6Tk7n9luND0CHQT0aHaP0q9Tv452cQoEsglMv+5O4QKICyA7b9g/SGCCa+34QDpoJa9GAIGLgD7t6NPRkbGzCYyO1q5c0jNbz+xWMb38Zedv1Y+jswmsenrOzme2G02PQAcBPZrdo/Tr1K+jXZwCgWwC06+7U7gA4gLIzhv2DxKY4Fo7PpAOWsmrEUDgIqBPO/p0dGTsbAKjo7Url/TM1jO7VUwvf9n5W/Xj6GwCq56es/OZ7UbTI9BBQI9m9yj9OvXraBenQCCbwPTr7hQugLgAsvOG/YMEJrjWjg+kg1byagQQuAjo044+HR0ZO5vA6GjtyiU9s/XMbhXTy192/lb9ODqbwKqn5+x8ZrvR9Ah0ENCj2T1Kv079OtrFKRDIJjD9ujuFCyAugOy8Yf8ggQmuteMD6aCVvBoBBC4C+rSjT0dHxs4mMDpau3JJz2w9s1vF9PKXnb9VP47OJrDq6Tk7n9luND0CHQT0aHaP0q9Tv452cQoEsglMv+5O4QKICyA7b9g/SGCCa+34QDpoJa9GAIGLgD7t6NPRkbGzCYyO1q5c0jNbz+xWMb38Zedv1Y+jswmsenrOzme2G02PQAcBPZrdo/Tr1K+jXZwCgWwC06+7U7gA4gLIzhv2DxKY4Fo7PpAOWsmrEUDgIqBPO/p0dGTsbAKjo7Url/TM1jO7VUwvf9n5W/Xj6GwCq56es/OZ7UbTI9BBQI9m9yj9OvXraBenQCCbwPTr7hQugLgAsvOG/YMEJrjWjg+kg1byagQQuAjo044+HR0ZO5vA6GjtyiU9s/XMbhXTy192/lb9ODqbwKqn5+x8ZrvR9Ah0ENCj2T1Kv079OtrFKRDIJjD9ujuFCyAugOy8Yf8ggQmuteMD6aCVvBoBBC4C+rSjT0dHxs4mMDpau3JJz2w9s1vF9PKXnb9VP47OJrDq6Tk7n9luND0CHQT0aHaP0q9Tv452cQoEsglMv+5O4QKICyA7b9g/SGCCa+34QDpoJa9GAIGLgD7t6NPRkbGzCYyO1q5c0jNbz+xWMb38Zedv1Y+jswmsenrOzme2G02PQAcBPZrdo/Tr1K+jXZwCgWwC06+7U7gA4gLIzhv2DxKY4Fo7PpAOWsmrEUDgIqBPO/p0dGTsbAKjo7Url/TM1jO7VUwvf9n5W/Xj6GwCq56es/OZ7UbTI9BBQI9m9yj9OvXraBenQCCbwPTr7hQugLgAsvOG/YMEJrjWjg+kg1byagQQuAjo044+HR0ZO5vA6GjtyiU9s/XMbhXTy192/lb9ODqbwKqn5+x8ZrvR9Ah0ENCj2T1Kv079OtrFKRDIJjD9ujuFCyAugOy8Yf8ggQmuteMD6aCVvBoBBC4C+rSjT0dHxs4mMDpau3JJz2w9s1vF9PKXnb9VP47OJrDq6Tk7n9luND0CHQT0aHaP0q9Tv452cQoEsglMv+5O4QKICyA7b9g/SGCCa+34QDpoJa9GAIGLgD7t6NPRkbGzCYyO1q5c0jNbz+xWMb38Zedv1Y+jswmsenrOzme2G02PQAcBPZrdo/Tr1K+jXZwCgWwC06+7U7gA4gLIzhv2DxKY4Fo7PpAOWsmrEUDgIqBPO/p0dGTsbAKjo7Url/TM1jO7VUwvf9n5W/Xj6GwCq56es/OZ7UbTI9BBQI9m9yj9OvXraBenQCCbwPTr7hQugLgAsvOG/YMEJrjWjg+kg1byagQQuAjo044+HR0ZO5vA6GjtyiU9s/XMbhXTy192/lb9ODqbwKqn5+x8ZrvR9Ah0ENCj2T1Kv079OtrFKRDIJjD9ujuFCyAugOy8Yf8ggQmuteMD6aCVvBoBBC4C+rSjT0dHxs4mMDpau3JJz2w9s1vF9PKXnb9VP47OJrDq6Tk7n9luND0CHQT0aHaP0q9Tv452cQoEsglMv+5O4QKICyA7b9g/SGCCa+34QDpoJa9GAIGLgD7t6NPRkbGzCYyO1q5c0jNbz+xWMb38Zedv1Y+jswmsenrOzme2G02PQAcBPZrdo/Tr1K+jXZwCgWwC06+7U7gA4gLIzhv2DxKY4Fo7PpAOWsmrEUDgIqBPO/p0dGTsbAKjo7Url/TM1jO7VUwvf9n5W/Xj6GwCq56es/OZ7UbTI9BBQI9m9yj9OvXraBenQCCbwPTr7hQugLgAsvOG/YMEJrjWjg+kg1byagQQuAjo044+HR0ZO5vA6GjtyiU9s/XMbhXTy192/lb9ODqbwKqn5+x8ZrvR9Ah0ENCj2T1Kv079OtrFKRDIJjD9ujvFy10A+Z3f+Z23P/qjP/q5//7Wb/3W24BLXXeC288gkOo7c99/0GW4zpQIdBPQT/f9lMql2639p0v1nbm7eoSen+rZ3zzdJ+TnT/2czqPbrf2nS/ef+T/tk37HOiECH5+AXvq0l/DA4yN44OM3hwkR6CcwXbA76UtdAPnVX/3Vt//6r//asfj//e9+97sugPw/Df/hBIEJrrXjg+6Eh7wTAQQ+JaBPO/p0dPxUXU9pBEZHa1cu6ZmtZ1qPmPdTAvKXnb9Vv0/V9ZRGYNXTc3Y+0/xnXgQaCejR7B6lX6d+jV3jTAikEZh+3c39UhdA/uIv/mLH4ZN9F0A+weHhAIEJrrXjA+mAhbwSAQQWAvq0o09Hx0Vej2EERkdrVy7pma1nWI0YdyEgf9n5W/Vb5PUYRmDV03N2PsPsZ1wEKgno0ewepV+nfpVl41AIhBGYft2N/TIXQH7913/97Sc/+cmOwyf7LoB8gsPDAQITXGvHB9IBC3klAggsBPRpR5+Ojou8HsMIjI7WrlzSM1vPsBox7kJA/rLzt+q3yOsxjMCqp+fsfIbZz7gIVBLQo9k9Sr9O/SrLxqEQCCMw/bob+2UugPz1X//1jsFX9l0A+QoSG08mMMG1dnwgPdk+XocAAjcE9GlHn46ONxLbCiIwOlq7cknPbD2DKsSoNwTkLzt/q343EtsKIrDq6Tk7n0HWMyoCtQT0aHaP0q9Tv9rCcTAEgghMv+5GfokLIL//+7+/O//tvgsgt1hsPpHABNfa8YH0ROt4FQIIbAjo044+HR03MtsOITA6WrtySc9sPUPqw5gbAvKXnb9Vv43MtkMIrHp6zs5niO2MiUA1AT2a3aP069SvunQcDoEQAtOvu3HrL4C8X/746U9/ujv/7b4LILdYbD6RwATX2vGB9ETreBUCCGwI6NOOPh0dNzLbDiEwOlq7cknPbD1D6sOYGwLyl52/Vb+NzLZDCKx6es7OZ4jtjIlANQE9mt2j9OvUr7p0HA6BEALTr7txqy+AfJPLH++gXADZ2cX+swhMcK0dH0jP8o33IIDAnoA+7ejT0XGvtP8mgcDoaO3KJT2z9UzoDjPuCchfdv5W/fZK+28SCKx6es7OZ4LnzIhAOwE9mt2j9OvUr713nA+BBALTr7tZay+AfNPLH++gXADZ2cX+swhMcK0dH0jP8o33IIDAnoA+7ejT0XGvtP8mgcDoaO3KJT2z9UzoDjPuCchfdv5W/fZK+28SCKx6es7OZ4LnzIhAOwE9mt2j9OvUr713nA+BBALTr7tZKy+A/Mmf/Mln/9++/CwgF0B+lob/fILABNfa8YF0wkPeiQACnxLQpx19Ojp+qq6nNAKjo7Url/TM1jOtR8z7KQH5y87fqt+n6npKI7Dq6Tk7n2n+My8CjQT0aHaP0q9Tv8aucSYE0ghMv+7mrroA8pu/+ZtvX3zxxe6sv/C+CyC/MCq/8JdEYIJr7fhA+iXZxI9FAIHPIKBPO/p0dPwM6f3SD0hgdLR25ZKe2Xp+wKow0mcQkL/s/K36fYb0fukHJLDq6Tk7nx/QYkZC4OUI6NHsHqVfp34vV0QOjMAHJDD9uhut5gLIH//xH7/95Cc/2Z3zs/ZdAPksXH7xL4HABNfa8YH0S7CIH4kAAp9JQJ929Ono+Jny++UfjMDoaO3KJT2z9fxgNWGczyQgf9n5W/X7TPn98g9GYNXTc3Y+P5i9jIPASxLQo9k9Sr9O/V6yjBwagQ9GYPp1N1b8BZDf/d3ffcjf+vGzgFwA+Vka/vMJAhNca8cH0gkPeScCCHxKQJ929Ono+Km6ntIIjI7WrlzSM1vPtB4x76cE5C87f6t+n6rrKY3Aqqfn7Hym+c+8CDQS0KPZPUq/Tv0au8aZEEgjMP26mzv2Asgf/uEfvv3bv/3b7lzfat8FkG+Fz29+AIEJrrXjA+kBlvAjEEDgWxLQpx19Ojp+Szv47YcJjI7WrlzSM1vPw7Xg9d+SgPxl52/V71vawW8/TGDV03N2Pg/byesRQODt7U2PZvco/Tr1U04IIHCewPTrbpLICyB/93d/tzvPQ/ZdAHkIRj/kWxCY4Fo7PpC+hRX8VgQQeBABfdrRp6Pjg2zhxxwiMDpau3JJz2w9D9WB1z6IgPxl52/V70G28GMOEVj19Jydz0M28loEEPgZAno0u0fp16nfz0TUf0QAgUMEpl93r4+8APLFF1/szvOQfRdAHoLRD/kWBCa41o4PpG9hBb8VAQQeRECfdvTp6PggW/gxhwiMjtauXNIzW89DdeC1DyIgf9n5W/V7kC38mEMEVj09Z+fzkI28FgEEfoaAHs3uUfp16vczEfUfEUDgEIHp193rXQC5IeMCyA0UW08lMMG1dnwgPdU8XoYAArcE9GlHn46OtyLbjCEwOlq7cknPbD1jCsSgtwTkLzt/q363ItuMIbDq6Tk7nzHGMygCxQT0aHaP0q9Tv+LKcTQEYghMv+4GfokLIP/8z//89pd/+Zc7Bl/ZdwHkK0hsPJnABNfa8YH0ZPt4HQII3BDQpx19OjreSGwriMDoaO3KJT2z9QyqEKPeEJC/7Pyt+t1IbCuIwKqn5+x8BlnPqAjUEtCj2T1Kv079agvHwRAIIjD9uhu5/gLIn/3Zn729Q/jzP//zHYOv7LsA8hUkNp5MYIJr7fhAerJ9vA4BBG4I6NOOPh0dbyS2FURgdLR25ZKe2XoGVYhRbwjIX3b+Vv1uJLYVRGDV03N2PoOsZ1QEagno0ewepV+nfrWF42AIBBGYft2NXHsB5Msvv3z7vd/7vf+7/PEOwQWQnQXsf0QCE1xrxwfSR/SYmRB4NQL6tKNPR8dX82/beUdHa1cu6ZmtZ1vPvNp55C87f6t+r+bftvOuenrOzmebP50HgUQCejS7R+nXqV9il5gZgTYC06+7c1VeAPmnf/qnt1/7tV/7/8sf7xBcANlZwP5HJDDBtXZ8IH1Ej5kJgVcjoE87+nR0fDX/tp13dLR25ZKe2Xq29cyrnUf+svO36vdq/m0776qn5+x8tvnTeRBIJKBHs3uUfp36JXaJmRFoIzD9ujtX1QWQf/mXf3n7gz/4g08ufgwAF0B2FrD/EQmMb60dH0gf0WNmQuDVCOjTjj4dHV/Nv23nHR2tXbmkZ7aebT3zaueRv+z8rfq9mn/bzrvq6Tk7n23+dB4EEgno0ewepV+nfoldYmYE2ghMv+7OFX8B5Kc//enb3/7t37799m//9u3FjwHgAsjOAvY/IoHxrbXjA+kjesxMCLwaAX3a0aej46v5t+28o6O1K5f0zNazrWde7Tzyl52/Vb9X82/beVc9PWfns82fzoNAIgE9mt2j9OvUL7FLzIxAG4Hp1925Ii+A/M3f/M3bf//3f7/91V/91dtv/MZv/NyLHwPABZCdBex/RALjW2vHB9JH9JiZEHg1Avq0o09Hx1fzb9t5R0drVy7pma1nW8+82nnkLzt/q36v5t+28656es7OZ5s/nQeBRAJ6NLtH6depX2KXmBmBNgLTr7tzRV4A+ZVf+ZW393/ncL/I6gLIzgL2PyKBX8TTfk3Ox9NH9JiZEHg1AjozpzN/Ea1ezb9t5/1FNPZrujJLz4+vZ1vPvNp5ZOzjZ+xzNHo1/7ad93O09ms/fnbb/Ok8CCQS0JUfvytp9HoaJXaJmRFoIzDduztX5AWQOdTnrC6A7Cxg/yMS+Bxv+7Uf/wPrI3rMTAi8GgFd+fG78nM0ejX/tp33c7T2a7uyS8+Pq2dbz7zaeWTr42brm2jzav5tO+830dzv+bgZbvOn8yCQSEBHftyOpM3rapPYJWZGoI3AdPDuXC6A3JD57ne/+1l/u8hA/kjrzbFsBRH4SF4yy7f/kAuynlERqCWgy759l30khrVGfZGDfSQvmaWrG+j5zfV8kfqpPSbvf3Pvf0R2tUZ9kYN9RE+Z6Zt3xIvY1jER+NAEdNg37zDssPtleeBDl4bhEHgRApPv3XFdALkh4wLIDRRbTyUwwbV2fKQ91TxehgACtwT0aUefjo63ItuMITA6WrtySc9sPWMKxKC3BOQvO3+rfrci24whsOrpOTufMcYzKALFBPRodo/Sr1O/4spxNARiCEy/7gZ2AeSGjAsgN1BsPZXABNfa8YH0VPN4GQII3BLQpx19OjreimwzhsDoaO3KJT2z9YwpEIPeEpC/7Pyt+t2KbDOGwKqn5+x8xhjPoAgUE9Cj2T1Kv079iivH0RCIITD9uhvYBZAbMi6A3ECx9VQCE1xrxwfSU83jZQggcEtAn3b06eh4K7LNGAKjo7Url/TM1jOmQAx6S0D+svO36ncrss0YAquenrPzGWM8gyJQTECPZvco/Tr1K64cR0MghsD0625gF0BuyLgAcgPF1lMJTHCtHR9ITzWPlyGAwC0BfdrRp6Pjrcg2YwiMjtauXNIzW8+YAjHoLQH5y87fqt+tyDZjCKx6es7OZ4zxDIpAMQE9mt2j9OvUr7hyHA2BGALTr7uBXQC5IeMCyA0UW08lMMG1dnwgPdU8XoYAArcE9GlHn46OtyLbjCEwOlq7cknPbD1jCsSgtwTkLzt/q363ItuMIbDq6Tk7nzHGMygCxQT0aHaP0q9Tv+LKcTQEYghMv+4GdgHkhowLIDdQbD2VwATX2vGB9FTzeBkCCNwS0KcdfTo63opsM4bA6GjtyiU9s/WMKRCD3hKQv+z8rfrdimwzhsCqp+fsfMYYz6AIFBPQo9k9Sr9O/Yorx9EQiCEw/bob2AWQGzIugNxAsfVUAhNca8cH0lPN42UIIHBLQJ929OnoeCuyzRgCo6O1K5f0zNYzpkAMektA/rLzt+p3K7LNGAKrnp6z8xljPIMiUExAj2b3KP069SuuHEdDIIbA9OtuYBdAbsi4AHIDxdZTCUxwrR0fSE81j5chgMAtAX3a0aej463INmMIjI7WrlzSM1vPmAIx6C0B+cvO36rfrcg2YwisenrOzmeM8QyKQDEBPZrdo/Tr1K+4chwNgRgC06+7gV0AuSHjAsgNFFtPJTDBtXZ8ID3VPF6GAAK3BPRpR5+Ojrci24whMDpau3JJz2w9YwrEoLcE5C87f6t+tyLbjCGw6uk5O58xxjMoAsUE9Gh2j9KvU7/iynE0BGIITL/uBnYB5IaMCyA3UGw9lcAE19rxgfRU83gZAgjcEtCnHX06Ot6KbDOGwOho7colPbP1jCkQg94SkL/s/K363YpsM4bAqqfn7HzGGM+gCBQT0KPZPUq/Tv2KK8fREIghMP26G9gFkBsyLoDcQLH1VAITXGvHB9JTzeNlCCBwS0CfdvTp6Hgrss0YAqOjtSuX9MzWM6ZADHpLQP6y87fqdyuyzRgCq56es/MZYzyDIlBMQI9m9yj9OvUrrhxHQyCGwPTrbmAXQG7IuAByA8XWUwlMcK0dH0hPNY+XIYDALQF92tGno+OtyDZjCIyO1q5c0jNbz5gCMegtAfnLzt+q363INmMIrHp6zs5njPEMikAxAT2a3aP069SvuHIcDYEYAtOvu4FdALkh4wLIDRRbTyUwwbV2fCA91TxehgACtwT0aUefjo63ItuMITA6WrtySc9sPWMKxKC3BOQvO3+rfrci24whsOrpOTufMcYzKALFBPRodo/Sr1O/4spxNARiCEy/7gZ2AeSGjAsgN1BsPZXABNfa8YH0VPN4GQII3BLQpx19OjreimwzhsDoaO3KJT2z9YxHNywAAAAgAElEQVQpEIPeEpC/7Pyt+t2KbDOGwKqn5+x8xhjPoAgUE9Cj2T1Kv079iivH0RCIITD9uhvYBZAbMi6A3ECx9VQCE1xrxwfSU83jZQggcEtAn3b06eh4K7LNGAKjo7Url/TM1jOmQAx6S0D+svO36ncrss0YAquenrPzGWM8gyJQTECPZvco/Tr1K64cR0MghsD0625gF0BuyLgAcgPF1lMJTHCtHR9ITzWPlyGAwC0BfdrRp6Pjrcg2YwiMjtauXNIzW8+YAjHoLQH5y87fqt+tyDZjCKx6es7OZ4zxDIpAMQE9mt2j9OvUr7hyHA2BGALTr7uBXQC5IeMCyA0UW08lMMG1dnwgPdU8XoYAArcE9GlHn46OtyLbjCEwOlq7cknPbD1jCsSgtwTkLzt/q363ItuMIbDq6Tk7nzHGMygCxQT0aHaP0q9Tv+LKcTQEYghMv+4GdgHkhowLIDdQbD2VwATX2vGB9FTzeBkCCNwS0KcdfTo63opsM4bA6GjtyiU9s/WMKRCD3hKQv+z8rfrdimwzhsCqp+fsfMYYz6AIFBPQo9k9Sr9O/Yorx9EQiCEw/bob2AWQGzIugNxAsfVUAhNca8cH0lPN42UIIHBLQJ929OnoeCuyzRgCo6O1K5f0zNYzpkAMektA/rLzt+p3K7LNGAKrnp6z8xljPIMiUExAj2b3KP069SuuHEdDIIbA9OtuYBdAbsi4AHIDxdZTCUxwrR0fSE81j5chgMAtAX3a0aej463INmMIjI7WrlzSM1vPmAIx6C0B+cvO36rfrcg2YwisenrOzmeM8QyKQDEBPZrdo/Tr1K+4chwNgRgC06+7gV0AuSHjAsgNFFtPJTDBtXZ8ID3VPF6GAAK3BPRpR5+Ojrci24whMDpau3JJz2w9YwrEoLcE5C87f6t+tyLbjCGw6uk5O58xxjMoAsUE9Gh2j9KvU7/iynE0BGIITL/uBnYB5IaMCyA3UGw9lcAE19rxgfRU83gZAgjcEtCnHX06Ot6KbDOGwOho7colPbP1jCkQg94SkL/s/K363YpsM4bAqqfn7HzGGM+gCBQT0KPZPUq/Tv2KK8fREIghMP26G9gFkBsyLoDcQLH1VAITXGvHB9JTzeNlCCBwS0CfdvTp6Hgrss0YAqOjtSuX9MzWM6ZADHpLQP6y87fqdyuyzRgCq56es/MZYzyDIlBMQI9m9yj9OvUrrhxHQyCGwPTrbmAXQG7IuAByA8XWUwlMcK0dH0hPNY+XIYDALQF92tGno+OtyDZjCIyO1q5c0jNbz5gCMegtAfnLzt+q363INmMIrHp6zs5njPEMikAxAT2a3aP069SvuHIcDYEYAtOvu4FdALkh4wLIDRRbTyUwwbV2fCA91TxehgACtwT0aUefjo63ItuMITA6WrtySc9sPWMKxKC3BOQvO3+rfrci24whsOrpOTufMcYzKALFBPRodo/Sr1O/4spxNARiCEy/7gZ2AeSGjAsgN1BsPZXABNfa8YH0VPN4GQII3BLQpx19OjreimwzhsDoaO3KJT2z9YwpEIPeEpC/7Pyt+t2KbDOGwKqn5+x8xhjPoAgUE9Cj2T1Kv079iivH0RCIITD9uhvYBZAbMi6A3ECx9VQCE1xrxwfSU83jZQggcEtAn3b06eh4K7LNGAKjo7Url/TM1jOmQAx6S0D+svO36ncrss0YAquenrPzGWM8gyJQTECPZvco/Tr1K64cR0MghsD0625gF0BuyPzpn/7p24BLXW+OZSuIQKrvzH3/QRdkPaMiUEtAP933UyqXWqO+yMFSfWfurh6h56d6vkj91B6Tnz/1czqPWqO+yMHS/Wf+T/vkRWzrmAh8aAJ66dNewgOPj+CBD10ahkPgRQhMF+yO+zIXQAbEq6w7we1nEHgVn77KOTNcZ0oEugm8St+8yjm73dp/ulfxqXP6H+aSPNDfPN0nTPKaWb++G7vd2n86Hv96jycx6nesEyLw8QkkdYZZu/4MoOdez4/fHCZEoJ/AdNTupC6AfGdfYgMvcd0Jbj+DQKLnzLzvkgzXmRKBbgI6at9RiWy63dp/ukTPmbmrQ+j5VT37m6f7hDz9VU8nM+l2a//pkr1n9q92Sb9jnRCBj09AN321mzDB5LQHPn5zmBCBfgLTA7uTugDiAsjOG/YPEpjgWjs+5g5ayasRQOAioE87+nR0ZOxsAqOjtSuX9MzWM7tVTC9/2flb9ePobAKrnp6z85ntRtMj0EFAj2b3KP069etoF6dAIJvA9OvuFC6AuACy84b9gwQmuNaOD6SDVvJqBBC4COjTjj4dHRk7m8DoaO3KJT2z9cxuFdPLX3b+Vv04OpvAqqfn7Hxmu9H0CHQQ0KPZPUq/Tv062sUpEMgmMP26O4ULIC6A7Lxh/yCBCa614wPpoJW8GgEELgL6tKNPR0fGziYwOlq7cknPbD2zW8X08pedv1U/js4msOrpOTuf2W40PQIdBPRodo/Sr1O/jnZxCgSyCUy/7k7hAogLIDtv2D9IYIJr7fhAOmglr0YAgYuAPu3o09GRsbMJjI7WrlzSM1vP7FYxvfxl52/Vj6OzCax6es7OZ7YbTY9ABwE9mt2j9OvUr6NdnAKBbALTr7tTuADiAsjOG/YPEpjgWjs+kA5ayasRQOAioE87+nR0ZOxsAqOjtSuX9MzWM7tVTC9/2flb9ePobAKrnp6z85ntRtMj0EFAj2b3KP069etoF6dAIJvA9OvuFC6AuACy84b9gwQmuNaOD6SDVvJqBBC4COjTjj4dHRk7m8DoaO3KJT2z9cxuFdPLX3b+Vv04OpvAqqfn7Hxmu9H0CHQQ0KPZPUq/Tv062sUpEMgmMP26O4ULIC6A7Lxh/yCBCa614wPpoJW8GgEELgL6tKNPR0fGziYwOlq7cknPbD2zW8X08pedv1U/js4msOrpOTuf2W40PQIdBPRodo/Sr1O/jnZxCgSyCUy/7k7hAogLIDtv2D9IYIJr7fhAOmglr0YAgYuAPu3o09GRsbMJjI7WrlzSM1vP7FYxvfxl52/Vj6OzCax6es7OZ7YbTY9ABwE9mt2j9OvUr6NdnAKBbALTr7tTuADiAsjOG/YPEpjgWjs+kA5ayasRQOAioE87+nR0ZOxsAqOjtSuX9MzWM7tVTC9/2flb9ePobAKrnp6z85ntRtMj0EFAj2b3KP069etoF6dAIJvA9OvuFC6AuACy84b9gwQmuNaOD6SDVvJqBBC4COjTjj4dHRk7m8DoaO3KJT2z9cxuFdPLX3b+Vv04OpvAqqfn7Hxmu9H0CHQQ0KPZPUq/Tv062sUpEMgmMP26O4ULIC6A7Lxh/yCBCa614wPpoJW8GgEELgL6tKNPR0fGziYwOlq7cknPbD2zW8X08pedv1U/js4msOrpOTuf2W40PQIdBPRodo/Sr1O/jnZxCgSyCUy/7k7hAogLIDtv2D9IYIJr7fhAOmglr0YAgYuAPu3o09GRsbMJjI7WrlzSM1vP7FYxvfxl52/Vj6OzCax6es7OZ7YbTY9ABwE9mt2j9OvUr6NdnAKBbALTr7tTuADiAsjOG/YPEpjgWjs+kA5ayasRQOAioE87+nR0ZOxsAqOjtSuX9MzWM7tVTC9/2flb9ePobAKrnp6z85ntRtMj0EFAj2b3KP069etoF6dAIJvA9OvuFC6AuACy84b9gwQmuNaOD6SDVvJqBBC4COjTjj4dHRk7m8DoaO3KJT2z9cxuFdPLX3b+Vv04OpvAqqfn7Hxmu9H0CHQQ0KPZPUq/Tv062sUpEMgmMP26O4ULIC6A7Lxh/yCBCa614wPpoJW8GgEELgL6tKNPR0fGziYwOlq7cknPbD2zW8X08pedv1U/js4msOrpOTuf2W40PQIdBPRodo/Sr1O/jnZxCgSyCUy/7k7hAogLIDtv2D9IYIJr7fhAOmglr0YAgYuAPu3o09GRsbMJjI7WrlzSM1vP7FYxvfxl52/Vj6OzCax6es7OZ7YbTY9ABwE9mt2j9OvUr6NdnAKBbALTr7tTuADiAsjOG/YPEpjgWjs+kA5ayasRQOAioE87+nR0ZOxsAqOjtSuX9MzWM7tVTC9/2flb9ePobAKrnp6z85ntRtMj0EFAj2b3KP069etoF6dAIJvA9OvuFC6AuACy84b9gwQmuNaOD6SDVvJqBBC4COjTjj4dHRk7m8DoaO3KJT2z9cxuFdPLX3b+Vv04OpvAqqfn7Hxmu9H0CHQQ0KPZPUq/Tv062sUpEMgmMP26O4ULIC6A7Lxh/yCBCa614wPpoJW8GgEELgL6tKNPR0fGziYwOlq7cknPbD2zW8X08pedv1U/js4msOrpOTuf2W40PQIdBPRodo/Sr1O/jnZxCgSyCUy/7k7hAogLIDtv2D9IYIJr7fhAOmglr0YAgYuAPu3o09GRsbMJjI7WrlzSM1vP7FYxvfxl52/Vj6OzCax6es7OZ7YbTY9ABwE9mt2j9OvUr6NdnAKBbALTr7tTuADiAsjOG/YPEpjgWjs+kA5ayasRQOAioE87+nR0ZOxsAqOjtSuX9MzWM7tVTC9/2flb9ePobAKrnp6z85ntRtMj0EFAj2b3KP069etoF6dAIJvA9OvuFC6AuACy84b9gwQmuNaOD6SDVvJqBBC4COjTjj4dHRk7m8DoaO3KJT2z9cxuFdPLX3b+Vv04OpvAqqfn7Hxmu9H0CHQQ0KPZPUq/Tv062sUpEMgmMP26O4ULIC6A7Lxh/yCBCa614wPpoJW8GgEELgL6tKNPR0fGziYwOlq7cknPbD2zW8X08pedv1U/js4msOrpOTuf2W40PQIdBPRodo/Sr1O/jnZxCgSyCUy/7k7hAogLIDtv2D9IYIJr7fhAOmglr0YAgYuAPu3o09GRsbMJjI7WrlzSM1vP7FYxvfxl52/Vj6OzCax6es7OZ7YbTY9ABwE9mt2j9OvUr6NdnAKBbALTr7tTuADiAsjOG/YPEpjgWjs+kA5ayasRQOAioE87+nR0ZOxsAqOjtSuX9MzWM7tVTC9/2flb9ePobAKrnp6z85ntRtMj0EFAj2b3KP069etoF6dAIJvA9OvuFC6AuACy84b9gwQmuNaOD6SDVvJqBBC4COjTjj4dHRk7m8DoaO3KJT2z9cxuFdPLX3b+Vv04OpvAqqfn7Hxmu9H0CHQQ0KPZPUq/Tv062sUpEMgmMP26O4ULIC6A7Lxh/yCBCa614wPpoJW8GgEELgL6tKNPR0fGziYwOlq7cknPbD2zW8X08pedv1U/js4msOrpOTuf2W40PQIdBPRodo/Sr1O/jnZxCgSyCUy/7k7hAogLIDtv2D9IYIJr7fhAOmglr0YAgYuAPu3o09GRsbMJjI7WrlzSM1vP7FYxvfxl52/Vj6OzCax6es7OZ7YbTY9ABwE9mt2j9OvUr6NdnAKBbALTr7tTuADiAsjOG/YPEpjgWjs+kA5ayasRQOAioE87+nR0ZOxsAqOjtSuX9MzWM7tVTC9/2flb9ePobAKrnp6z85ntRtMj0EFAj2b3KP069etoF6dAIJvA9OvuFC6AuACy84b9gwQmuNaOD6SDVvJqBBC4COjTjj4dHRk7m8DoaO3KJT2z9cxuFdPLX3b+Vv04OpvAqqfn7Hxmu9H0CHQQ0KPZPUq/Tv062sUpEMgmMP26O4ULIC6A7Lxh/yCBCa614wPpoJW8GgEELgL6tKNPR0fGziYwOlq7cknPbD2zW8X08pedv1U/js4msOrpOTuf2W40PQIdBPRodo/Sr1O/jnZxCgSyCUy/7k7hAogLIDtv2D9IYIJr7fhAOmglr0YAgYuAPu3o09GRsbMJjI7WrlzSM1vP7FYxvfxl52/Vj6OzCax6es7OZ7YbTY9ABwE9mt2j9OvUr6NdnAKBbALTr7tTuADiAsjOG/YPEpjgWjs+kA5ayasRQOAioE87+nR0ZOxsAqOjtSuX9MzWM7tVTC9/2flb9ePobAKrnp6z85ntRtMj0EFAj2b3KP069etoF6dAIJvA9OvuFC6AuACy84b9gwQmuNaOD6SDVvJqBBC4COjTjj4dHRk7m8DoaO3KJT2z9cxuFdPLX3b+Vv04OpvAqqfn7Hxmu9H0CHQQ0KPZPUq/Tv062sUpEMgmMP26O4ULIC6A7Lxh/yCBCa614wPpoJW8GgEELgL6tKNPR0fGziYwOlq7cknPbD2zW8X08pedv1U/js4msOrpOTuf2W40PQIdBPRodo/Sr1O/jnZxCgSyCUy/7k7hAogLIDtv2D9IYIJr7fhAOmglr0YAgYuAPu3o09GRsbMJjI7WrlzSM1vP7FYxvfxl52/Vj6OzCax6es7OZ7YbTY9ABwE9mt2j9OvUr6NdnAKBbALTr7tTuADiAsjOG/YPEpjgWjs+kA5ayasRQOAioE87+nR0ZOxsAqOjtSuX9MzWM7tVTC9/2flb9ePobAKrnp6z85ntRtMj0EFAj2b3KP069etoF6dAIJvA9OvuFC6AuACy84b9gwQmuNaOD6SDVvJqBBC4COjTjj4dHRk7m8DoaO3KJT2z9cxuFdPLX3b+Vv04OpvAqqfn7Hxmu9H0CHQQ0KPZPUq/Tv062sUpEMgmMP26O4ULIC6A7Lxh/yCBCa614wPpoJW8GgEELgL6tKNPR0fGziYwOlq7cknPbD2zW8X08pedv1U/js4msOrpOTuf2W40PQIdBPRodo/Sr1O/jnZxCgSyCUy/7k7hAogLIDtv2D9IYIJr7fhAOmglr0YAgYuAPu3o09GRsbMJjI7WrlzSM1vP7FYxvfxl52/Vj6OzCax6es7OZ7YbTY9ABwE9mt2j9OvUr6NdnAKBbALTr7tTuADiAsjOG/YPEpjgWjs+kA5ayasRQOAioE87+nR0ZOxsAqOjtSuX9MzWM7tVTC9/2flb9ePobAKrnp6z85ntRtMj0EFAj2b3KP069etoF6dAIJvA9OvuFC6AuACy84b9gwQmuNaOD6SDVvJqBBC4COjTjj4dHRk7m8DoaO3KJT2z9cxuFdPLX3b+Vv04OpvAqqfn7Hxmu9H0CHQQ0KPZPUq/Tv062sUpEMgmMP26O4ULIC6A7Lxh/yCBCa614wPpoJW8GgEELgL6tKNPR0fGziYwOlq7cknPbD2zW8X08pedv1U/js4msOrpOTuf2W40PQIdBPRodo/Sr1O/jnZxCgSyCUy/7k7hAogLIDtv2D9IYIJr7fhAOmglr0YAgYuAPu3o09GRsbMJjI7WrlzSM1vP7FYxvfxl52/Vj6OzCax6es7OZ7YbTY9ABwE9mt2j9OvUr6NdnAKBbALTr7tTuADiAsjOG/YPEpjgWjs+kA5ayasRQOAioE87+nR0ZOxsAqOjtSuX9MzWM7tVTC9/2flb9ePobAKrnp6z85ntRtMj0EFAj2b3KP069etoF6dAIJvA9OvuFC6AuACy84b9gwQmuNaOD6SDVvJqBBC4COjTjj4dHRk7m8DoaO3KJT2z9cxuFdPLX3b+Vv04OpvAqqfn7Hxmu9H0CHQQ0KPZPUq/Tv062sUpEMgmMP26O4ULIC6A7Lxh/yCBCa614wPpoJW8GgEELgL6tKNPR0fGziYwOlq7cknPbD2zW8X08pedv1U/js4msOrpOTuf2W40PQIdBPRodo/Sr1O/jnZxCgSyCUy/7k7hAogLIDtv2D9IYIJr7fhAOmglr0YAgYuAPu3o09GRsbMJjI7WrlzSM1vP7FYxvfxl52/Vj6OzCax6es7OZ7YbTY9ABwE9mt2j9OvUr6NdnAKBbALTr7tTuADiAsjOG/YPEpjgWjs+kA5ayasRQOAioE87+nR0ZOxsAqOjtSuX9MzWM7tVTC9/2flb9ePobAKrnp6z85ntRtMj0EFAj2b3KP069etoF6dAIJvA9OvuFC6AuACy84b9gwQmuNaOD6SDVvJqBBC4COjTjj4dHRk7m8DoaO3KJT2z9cxuFdPLX3b+Vv04OpvAqqfn7Hxmu9H0CHQQ0KPZPUq/Tv062sUpEMgmMP26O4ULIC6A7Lxh/yCBCa614wPpoJW8GgEELgL6tKNPR0fGziYwOlq7cknPbD2zW8X08pedv1U/js4msOrpOTuf2W40PQIdBPRodo/Sr1O/jnZxCgSyCUy/7k7hAogLIDtv2D9IYIJr7fhAOmglr0YAgYuAPu3o09GRsbMJjI7WrlzSM1vP7FYxvfxl52/Vj6OzCax6es7OZ7YbTY9ABwE9mt2j9OvUr6NdnAKBbALTr7tTuADiAsjOG/YPEpjgWjs+kA5ayasRQOAioE87+nR0ZOxsAqOjtSuX9MzWM7tVTC9/2flb9ePobAKrnp6z85ntRtMj0EFAj2b3KP069etoF6dAIJvA9OvuFC6AuACy84b9gwQmuNaOD6SDVvJqBBC4COjTjj4dHRk7m8DoaO3KJT2z9cxulf9l735eff3us/6XdpAiISIoQVqKdCClg6KjIlYKUhzouIjgH1Cwg0460pF0IM6c6EAQQZw4UPyBKIg4cSZUEZVQLCIlqdhQTFJiI8n+cvzer0rW56yTs3fO3uu+rvfjgKze63P2vtfref3onbr4xOnlLzt/q34cnU1g1dNzdj6z3ej0CHQQ0KPZPUq/Tv062sUUCGQTmH7dTeECiAsgO2/YP0hggmvt+EA6aCWvRgCBi4A+7ejT0ZGxswmMjtauXNIzW8/sVnF6+cvO36ofR2cTWPX0nJ3PbDc6PQIdBPRodo/Sr1O/jnYxBQLZBKZfd1O4AOICyM4b9g8SmOBaOz6QDlrJqxFA4CKgTzv6dHRk7GwCo6O1K5f0zNYzu1WcXv6y87fqx9HZBFY9PWfnM9uNTo9ABwE9mt2j9OvUr6NdTIFANoHp190ULoC4ALLzhv2DBCa41o4PpINW8moEELgI6NOOPh0dGTubwOho7colPbP1zG4Vp5e/7Pyt+nF0NoFVT8/Z+cx2o9Mj0EFAj2b3KP069etoF1MgkE1g+nU3hQsgLoDsvGH/IIEJrrXjA+mglbwaAQQuAvq0o09HR8bOJjA6WrtySc9sPbNbxenlLzt/q34cnU1g1dNzdj6z3ej0CHQQ0KPZPUq/Tv062sUUCGQTmH7dTeECiAsgO2/YP0hggmvt+EA6aCWvRgCBi4A+7ejT0ZGxswmMjtauXNIzW8/sVnF6+cvO36ofR2cTWPX0nJ3PbDc6PQIdBPRodo/Sr1O/jnYxBQLZBKZfd1O4AOICyM4b9g8SmOBaOz6QDlrJqxFA4CKgTzv6dHRk7GwCo6O1K5f0zNYzu1WcXv6y87fqx9HZBFY9PWfnM9uNTo9ABwE9mt2j9OvUr6NdTIFANoHp190ULoC4ALLzhv2DBCa41o4PpINW8moEELgI6NOOPh0dGTubwOho7colPbP1zG4Vp5e/7Pyt+nF0NoFVT8/Z+cx2o9Mj0EFAj2b3KP069etoF1MgkE1g+nU3hQsgLoDsvGH/IIEJrrXjA+mglbwaAQQuAvq0o09HR8bOJjA6WrtySc9sPbNbxenlLzt/q34cnU1g1dNzdj6z3ej0CHQQ0KPZPUq/Tv062sUUCGQTmH7dTeECiAsgO2/YP0hggmvt+EA6aCWvRgCBi4A+7ejT0ZGxswmMjtauXNIzW8/sVnF6+cvO36ofR2cTWPX0nJ3PbDc6PQIdBPRodo/Sr1O/jnYxBQLZBKZfd1O4AOICyM4b9g8SmOBaOz6QDlrJqxFA4CKgTzv6dHRk7GwCo6O1K5f0zNYzu1WcXv6y87fqx9HZBFY9PWfnM9uNTo9ABwE9mt2j9OvUr6NdTIFANoHp190ULoC4ALLzhv2DBCa41o4PpINW8moEELgI6NOOPh0dGTubwOho7colPbP1zG4Vp5e/7Pyt+nF0NoFVT8/Z+cx2o9Mj0EFAj2b3KP069etoF1MgkE1g+nU3hQsgLoDsvGH/IIEJrrXjA+mglbwaAQQuAvq0o09HR8bOJjA6WrtySc9sPbNbxenlLzt/q34cnU1g1dNzdj6z3ej0CHQQ0KPZPUq/Tv062sUUCGQTmH7dTeECiAsgO2/YP0hggmvt+EA6aCWvRgCBi4A+7ejT0ZGxswmMjtauXNIzW8/sVnF6+cvO36ofR2cTWPX0nJ3PbDc6PQIdBPRodo/Sr1O/jnYxBQLZBKZfd1O4AOICyM4b9g8SmOBaOz6QDlrJqxFA4CKgTzv6dHRk7GwCo6O1K5f0zNYzu1WcXv6y87fqx9HZBFY9PWfnM9uNTo9ABwE9mt2j9OvUr6NdTIFANoHp190ULoC4ALLzhv2DBCa41o4PpINW8moEELgI6NOOPh0dGTubwOho7colPbP1zG4Vp5e/7Pyt+nF0NoFVT8/Z+cx2o9Mj0EFAj2b3KP069etoF1MgkE1g+nU3hQsgLoDsvGH/IIEJrrXjA+mglbwaAQQuAvq0o09HR8bOJjA6WrtySc9sPbNbxenlLzt/q34cnU1g1dNzdj6z3ej0CHQQ0KPZPUq/Tv062sUUCGQTmH7dTeECiAsgO2/YP0hggmvt+EA6aCWvRgCBi4A+7ejT0ZGxswmMjtauXNIzW8/sVnF6+cvO36ofR2cTWPX0nJ3PbDc6PQIdBPRodo/Sr1O/jnYxBQLZBKZfd1O4AOICyM4b9g8SmOBaOz6QDlrJqxFA4CKgTzv6dHRk7GwCo6O1K5f0zNYzu1WcXv6y87fqx9HZBFY9PWfnM9uNTo9ABwE9mt2j9OvUr6NdTIFANoHp190ULoC4ALLzhv2DBCa41o4PpINW8moEELgI6NOOPh0dGTubwOho7colPbP1zG4Vp5e/7Pyt+nF0NoFVT8/Z+cx2o9Mj0EFAj2b3KP069etoF1MgkE1g+nU3hQsgLoDsvGH/IIEJrrXjA+mglbwaAQQuAvq0o09HR8bOJjA6WrtySc9sPbNbxenlLzt/q34cnU1g1dNzdj6z3ej0CDF3mxAAACAASURBVHQQ0KPZPUq/Tv062sUUCGQTmH7dTeECiAsgO2/YP0hggmvt+EA6aCWvRgCBi4A+7ejT0ZGxswmMjtauXNIzW8/sVnF6+cvO36ofR2cTWPX0nJ3PbDc6PQIdBPRodo/Sr1O/jnYxBQLZBKZfd1O4AOICyM4b9g8SmOBaOz6QDlrJqxFA4CKgTzv6dHRk7GwCo6O1K5f0zNYzu1WcXv6y87fqx9HZBFY9PWfnM9uNTo9ABwE9mt2j9OvUr6NdTIFANoHp190ULoC4ALLzhv2DBCa41o4PpINW8moEELgI6NOOPh0dGTubwOho7colPbP1zG4Vp5e/7Pyt+nF0NoFVT8/Z+cx2o9Mj0EFAj2b3KP069etoF1MgkE1g+nU3hQsgLoDsvGH/IIEJrrXjA+mglbwaAQQuAvq0o09HR8bOJjA6WrtySc9sPbNbxenlLzt/q34cnU1g1dNzdj6z3ej0CHQQ0KPZPUq/Tv062sUUCGQTmH7dTeECiAsgO2/YP0hggmvt+EA6aCWvRgCBi4A+7ejT0ZGxswmMjtauXNIzW8/sVnF6+cvO36ofR2cTWPX0nJ3PbDc6PQIdBPRodo/Sr1O/jnYxBQLZBKZfd1O4AOICyM4b9g8SmOBaOz6QDlrJqxFA4CKgTzv6dHRk7GwCo6O1K5f0zNYzu1WcXv6y87fqx9HZBFY9PWfnM9uNTo9ABwE9mt2j9OvUr6NdTIFANoHp190ULoC4ALLzhv2DBCa41o4PpINW8moEELgI6NOOPh0dGTubwOho7colPbP1zG4Vp5e/7Pyt+nF0NoFVT8/Z+cx2o9Mj0EFAj2b3KP069etoF1MgkE1g+nU3hQsgLoDsvGH/IIEJrrXjA+mglbwaAQQuAvq0o09HR8bOJjA6WrtySc9sPbNbxenlLzt/q34cnU1g1dNzdj6z3ej0CHQQ0KPZPUq/Tv062sUUCGQTmH7dTeECiAsgO2/YP0hggmvt+EA6aCWvRgCBi4A+7ejT0ZGxswmMjtauXNIzW8/sVnF6+cvO36ofR2cTWPX0nJ3PbDc6PQIdBPRodo/Sr1O/jnYxBQLZBKZfd1O4AOICyM4b9g8SmOBaOz6QDlrJqxFA4CKgTzv6dHRk7GwCo6O1K5f0zNYzu1WcXv6y87fqx9HZBFY9PWfnM9uNTo9ABwE9mt2j9OvUr6NdTIFANoHp190ULoC4ALLzhv2DBCa41o4PpINW8moEELgI6NOOPh0dGTubwOho7colPbP1zG4Vp5e/7Pyt+nF0NoFVT8/Z+cx2o9Mj0EFAj2b3KP069etoF1MgkE1g+nU3hQsgLoDsvGH/IIEJrrXjA+mglbwaAQQuAvq0o09HR8bOJjA6WrtySc9sPbNbxenlLzt/q34cnU1g1dNzdj6z3ej0CHQQ0KPZPUq/Tv062sUUCGQTmH7dTeECiAsgO2/YP0hggmvt+EA6aCWvRgCBi4A+7ejT0ZGxswmMjtauXNIzW8/sVnF6+cvO36ofR2cTWPX0nJ3PbDc6PQIdBPRodo/Sr1O/jnYxBQLZBKZfd1O4AOICyM4b9g8SmOBaOz6QDlrJqxFA4CKgTzv6dHRk7GwCo6O1K5f0zNYzu1WcXv6y87fqx9HZBFY9PWfnM9uNTo9ABwE9mt2j9OvUr6NdTIFANoHp190ULoC4ALLzhv2DBCa41o4PpINW8moEELgI6NOOPh0dGTubwOho7colPbP1zG4Vp5e/7Pyt+nF0NoFVT8/Z+cx2o9Mj0EFAj2b3KP069etoF1MgkE1g+nU3hQsgLoDsvGH/IIEJrrXjA+mglbwaAQQuAvq0o09HR8bOJjA6WrtySc9sPbNbxenlLzt/q34cnU1g1dNzdj6z3ej0CHQQ0KPZPUq/Tv062sUUCGQTmH7dTeECiAsgO2/YP0hggmvt+EA6aCWvRgCBi4A+7ejT0ZGxswmMjtauXNIzW8/sVnF6+cvO36ofR2cTWPX0nJ3PbDc6PQIdBPRodo/Sr1O/jnYxBQLZBKZfd1O4AOICyM4b9g8SmOBaOz6QDlrJqxFA4CKgTzv6dHRk7GwCo6O1K5f0zNYzu1WcXv6y87fqx9HZBFY9PWfnM9uNTo9ABwE9mt2j9OvUr6NdTIFANoHp190ULoC4ALLzhv2DBCa41o4PpINW8moEELgI6NOOPh0dGTubwOho7colPbP1zG4Vp5e/7Pyt+nF0NoFVT8/Z+cx2o9Mj0EFAj2b3KP069etoF1MgkE1g+nU3hQsgLoDsvGH/IIEJrrXjA+mglbwaAQQuAvq0o09HR8bOJjA6WrtySc9sPbNbxenlLzt/q34cnU1g1dNzdj6z3ej0CHQQ0KPZPUq/Tv062sUUCGQTmH7dTeECiAsgO2/YP0hggmvt+EA6aCWvRgCBi4A+7ejT0ZGxswmMjtauXNIzW8/sVnF6+cvO36ofR2cTWPX0nJ3PbDc6PQIdBPRodo/Sr1O/jnYxBQLZBKZfd1O4AOICyM4b9g8SmOBaOz6QDlrJqxFA4CKgTzv6dHRk7GwCo6O1K5f0zNYzu1WcXv6y87fqx9HZBFY9PWfnM9uNTo9ABwE9mt2j9OvUr6NdTIFANoHp190ULoC4ALLzhv2DBCa41o4PpINW8moEELgI6NOOPh0dGTubwOho7colPbP1zG4Vp5e/7Pyt+nF0NoFVT8/Z+cx2o9Mj0EFAj2b3KP069etoF1MgkE1g+nU3hQsgLoDsvGH/IIEJrrXjA+mglbwaAQQuAvq0o09HR8bOJjA6WrtySc9sPbNbxenlLzt/q34cnU1g1dNzdj6z3ej0CHQQ0KPZPUq/Tv062sUUCGQTmH7dTeECiAsgO2/YP0hggmvt+EA6aCWvRgCBi4A+7ejT0ZGxswmMjtauXNIzW8/sVnF6+cvO36ofR2cTWPX0nJ3PbDc6PQIdBPRodo/Sr1O/jnYxBQLZBKZfd1O4AOICyM4b9g8SmOBaOz6QDlrJqxFA4CKgTzv6dHRk7GwCo6O1K5f0zNYzu1WcXv6y87fqx9HZBFY9PWfnM9uNTo9ABwE9mt2j9OvUr6NdTIFANoHp190ULoC4ALLzhv2DBCa41o4PpINW8moEELgI6NOOPh0dGTubwOho7colPbP1zG4Vp5e/7Pyt+nF0NoFVT8/Z+cx2o9Mj0EFAj2b3KP069etoF1MgkE1g+nU3hQsgLoDsvGH/IIEJrrXjA+mglbwaAQQuAvq0o09HR8bOJjA6WrtySc9sPbNbxenlLzt/q34cnU1g1dNzdj6z3ej0CHQQ0KPZPUq/Tv062sUUCGQTmH7dTeECiAsgO2/YP0hggmvt+EA6aCWvRgCBi4A+7ejT0ZGxswmMjtauXNIzW8/sVnF6+cvO36ofR2cTWPX0nJ3PbDc6PQIdBPRodo/Sr1O/jnYxBQLZBKZfd1O4AOICyM4b9g8SmOBaOz6QDlrJqxFA4CKgTzv6dHRk7GwCo6O1K5f0zNYzu1WcXv6y87fqx9HZBFY9PWfnM9uNTo9ABwE9mt2j9OvUr6NdTIFANoHp190ULoC4ALLzhv2DBCa41o4PpINW8moEELgI6NOOPh0dGTubwOho7colPbP1zG4Vp5e/7Pyt+nF0NoFVT8/Z+cx2o9Mj0EFAj2b3KP069etoF1MgkE1g+nU3hQsgLoDsvGH/IIEJrrXjA+mglbwaAQQuAvq0o09HR8bOJjA6WrtySc9sPbNbxenlLzt/q34cnU1g1dNzdj6z3ej0CHQQ0KPZPUq/Tv062sUUCGQTmH7dTeECiAsgO2/YP0hggmvt+EA6aCWvRgCBi4A+7ejT0ZGxswmMjtauXNIzW8/sVnF6+cvO36ofR2cTWPX0nJ3PbDc6PQIdBPRodo/Sr1O/jnYxBQLZBKZfd1O4AOICyM4b9g8SmOBaOz6QDlrJqxFA4CKgTzv6dHRk7GwCo6O1K5f0zNYzu1WcXv6y87fqx9HZBFY9PWfnM9uNTo9ABwE9mt2j9OvUr6NdTIFANoHp190ULoC4ALLzhv2DBCa41o4PpINW8moEELgI6NOOPh0dGTubwOho7colPbP1zG4Vp5e/7Pyt+nF0NoFVT8/Z+cx2o9Mj0EFAj2b3KP069etoF1MgkE1g+nU3hQsgLoDsvGH/IIEJrrXjA+mglbwaAQQuAvq0o09HR8bOJjA6WrtySc9sPbNbxenlLzt/q34cnU1g1dNzdj6z3ej0CHQQ0KPZPUq/Tv062sUUCGQTmH7dTeECiAsgO2/YP0hggmvt+EA6aCWvRgCBi4A+7ejT0ZGxswmMjtauXNIzW8/sVnF6+cvO36ofR2cTWPX0nJ3PbDc6PQIdBPRodo/Sr1O/jnYxBQLZBKZfd1O4AOICyM4b9g8SmOBaOz6QDlrJqxFA4CKgTzv6dHRk7GwCo6O1K5f0zNYzu1WcXv6y87fqx9HZBFY9PWfnM9uNTo9ABwE9mt2j9OvUr6NdTIFANoHp190ULoC4ALLzhv2DBCa41o4PpINW8moEELgI6NOOPh0dGTubwOho7colPbP1zG4Vp5e/7Pyt+nF0NoFVT8/Z+cx2o9Mj0EFAj2b3KP069etoF1MgkE1g+nU3hQsgLoDsvGH/IIEJrrXjA+mglbwaAQQuAvq0o09HR8bOJjA6WrtySc9sPbNbxenlLzt/q34cnU1g1dNzdj6z3ej0CHQQ0KPZPUq/Tv062sUUCGQTmH7dTeECiAsgO2/YP0hggmvt+EA6aCWvRgCBi4A+7ejT0ZGxswmMjtauXNIzW8/sVnF6+cvO36ofR2cTWPX0nJ3PbDc6PQIdBPRodo/Sr1O/jnYxBQLZBKZfd1O4AOICyM4b9g8SmOBaOz6QDlrJqxFA4CKgTzv6dHRk7GwCo6O1K5f0zNYzu1WcXv6y87fqx9HZBFY9PWfnM9uNTo9ABwE9mt2j9OvUr6NdTIFANoHp190ULoC4ALLzhv2DBCa41o4PpINW8moEELgI6NOOPh0dGTubwOho7colPbP1zG4Vp5e/7Pyt+nF0NoFVT8/Z+cx2o9Mj0EFAj2b3KP069etoF1MgkE1g+nU3hQsgLoDsvGH/IIEJrrXjA+mglbwaAQQuAvq0o09HR8bOJjA6WrtySc9sPbNbxenlLzt/q34cnU1g1dNzdj6z3ej0CHQQ0KPZPUq/Tv062sUUCGQTmH7dTeECiAsgO2/YP0hggmvt+EA6aCWvRgCBi4A+7ejT0ZGxswmMjtauXNIzW8/sVnF6+cvO36ofR2cTWPX0nJ3PbDc6PQIdBPRodo/Sr1O/jnYxBQLZBKZfd1O4AOICyM4b9g8SmOBaOz6QDlrJqxFA4CKgTzv6dHRk7GwCo6O1K5f0zNYzu1WcXv6y87fqx9HZBFY9PWfnM9uNTo9ABwE9mt2j9OvUr6NdTIFANoHp190ULoC4ALLzhv2DBCa41o4PpINW8moEELgI6NOOPh0dGTubwOho7colPbP1zG4Vp5e/7Pyt+nF0NoFVT8/Z+cx2o9Mj0EFAj2b3KP069etoF1MgkE1g+nU3hQsgLoDsvGH/IIEJrrXjA+mglbwaAQQuAvq0o09HR8bOJjA6WrtySc9sPbNbxenlLzt/q34cnU1g1dNzdj6z3ej0CHQQ0KPZPUq/Tv062sUUCGQTmH7dTeECiAsgO2/YP0hggmvt+EA6aCWvRgCBi4A+7ejT0ZGxswmMjtauXNIzW8/sVnF6+cvO36ofR2cTWPX0nJ3PbDc6PQIdBPRodo/Sr1O/jnYxBQLZBKZfd1O4AOICyM4b9g8SmOBaOz6QDlrJqxFA4CKgTzv6dHRk7GwCo6O1K5f0zNYzu1WcXv6y87fqx9HZBFY9PWfnM9uNTo9ABwE9mt2j9OvUr6NdTIFANoHp190ULoC4ALLzhv2DBCa41o4PpINW8moEELgI6NOOPh0dGTubwOho7colPbP1zG4Vp5e/7Pyt+nF0NoFVT8/Z+cx2o9Mj0EFAj2b3KP069etoF1MgkE1g+nU3hQsgLoDsvGH/IIEJrrXjA+mglbwaAQQuAvq0o09HR8bOJjA6WrtySc9sPbNbxenlLzt/q34cnU1g1dNzdj6z3ej0CHQQ0KPZPUq/Tv062sUUCGQTmH7dTeECiAsgO2/YP0hggmvt+EA6aCWvRgCBi4A+7ejT0ZGxswmMjtauXNIzW8/sVnF6+cvO36ofR2cTWPX0nJ3PbDc6PQIdBPRodo/Sr1O/jnYxBQLZBKZfd1O4AOICyM4b9g8SmOBaOz6QDlrJqxFA4CKgTzv6dHRk7GwCo6O1K5f0zNYzu1WcXv6y87fqx9HZBFY9PWfnM9uNTo9ABwE9mt2j9OvUr6NdTIFANoHp190ULoC4ALLzhv2DBCa41o4PpINW8moEELgI6NOOPh0dGTubwOho7colPbP1zG4Vp5e/7Pyt+nF0NoFVT8/Z+cx2o9Mj0EFAj2b3KP069etoF1MgkE1g+nU3hQsgLoDsvGH/IIEJrrXjA+mglbwaAQQuAvq0o09HR8bOJjA6WrtySc9sPbNbxenlLzt/q34cnU1g1dNzdj6z3ej0CHQQ0KPZPUq/Tv062sUUCGQTmH7dTeECiAsgO2/YP0hggmvt+EA6aCWvRgCBi4A+7ejT0ZGxswmMjtauXNIzW8/sVnF6+cvO36ofR2cTWPX0nJ3PbDc6PQIdBPRodo/Sr1O/jnYxBQLZBKZfd1O4AOICyM4b9g8SmOBaOz6QDlrJqxFA4CKgTzv6dHRk7GwCo6O1K5f0zNYzu1WcXv6y87fqx9HZBFY9PWfnM9uNTo9ABwE9mt2j9OvUr6NdTIFANoHp190ULoC4ALLzhv2DBCa41o4PpINW8moEELgI6NOOPh0dGTubwOho7colPbP1zG4Vp5e/7Pyt+nF0NoFVT8/Z+cx2o9Mj0EFAj2b3KP069etoF1MgkE1g+nU3hQsgLoDsvGH/IIEJrrXjA+mglbwaAQQuAvq0o09HR8bOJjA6WrtySc9sPbNbxenlLzt/q34cnU1g1dNzdj6z3ej0CHQQ0KPZPUq/Tv062sUUCGQTmH7dTeECiAsgO2/YP0hggmvt+EA6aCWvRgCBi4A+7ejT0ZGxswmMjtauXNIzW8/sVnF6+cvO36ofR2cTWPX0nJ3PbDc6PQIdBPRodo/Sr1O/jnYxBQLZBKZfd1O4AOICyM4b9g8SmOBaOz6QDlrJqxFA4CKgTzv6dHRk7GwCo6O1K5f0zNYzu1WcXv6y87fqx9HZBFY9PWfnM9uNTo9ABwE9mt2j9OvUr6NdTIFANoHp190ULoC4ALLzhv2DBCa41o4PpINW8moEELgI6NOOPh0dGTubwOho7colPbP1zG4Vp5e/7Pyt+nF0NoFVT8/Z+cx2o9Mj0EFAj2b3KP069etoF1MgkE1g+nU3hQsgLoDsvGH/IIEJrrXjA+mglbwaAQQuAvq0o09HR8bOJjA6WrtySc9sPbNbxenlLzt/q34cnU1g1dNzdj6z3ej0CHQQ0KPZPUq/Tv062sUUCGQTmH7dTeECiAsgO2/YP0hggmvt+EA6aCWvRgCBi4A+7ejT0ZGxswmMjtauXNIzW8/sVnF6+cvO36ofR2cTWPX0nJ3PbDc6PQIdBPRodo/Sr1O/jnYxBQLZBKZfd1O4AOICyM4b9g8SmOBaOz6QDlrJqxFA4CKgTzv6dHRk7GwCo6O1K5f0zNYzu1WcXv6y87fqx9HZBFY9PWfnM9uNTo9ABwE9mt2j9OvUr6NdTIFANoHp190ULoC4ALLzhv2DBCa41o4PpINW8moEELgI6NOOPh0dGTubwOho7colPbP1zG4Vp5e/7Pyt+nF0NoFVT8/Z+cx2o9Mj0EFAj2b3KP069etoF1MgkE1g+nU3hQsgLoDsvGH/IIEJrrXjA+mglbwaAQQuAvq0o09HR8bOJjA6WrtySc9sPbNbxenlLzt/q34cnU1g1dNzdj6z3ej0CHQQ0KPZPUq/Tv062sUUCGQTmH7dTeECiAsgO2/YP0hggmvt+EA6aCWvRgCBi4A+7ejT0ZGxswmMjtauXNIzW8/sVnF6+cvO36ofR2cTWPX0nJ3PbDc6PQIdBPRodo/Sr1O/jnYxBQLZBKZfd1O4AOICyM4b9g8SmOBaOz6QDlrJqxFA4CKgTzv6dHRk7GwCo6O1K5f0zNYzu1WcXv6y87fqx9HZBFY9PWfnM9uNTo9ABwE9mt2j9OvUr6NdTIFANoHp190ULoC4ALLzhv2DBCa41o4PpINW8moEELgI6NOOPh0dGTubwOho7colPbP1zG4Vp5e/7Pyt+nF0NoFVT8/Z+cx2o9Mj0EFAj2b3KP069etoF1MgkE1g+nU3hQsgLoDsvGH/IIEJrrXjA+mglbwaAQQuAvq0o09HR8bOJjA6WrtySc9sPbNbxenlLzt/q34cnU1g1dNzdj6z3ej0CHQQ0KPZPUq/Tv062sUUCGQTmH7dTeECiAsgO2/YP0hggmvt+EA6aCWvRgCBi4A+7ejT0ZGxswmMjtauXNIzW8/sVnF6+cvO36ofR2cTWPX0nJ3PbDc6PQIdBPRodo/Sr1O/jnYxBQLZBKZfd1O4AOICyM4b9g8SmOBaOz6QDlrJqxFA4CKgTzv6dHRk7GwCo6O1K5f0zNYzu1WcXv6y87fqx9HZBFY9PWfnM9uNTo9ABwE9mt2j9OvUr6NdTIFANoHp190ULoC4ALLzhv2DBCa41o4PpINW8moEELgI6NOOPh0dGTubwOho7colPbP1zG4Vp5e/7Pyt+nF0NoFVT8/Z+cx2o9Mj0EFAj2b3KP069etoF1MgkE1g+nU3hQsgLoDsvGH/IIEJrrXjA+mglbwaAQQuAvq0o09HR8bOJjA6WrtySc9sPbNbxenlLzt/q34cnU1g1dNzdj6z3ej0CHQQ0KPZPUq/Tv062sUUCGQTmH7dTeECiAsgO2/YP0hggmvt+EA6aCWvRgCBi4A+7ejT0ZGxswmMjtauXNIzW8/sVnF6+cvO36ofR2cTWPX0nJ3PbDc6PQIdBPRodo/Sr1O/jnYxBQLZBKZfd1O4AOICyM4b9g8SmOBaOz6QDlrJqxFA4CKgTzv6dHRk7GwCo6O1K5f0zNYzu1WcXv6y87fqx9HZBFY9PWfnM9uNTo9ABwE9mt2j9OvUr6NdTIFANoHp190ULoC4ALLzhv2DBCa41o4PpINW8moEELgI6NOOPh0dGTubwOho7colPbP1zG4Vp5e/7Pyt+nF0NoFVT8/Z+cx2o9Mj0EFAj2b3KP069etoF1MgkE1g+nU3hQsgLoDsvGH/IIEJrrXjA+mglbwaAQQuAvq0o09HR8bOJjA6WrtySc9sPbNbxenlLzt/q34cnU1g1dNzdj6z3ej0CHQQ0KPZPUq/Tv062sUUCGQTmH7dTeECiAsgO2/YP0hggmvt+EA6aCWvRgCBi4A+7ejT0ZGxswmMjtauXNIzW8/sVnF6+cvO36ofR2cTWPX0nJ3PbDc6PQIdBPRodo/Sr1O/jnYxBQLZBKZfd1O4AOICyM4b9g8SmOBaOz6QDlrJqxFA4CKgTzv6dHRk7GwCo6O1K5f0zNYzu1WcXv6y87fqx9HZBFY9PWfnM9uNTo9ABwE9mt2j9OvUr6NdTIFANoHp190ULoC4ALLzhv2DBCa41o4PpINW8moEELgI6NOOPh0dGTubwOho7colPbP1zG4Vp5e/7Pyt+nF0NoFVT8/Z+cx2o9Mj0EFAj2b3KP069etoF1MgkE1g+nU3hQsgLoDsvGH/IIEJrrXjA+mglbwaAQQuAvq0o09HR8bOJjA6WrtySc9sPbNbxenlLzt/q34cnU1g1dNzdj6z3ej0CHQQ0KPZPUq/Tv062sUUCGQTmH7dTeECiAsgO2/YP0hggmvt+EA6aCWvRgCBi4A+7ejT0ZGxswmMjtauXNIzW8/sVnF6+cvO36ofR2cTWPX0nJ3PbDc6PQIdBPRodo/Sr1O/jnYxBQLZBKZfd1O4AOICyM4b9g8SmOBaOz6QDlrJqxFA4CKgTzv6dHRk7GwCo6O1K5f0zNYzu1WcXv6y87fqx9HZBFY9PWfnM9uNTo9ABwE9mt2j9OvUr6NdTIFANoHp190ULoC4ALLzhv2DBCa41o4PpINW8moEELgI6NOOPh0dGTubwOho7colPbP1zG4Vp5e/7Pyt+nF0NoFVT8/Z+cx2o9Mj0EFAj2b3KP069etoF1MgkE1g+nU3hQsgLoDsvGH/IIEJrrXjA+mglbwaAQQuAvq0o09HR8bOJjA6WrtySc9sPbNbxenlLzt/q34cnU1g1dNzdj6z3ej0CHQQ0KPZPUq/Tv062sUUCGQTmH7dTeECiAsgO2/YP0hggmvt+EA6aCWvRgCBi4A+7ejT0ZGxswmMjtauXNIzW8/sVnF6+cvO36ofR2cTWPX0nJ3PbDc6PQIdBPRodo/Sr1O/jnYxBQLZBKZfd1O4AOICyM4b9g8SmOBaOz6QDlrJqxFA4CKgTzv6dHRk7GwCo6O1K5f0zNYzu1WcXv6y87fqx9HZBFY9PWfnM9uNTo9ABwE9mt2j9OvUr6NdTIFANoHp190ULoC4ALLzhv2DBCa41o4PpINW8moEELgI6NOOPh0dGTubwOho7colPbP1zG4Vp5e/7Pyt+nF0NoFVT8/Z+cx2o9Mj0EFAj2b3KP069etoF1MgkE1g+nU3hQsgLoDsvGH/IIEJrrXjA+mglbwaAQQuAvq0o09HR8bOJjA6WrtySc9sPbNbxenlLzt/q34cnU1g1dNzdj6z3ej0CHQQ0KPZPUq/Tv062sUUCGQTmH7dTeECiAsgO2/YP0hggmvt+EA6aCWvRgCBi4A+7ejT0ZGxswmMjtauXNIzW8/sVnF6+cvO36ofR2cTWPX0nJ3PbDc6PQIdBPRodo/Sr1O/jnYxBQLZBKZfd1O4AOICyM4b9g8SVAnDVAAAIABJREFUmOBaOz6QDlrJqxFA4CKgTzv6dHRk7GwCo6O1K5f0zNYzu1WcXv6y87fqx9HZBFY9PWfnM9uNTo9ABwE9mt2j9OvUr6NdTIFANoHp190ULoC4ALLzhv2DBCa41o4PpINW8moEELgI6NOOPh0dGTubwOho7colPbP1zG4Vp5e/7Pyt+nF0NoFVT8/Z+cx2o9Mj0EFAj2b3KP069etoF1MgkE1g+nU3hQsgLoDsvGH/IIEJrrXjA+mglbwaAQQuAvq0o09HR8bOJjA6WrtySc9sPbNbxenlLzt/q34cnU1g1dNzdj6z3ej0CHQQ0KPZPUq/Tv062sUUCGQTmH7dTeECiAsgO2/YP0hggmvt+EA6aCWvRgCBi4A+7ejT0ZGxswmMjtauXNIzW8/sVnF6+cvO36ofR2cTWPX0nJ3PbDc6PQIdBPRodo/Sr1O/jnYxBQLZBKZfd1O4AOICyM4b9g8SmOBaOz6QDlrJqxFA4CKgTzv6dHRk7GwCo6O1K5f0zNYzu1WcXv6y87fqx9HZBFY9PWfnM9uNTo9ABwE9mt2j9OvUr6NdTIFANoHp190ULoC4ALLzhv2DBCa41o4PpINW8moEELgI6NOOPh0dGTubwOho7colPbP1zG4Vp5e/7Pyt+nF0NoFVT8/Z+cx2o9Mj0EFAj2b3KP069etoF1MgkE1g+nU3hQsgLoDsvGH/IIEJrrXjA+mglbwaAQQuAvq0o09HR8bOJjA6WrtySc9sPbNbxenlLzt/q34cnU1g1dNzdj6z3ej0CHQQ0KPZPUq/Tv062sUUCGQTmH7dTeECiAsgO2/YP0hggmvt+EA6aCWvRgCBi4A+7ejT0ZGxswmMjtauXNIzW8/sVnF6+cvO36ofR2cTWPX0nJ3PbDc6PQIdBPRodo/Sr1O/jnYxBQLZBKZfd1O4AOICyM4b9g8SmOBaOz6QDlrJqxFA4CKgTzv6dHRk7GwCo6O1K5f0zNYzu1WcXv6y87fqx9HZBFY9PWfnM9uNTo9ABwE9mt2j9OvUr6NdTIFANoHp190ULoC4ALLzhv2DBCa41o4PpINW8moEELgI6NOOPh0dGTubwOho7colPbP1zG4Vp5e/7Pyt+nF0NoFVT8/Z+cx2o9Mj0EFAj2b3KP069etoF1MgkE1g+nU3hQsgLoDsvGH/IIEJrrXjA+mglbwaAQQuAvq0o09HR8bOJjA6WrtySc9sPbNbxenlLzt/q34cnU1g1dNzdj6z3ej0CHQQ0KPZPUq/Tv062sUUCGQTmH7dTeECiAsgO2/YP0hggmvt+EA6aCWvRgCBi4A+7ejT0ZGxswmMjtauXNIzW8/sVnF6+cvO36ofR2cTWPX0nJ3PbDc6PQIdBPRodo/Sr1O/jnYxBQLZBKZfd1O4AOICyM4b9g8SmOBaOz6QDlrJqxFA4CKgTzv6dHRk7GwCo6O1K5f0zNYzu1WcXv6y87fqx9HZBFY9PWfnM9uNTo9ABwE9mt2j9OvUr6NdTIFANoHp190ULoC4ALLzhv2DBCa41o4PpINW8moEELgI6NOOPh0dGTubwOho7colPbP1zG4Vp5e/7Pyt+nF0NoFVT8/Z+cx2o9Mj0EFAj2b3KP069etoF1MgkE1g+nU3hQsgLoDsvGH/IIEJrrXjA+mglbwaAQQuAvq0o09HR8bOJjA6WrtySc9sPbNbxenlLzt/q34cnU1g1dNzdj6z3ej0CHQQ0KPZPUq/Tv062sUUCGQTmH7dTeECiAsgO2/YP0hggmvt+EA6aCWvRgCBi4A+7ejT0ZGxswmMjtauXNIzW8/sVnF6+cvO36ofR2cTWPX0nJ3PbDc6PQIdBPRodo/Sr1O/jnYxBQLZBKZfd1O4AOICyM4b9g8SmOBaOz6QDlrJqxFA4CKgTzv6dHRk7GwCo6O1K5f0zNYzu1WcXv6y87fqx9HZBFY9PWfnM9uNTo9ABwE9mt2j9OvUr6NdTIFANoHp190ULoC4ALLzhv2DBCa41o4PpINW8moEELgI6NOOPh0dGTubwOho7colPbP1zG4Vp5e/7Pyt+nF0NoFVT8/Z+cx2o9Mj0EFAj2b3KP069etoF1MgkE1g+nU3hQsgLoDsvGH/IIEJrrXjA+mglbwaAQQuAvq0o09HR8bOJjA6WrtySc9sPbNbxenlLzt/q34cnU1g1dNzdj6z3ej0CHQQ0KPZPUq/Tv062sUUCGQTmH7dTeECiAsgO2/YP0hggmvt+EA6aCWvRgCBi4A+7ejT0ZGxswmMjtauXNIzW8/sVnF6+cvO36ofR2cTWPX0nJ3PbDc6PQIdBPRodo/Sr1O/jnYxBQLZBKZfd1O4AOICyM4b9g8SmOBaOz6QDlrJqxFA4CKgTzv6dHRk7GwCo6O1K5f0zNYzu1WcXv6y87fqx9HZBFY9PWfnM9uNTo9ABwE9mt2j9OvUr6NdTIFANoHp190ULoC4ALLzhv2DBCa41o4PpINW8moEELgI6NOOPh0dGTubwOho7colPbP1zG4Vp5e/7Pyt+nF0NoFVT8/Z+cx2o9Mj0EFAj2b3KP069etoF1MgkE1g+nU3hQsgLoDsvGH/IIEJrrXjA+mglbwaAQQuAvq0o09HR8bOJjA6WrtySc9sPbNbxenlLzt/q34cnU1g1dNzdj6z3ej0CHQQ0KPZPUq/Tv062sUUCGQTmH7dTeECiAsgO2/YP0hggmvt+EA6aCWvRgCBi4A+7ejT0ZGxswmMjtauXNIzW8/sVnF6+cvO36ofR2cTWPX0nJ3PbDc6PQIdBPRodo/Sr1O/jnYxBQLZBKZfd1O4AOICyM4b9g8SmOBaOz6QDlrJqxFA4CKgTzv6dHRk7GwCo6O1K5f0zNYzu1WcXv6y87fqx9HZBFY9PWfnM9uNTo9ABwE9mt2j9OvUr6NdTIFANoHp190ULoC4ALLzhv2DBCa41o4PpINW8moEELgI6NOOPh0dGTubwOho7colPbP1zG4Vp5e/7Pyt+nF0NoFVT8/Z+cx2o9Mj0EFAj2b3KP069etoF1MgkE1g+nU3hQsgLoDsvGH/IIEJrrXjA+mglbwaAQQuAvq0o09HR8bOJjA6WrtySc9sPbNbxenlLzt/q34cnU1g1dNzdj6z3ej0CHQQ0KPZPUq/Tv062sUUCGQTmH7dTeECiAsgO2/YP0hggmvt+EA6aCWvRgCBi4A+7ejT0ZGxswmMjtauXNIzW8/sVnF6+cvO36ofR2cTWPX0nJ3PbDc6PQIdBPRodo/Sr1O/jnYxBQLZBKZfd1O4AOICyM4b9g8SmOBaOz6QDlrJqxFA4CKgTzv6dHRk7GwCo6O1K5f0zNYzu1WcXv6y87fqx9HZBFY9PWfnM9uNTo9ABwE9mt2j9OvUr6NdTIFANoHp190ULoC4ALLzhv2DBCa41o4PpINW8moEELgI6NOOPh0dGTubwOho7colPbP1zG4Vp5e/7Pyt+nF0NoFVT8/Z+cx2o9Mj0EFAj2b3KP069etoF1MgkE1g+nU3hQsgLoDsvGH/IIEJrrXjA+mglbwaAQQuAvq0o09HR8bOJjA6WrtySc9sPbNbxenlLzt/q34cnU1g1dNzdj6z3ej0CHQQ0KPZPUq/Tv062sUUCGQTmH7dTeECiAsgO2/YP0hggmvt+EA6aCWvRgCBi4A+7ejT0ZGxswmMjtauXNIzW8/sVnF6+cvO36ofR2cTWPX0nJ3PbDc6PQIdBPRodo/Sr1O/jnYxBQLZBKZfd1O4AOICyM4b9g8SmOBaOz6QDlrJqxFA4CKgTzv6dHRk7GwCo6O1K5f0zNYzu1WcXv6y87fqx9HZBFY9PWfnM9uNTo9ABwE9mt2j9OvUr6NdTIFANoHp190ULoC4ALLzhv2DBCa41o4PpINW8moEELgI6NOOPh0dGTubwOho7colPbP1zG4Vp5e/7Pyt+nF0NoFVT8/Z+cx2o9Mj0EFAj2b3KP069etoF1MgkE1g+nU3Rf0FkB/6oR96+iN/5I88/ck/+Seffv7nf/7pF37hF57+/J//808/8zM/83/33/3zgdS07gS3n0GgyYtm2dZshhmdEoESArqo6z9wltjyYceQx6480rNDz4ctpJLB5bAjh6NjiS0fdozR0dqRy4c1ssERuBEBfdrRp3Ts0vFGFeEoCDwsgenVHYDt/8/k/GDa+u5Cxy/+4i8+/et//a+f/uf//J9P3/nOd3az/97+//pf/+vp3/ybf/P0y7/8y0+f//znKy6E/N5w/odIAmm5c94Pf8BFmtChESgjoKc+3FNpfMrs+XDjpPnNebv6g57v1/PhiqhsYL5+v69TuZTZ8+HGSfWdc7+/Rx7OwAZG4IYE9NP7+wkXXE564IZV4UgIPByB6YDd4DUXQN79Wz7+0T/6R0/f+ta3drN+1P63v/3t//t7fuRHfiT6IshHDesv3ZbABNfa8SF3W6M5GAIPRECfdvTp6PhA1q0cdXS0duWSntl6VpbNAw0lf9n5W/V7IOtWjrrq6Tk7n5UmNRQCYQT0aHaP0q9Tv7AacVwEKglMv+6Gq7gA8jf+xt/4qH/Txw7C+/bf/ZtD/tpf+2uxl0DeN5O9HAITXGvHB1KO85wUgV4C+rSjT0fHXqc+xmSjo7Url/TM1vMx2qd3SvnLzt+qX69TH2OyVU/P2fl8DNeaEoF7E9Cj2T1Kv0797t0aTofAYxCYft1NG30B5N2/peN//I//sZvtk+z/6q/+6tMXvvCFuIsgn2R4v+QYgQmuteMD6ZiRvBgBBH6PgD7t6NPR8feE9T9EEhgdrV25pGe2npFl4tC/R0D+svO36vd7wvofIgmsenrOzmekCR0agTICejS7R+nXqV9ZzRgHgUgC06+7w8deAPmxH/uxp69//eu7uT7p/le+8pWnz33uc1GXQD4pAL/szQlMcK0dH0hvbiAvRACBzxDQpx19Ojp+RmAbUQRGR2tXLumZrWdUiTjsZwjIX3b+Vv0+I7CNKAKrnp6z8xllPodFoJSAHs3uUfp16ldaN8ZCIIrA9Ovu0JEXQD7/+c8/feMb39jN9Cr7//7f/3sXQF6FrF/6PgITXGvHB9L7NLaHAAJvS0CfdvTp6Pi27vG2T01gdLR25ZKe2Xp+6pz7fW9LQP6y87fq97bu8bZPTWDV03N2Pj+1P/w+BBB4PgE9mt2j9OvU7/lJ9hMIIPCpCUy/7n5v5AWQf/Ev/sVunlfd/1t/62/FXAJ5VRB++asTmOBaOz6QXt0wXoAAAt+TgD7t6NPR8XsK7i/cmsDoaO3KJT2z9bx1aTjc9yQgf9n5W/X7noL7C7cmsOrpOTuftzabwyHwIAT0aHaP0q9TvwepH2MicGsC06+7Q8ZdAPkzf+bP7GZ59f1vf/vbT3/oD/2hiEsgrw7DC16VwATX2vGB9Kpm8csRQOCjCOjTjj4dHT9KdH/ptgRGR2tXLumZredtC8PBPoqA/GXnb9Xvo0T3l25LYNXTc3Y+b2s0B0PggQjo0ewepV+nfg9UQUZF4LYEpl93B4y7APKlL31pN8tH7X/nO9/5qL+3+0v/6l/9KxdAdnDsfzICE1xrxwfSJzOGX4QAAi8moE87+nR0fLER/OAtCIyO1q5c0jNbz1uUg0O8mID8Zedv1e/FRvCDtyCw6uk5O5+3MJVDIPDgBPRodo/Sr1O/B68l4yNwCwLTr7vDRF0A+dEf/dHdHB/c/8f/+B8//bk/9+eevvCFL/zfyxvvfs9f/It/8enXf/3XP/hz7/uH7/4tID/4gz94+0sg7zu7vRwCE1xrxwdSjvOcFIFeAvq0o09Hx16nPsZko6O1K5f0zNbzMdqnd0r5y87fql+vUx9jslVPz9n5fAzXmhKBexPQo9k9Sr9O/e7dGk6HwGMQmH7dTRt1AeTv/J2/s5vjvftf+9rXnv7Un/pTH7ys8cu//MtPz/23gvz8z//8B3/nQD+5vheIzRgCJ73j3Z/+oyzGeA6KQDEB3fbpu+0k02KrPsRoJ73j3V1dQM9Pp+dDlE/xkLLw6bJwB5bFVn2I0e7gIWf4dJ3wEKY1JAI3J6DTPl2nYYnlp/LAzWvD8RB4CAKT592wURdAvvKVr+zmeO/+H//jf/yjLmr8zb/5N9/787vNf/bP/tlH/d6Bf2Ldnd1+BoETnvHO1/sAzHCdUyLQTUDHvV7HnWDb7db+6U54xju7OoCen17P/ubpnlAmPn0mTjLtdmv/dCe9492fvgv6HWtCBO5PQLd9+m7DFNPv1wP3bw4nRKCfwOR4N2nUBZDn/Js6/vk//+cffUnj3X+ly2//9m/vGH1m/z/9p//00b97BHjr9TOHthFF4K394n2v+9EXZT6HRaCUgJ573Z57a76lNn2Ysd7aL97XlX96vo6eD1NApYPKxevk4hTXUps+zFinfOO9r9MDD2NcgyJwYwL67XX6DVdcvx8P3LgyHA2BhyEwGd4NHHMB5E/8iT+xm+G9+7//9//+Z13S+Ht/7++99/e8b/PLX/7ys373iPCW6/vObS+HwFt6xbte/2Mvx3lOikAvAV33+l33lox7nfoYk72lV7yrK/v0fD09H6N9eqeUjdfLxgm2vU59jMlOeMY7X68DHsO1pkTg3gR03Ot1HLbYvtQD924Np0PgMQhMfnfTxlwA+ZVf+ZXdDJ/Z//rXv/7sCxq/9Eu/9Jnfs9t4ye8fId5q3Z3dfgaBt/KJ97zNR16G65wSgW4C+u5t+u6tOHe7tX+6t/KJ93Tlnp6vq2d/83RPKB+vm4+35tvt1v7p3tov3ve6+e93rAkRuD8BPfe6PYcvvi/xwP2bwwkR6Ccw2d1NGnMB5B/+w3+4m+Ez+y/5r2j5uZ/7uc/8nt3G1772tWdfMBkh3mrdnd1+BoG38on3vM0HXobrnBKBbgL67m367q04d7u1f7q38on3dOWenq+rZ3/zdE8oH6+bj7fm2+3W/une2i/e97r573esCRG4PwE997o9hy++L/HA/ZvDCRHoJzDZ3U0acwHkj/7RP/r0C7/wC09//a//9ad/8A/+wdO//bf/9unXfu3Xnr761a8+/e7v/u53zff3//7ff/YFjXe/+2P//MZv/Mazf/8I8Vbrx87i792TwFv5xHve5gPvni5zKgQei4C+e5u+eyvOj+Xevmnfyife05V7er6unn1N81gTycfr5uOt+T6We/umfWu/eN/r5r/PoSZCII+AnnvdnsMX35d4IK9JnBiBPgKT3d1kMRdAZpAPrX/4D//hp5/92Z99erd+6O+975/93b/7d3eMPrP/H/7Df3j273/fO19z7zOHthFF4DW94Xe//UddlPkcFoFSArrv7bvvNZmX2vRhxnpNb/jdXVmn59vp+TAFVDqorLxdVt6CdalNH2ast/CId7xd5h/GuAZF4MYEdN7bdR7WWH+sB25cGY6GwMMQmLzuBq66ADLDvmT90pe+tGP0mf1/+S//pQsgn6Fi41MSeImH/cx9P9A+pTf8LgQQeBkBHXnfjnyJNi9zgZ+6C4GXaO5nujJMz/vpeZd+cI6XEZCp+2Xq+9HkZS7wU3ch8P1o72fvl+W7+Mo5EHhkArrxft1IE5o8cieZHYG7EJgu3p3HBZAf+IGnn/7pn97xee/+L/7iL7oA8l4yNj8VgQmuteNj6lP5wu9BAIGXE9CnHX06Or7cCX7yDgRGR2tXLumZrecdusEZXk5A/rLzt+r3cif4yTsQWPX0nJ3PO3jKGRB4dAJ6NLtH6dep36P3kvkRuAOB6dfdWVwA+YEfePqP//E/7vi8d//zn/+8CyDvJWPzUxGY4Fo7PpA+lS/8HgQQeDkBfdrRp6Pjy53gJ+9AYHS0duWSntl63qEbnOHlBOQvO3+rfi93gp+8A4FVT8/Z+byDp5wBgUcnoEeze5R+nfo9ei+ZH4E7EJh+3Z3l4S+A/Ok//ad3bN67/9//+3+//eWPd6L7k01ggmvt+EDKdqPTI9BBQJ929Ono2OHKx51idLR25ZKe2Xo+biN1TC5/2flb9etw5eNOserpOTufj+tkkyNwHwJ6NLtH6dep330awkkQeFwC0687AtubAvODzesf/IN/8Omb3/zmjs179//yX/7LLoC8l4zNT0mgOXePONun9IbfhQACLyPwiN3TPPPLXOCn7kKg2Ztm6/w/bj2CrnfpB+d4GYFH8OgjzfgyF/ipuxB4JK8+wqx38ZVzIPDIBB6ha8zoP0emeeCRO8nsCNyFwPTG7jwPewHkh3/4h5++8pWv7Li8d/8b3/jG0w/+4A+6APJeOjY/JYEJrrXj4+9TesPvQgCBlxHQpx19Ojq+zAV+6i4ERkdrVy7pma3nXfrBOV5GQP6y87fq9zIX+Km7EFj19Jydz7v4yjkQeGQCejS7R+nXqd8jd5LZEbgLgenX3Xke8gLID/3QDz391//6X3dMtvsp//aPd6L7k01ggmvt+EDKdqPTI9BBQJ929Ono2OHKx51idLR25ZKe2Xo+biN1TC5/2flb9etw5eNOserpOTufj+tkkyNwHwJ6NLtH6dep330awkkQeFwC0687AtubAvODbeu7yx//+T//5x2P7f5v//Zvx/zbP95p5k82gbbcPfo82W50egQ6CDx6D7XN3+HKx52izY/m6fw/aD2aro/bSB2TP5pf2+ftcOXjTtHuz0eb73GdbHIE7kPg0XrHvP7zZYIH7tMQToLA4xKYrtgR2N4UmB9sWt9d/vgv/+W/7Fh8cP9nfuZnIv6rX0avDw7jH96ewOho7fjgu73hHBCBByCgTzv6dHR8AMtWjzg6WrtySc9sPatL5wGGk7/s/K36PYBlq0dc9fScnc9qsxoOgRACejS7R+nXqV9IfTgmAtUEpl93Qz7MBZDPfe5zT1/60pd2HD64/7f/9t+OuvzxTnR/sglMcK0dH0jZbnR6BDoI6NOOPh0dO1z5uFOMjtauXNIzW8/HbaSOyeUvO3+rfh2ufNwpVj09Z+fzcZ1scgTuQ0CPZvco/Tr1u09DOAkCj0tg+nVHYHtTYH6wYf19v+/3Pf23//bfdgw+uP/lL3857vLHO838ySbQkDsz/L+Pu2w3Oj0CHQR00v/rpAYWHa583CkaPGiGrk6hp//8mN7IPNzVSel+fPTzy6M8PnoGzI/ApyagV7t6lZ4den7qnPt9CCDwfALTp7uf3P5feuYH09c/8Af+wNNv/uZv7ub/4P43v/nNpx/90R91AeSDlPzD1yCQnjvn/+4PudfwiN+JAALPI6CXvruX0nk8T31/+24E0v3n/F19Qs//X8+79YTzPI8AH3f10vPU97fvRkAe5fFunnQeBNIJ6NWuXqVnh57pveL8CDQQmD7dzVJ9AeSLX/zi01e/+tXd7B/c/z//5/88/dRP/VTk5Y93ovuTTWCCa/VBlO1kp0fgPgT0aUefjo73cZaTvITA6GjtyiU9s/V8SZb9zH0IyF92/lb97uMsJ3kJgVVPz9n5fIkH/AwCCHxaAno0u0fp16nfp02534YAAi8hMP26+9ntTYH5wdT13b+542tf+9pu7g/uf+c733n6uZ/7udjLH+808yebQGrunPv9H3TZbnR6BDoI6Kf391Mqlw5XPu4Uqb5z7q4eoed36/m4jdQxOT9/t5/TeXS48nGnSPef8393nzyuk02OwH0I6KXv7iU88LiDB+7TEE6CwOMSmC7YEdjeFJgfTFx//Md//Okb3/jGbuYP7n/7299++rN/9s9GX/54p5k/2QQSc+fM+4/PbDc6PQIdBHTUvqMS2XS48nGnSPScM3d1CD0/q+fjNlLH5Dz9WU8nM+lw5eNOkew9Z/9slzyuk02OwH0I6KbPdhMmmJz2wH0awkkQeFwC0wM7AtubAvODaetP/uRPPn3zm9/czfvB/Xf/tS8/+7M/G3/5451m/mQTSMud8374ozPbjU6PQAcBPfXhnkrj0+HKx50izW/O29Uf9Hy/no/bSB2T8/X7fZ3KpcOVjztFqu+c+/098rhONjkC9yGgn97fT7jgctID92kIJ0HgcQlMB+wIbG8KzA8mrT/xEz/x9Lu/+7u7WT+4/61vfevpp3/6pysuf7zTzJ9sAkm5c9bv/bGZ7UanR6CDgK763l2VxKjDlY87RZLXnLWrO+i51/NxG6ljct7eezuRTYcrH3eKRM85875DHtfJJkfgPgR01L6jsMHmlAfu0xBOgsDjEpj87whsbwrMD6asP/ZjP/b0O7/zO7s5P7j/v//3/376qZ/6qZrLH+808yebQErunPPjPjKz3ej0CHQQ0Fcf11cpnDpc+bhTpPjMObt6g54f1vNxG6ljcv7+sL/T+HS48nGnSPOb8364Px7XySZH4D4E9NSHewoffE544D4N4SQIPC6Byf6OwPamwPxgwvrFL37x6Wtf+9puxg/uf/3rX3/68R//8arLH+808yebQELunPHjPy6z3ej0CHQQ0Fkf31kJrDpc+bhTJHjMGbs6g57fW8/HbaSOyXn8e3s8iVGHKx93iiSvOev37o7HdbLJEbgPAV31vbsKI4ze2gP3aQgnQeBxCUzudwS2NwXmB+++fv7zn3/66le/upvvg/u/9Vu/9fTu8sjdZ3zJ+T44uH94ewIv0dzP3PdD7/aGc0AEHoCAjrxvR75EmwewbPWIL9Hcz3RlmJ7307O6dB5gOJm6X6a+H00ewLLVI34/2vvZ+2W52qyGQyCEgG68XzfShCYh9eGYCFQTmC7eDRl/AeRLX/rSbrYP7n/5y19++sIXvlB5+eOd6P5kE5jgWjs+prLd6PQIdBDQpx19Ojp2uPJxpxgdrV25pGe2no/bSB2Ty192/lb9Olz5uFOsenrOzufjOtnkCNyHgB7N7lH6dep3n4ZwEgQel8D0647A9qbA/OCd13/yT/7Jbq4P7v/6r//60w//8A/XXv54p5k/2QTunDtne/5HW7YbnR6BDgK66/nddWdmHa583Cnu7C37nxAwAAAgAElEQVRn6+oKen68no/bSB2T8/rHez2BVYcrH3eKBI8548d3xuM62eQI3IeAzvr4zsIKq7fywH0awkkQeFwCk/cdge1NgfnBu65/5a/8ld1MH9z/tV/7tafPfe5z1Zc/3mnmTzaBu+bOuV72EZntRqdHoIOA/npZf92VW4crH3eKu/rKubp6gp7P0/NxG6ljcn5/nt/vzqvDlY87xd395XzP64vHdbLJEbgPAb31vN7CC6+38MB9GsJJEHhcApP1HYHtTYH5wTuuP/mTP/n0ne98ZzfTdv83fuM3HuLyxzvN/MkmcMfcOdPLPx6z3ej0CHQQ0GEv77A7sutw5eNOcUdPOVNXR9Dz+Xo+biN1TM7zz/f8nZl1uPJxp7izt5zt+V3xuE42OQL3IaC7nt9dmGH22h64T0M4CQKPS2ByviOwvSkwP3jH9Stf+cpunu3+t771racf+ZEfqf83f4xeWxD+QQSB0dHa8bEWYTqHRKCcgD7t6NPRsdyu9eONjtauXNIzW8/64ikfUP6y87fqV27X+vFWPT1n57PesAZEIICAHs3uUfp16hdQHY6IQD2B6dfdoHEXQH7lV35lN8sH9//qX/2rT3/sj/2xT/L/fuInfuL2F0k+CMM/vD2BCa614wPp9oZzQAQegIA+7ejT0fEBLFs94uho7colPbP1rC6dBxhO/rLzt+r3AJatHnHV03N2PqvNajgEQgjo0ewepV+nfiH14ZgIVBOYft0NGXcB5Bvf+MZuljfb/53f+R0XQN6M9mO+aIJr7fhAekwXmxqBexHQpx19Ojrey11O81wCo6O1K5f0zNbzuTn29+9FQP6y87fqdy93Oc1zCax6es7O53P19/cRQODTE9Cj2T1Kv079Pn3S/UYEEHgugenX3c9FXQD5pV/6pd0cb7rvAsib4n7Il01wrR0fSA9pYkMjcDMC+rSjT0fHm9nLcZ5JYHS0duWSntl6PjPG/vrNCMhfdv5W/W5mL8d5JoFVT8/Z+Xym/P46Agi8AgE9mt2j9OvU7xWi7lcigMAzCUy/7n4s6gLIb/3Wb+3meNN9F0DeFPdDvmyCa+34QHpIExsagZsR0KcdfTo63sxejvNMAqOjtSuX9MzW85kx9tdvRkD+svO36nczeznOMwmsenrOzucz5ffXEUDgFQjo0ewepV+nfq8Qdb8SAQSeSWD6dfdjMRdA/sJf+Au7Gd583wWQN0f+cC+c4Fo7PpAezsAGRuCGBPRpR5+Ojje0mCM9g8DoaO3KJT2z9XxGhP3VGxKQv+z8rfrd0GKO9AwCq56es/P5DOn9VQQQeCUCejS7R+nXqd8rxd2vRQCBZxCYft39SMwFkF/91V/dzfDm+y6AvDnyh3vhBNfa8YH0cAY2MAI3JKBPO/p0dLyhxRzpGQRGR2tXLumZreczIuyv3pCA/GXnb9XvhhZzpGcQWPX0nJ3PZ0jvryKAwCsR0KPZPUq/Tv1eKe5+LQIIPIPA9OvuR2IugLy7dHGXPy6A3EWJ3nNMcK0dH0i9TjUZAjkE9GlHn46OOc5z0vcRGB2tXbmkZ7ae78uqvRwC8pedv1W/HOc56fsIrHp6zs7n+zS2hwACb0tAj2b3KP069XvbFvA2BBB4H4Hp1/f9s3d7ERdAvvjFL+7Of2TfBZAj2B/qpRNca8cH0kOZ17AI3JSAPu3o09HxpjZzrI8kMDpau3JJz2w9PzK+/tpNCchfdv5W/W5qM8f6SAKrnp6z8/mRsvtrCCDwigT0aHaP0q9Tv1eMvF+NAAIfSWD6dffXIy6A/KW/9Jd25z+y7wLIEewP9dIJrrXjA+mhzGtYBG5KQJ929OnoeFObOdZHEhgdrV25pGe2nh8ZX3/tpgTkLzt/q343tZljfSSBVU/P2fn8SNn9NQQQeEUCejS7R+nXqd8rRt6vRgCBjyQw/br76xEXQP7pP/2nu/Mf2XcB5Aj2h3rpBNfa8YH0UOY1LAI3JaBPO/p0dLypzRzrIwmMjtauXNIzW8+PjK+/dlMC8pedv1W/m9rMsT6SwKqn5+x8fqTs/hoCCLwiAT2a3aP069TvFSPvVyOAwEcSmH7d/fWICyD/7t/9u935j+z/5m/+5tOAvet6BIyXfjICd/WVc73sg+2TGcMvQgCBFxPQXy/rr7tye7ER/OAtCNzVV87V1RP0fJ6etygHh3gxAX5/nt/vzuvFRvCDtyBwd3853/P64hamcggEHpyA3npeb+GF11t44MFryfgI3ILAZH13mIgLIDOE9eP/l9dOcPsZBHj9472ewCrDdU6JQDeBhK5wxo/v/m639k/H6x/vdayweisP9DdP94Rv5RPveZtO6nZr/3Ry8jY5eSvO/Y41IQL3J/BWefeerv6m5+vqef/mcEIE+glMz+0mdQHkB163CEeAt153gtvPIPDWfvG+1+2BDNc5JQLdBPTc6/bcW/Ptdmv/dG/tF+/ryj89X0fP/ubpnlAuXicXp7h2u7V/ulO+8d7X6YF+x5oQgfsT0G+v02+44vr9eOD+zeGECPQTmAzvJnUBxAWQnTfsHyQwwbV2fIgdtJJXI4DARUCfdvTp6MjY2QRGR2tXLumZrWd2qzi9/GXnb9WPo7MJrHp6zs5nthudHoEOAno0u0fp16lfR7uYAoFsAtOvuylcAHEBZOcN+wcJTHCtHR9IB63k1QggcBHQpx19OjoydjaB0dHalUt6ZuuZ3SpOL3/Z+Vv14+hsAquenrPzme1Gp0egg4Aeze5R+nXq19EupkAgm8D0624KF0BcANl5w/5BAhNca8cH0kEreTUCCFwE9GlHn46OjJ1NYHS0duWSntl6ZreK08tfdv5W/Tg6m8Cqp+fsfGa70ekR6CCgR7N7lH6d+nW0iykQyCYw/bqbwgUQF0B23rB/kMAE19rxgXTQSl6NAAIXAX3a0aejI2NnExgdrV25pGe2ntmt4vTyl52/VT+Oziaw6uk5O5/ZbnR6BDoI6NHsHqVfp34d7WIKBLIJTL/upnABxAWQnTfsHyQwwbV2fCAdtJJXI4DARUCfdvTp6MjY2QRGR2tXLumZrWd2qzi9/GXnb9WPo7MJrHp6zs5nthudHoEOAno0u0fp16lfR7uYAoFsAtOvuylcAHEBZOcN+wcJTHCtHR9IB63k1QggcBHQpx19OjoydjaB0dHalUt6ZuuZ3SpOL3/Z+Vv14+hsAquenrPzme1Gp0egg4Aeze5R+nXq19EupkAgm8D0624KF0BcANl5w/5BAhNca8cH0kEreTUCCFwE9GlHn46OjJ1NYHS0duWSntl6ZreK08tfdv5W/Tg6m8Cqp+fsfGa70ekR6CCgR7N7lH6d+nW0iykQyCYw/bqbwgUQF0B23rB/kMAE19rxgXTQSl6NAAIXAX3a0aejI2NnExgdrV25pGe2ntmt4vTyl52/VT+Oziaw6uk5O5/ZbnR6BDoI6NHsHqVfp34d7WIKBLIJTL/upnABxAWQnTfsHyQwwbV2fCAdtJJXI4DARUCfdvTp6MjY2QRGR2tXLumZrWd2qzi9/GXnb9WPo7MJrHp6zs5nthudHoEOAno0u0fp16lfR7uYAoFsAtOvuylcAHEBZOcN+wcJTHCtHR9IB63k1QggcBHQpx19OjoydjaB0dHalUt6ZuuZ3SpOL3/Z+Vv14+hsAquenrPzme1Gp0egg4Aeze5R+nXq19EupkAgm8D0624KF0BcANl5w/5BAhNca8cH0kEreTUCCFwE9GlHn46OjJ1NYHS0duWSntl6ZreK08tfdv5W/Tg6m8Cqp+fsfGa70ekR6CCgR7N7lH6d+nW0iykQyCYw/bqbwgUQF0B23rB/kMAE19rxgXTQSl6NAAIXAX3a0aejI2NnExgdrV25pGe2ntmt4vTyl52/VT+Oziaw6uk5O5/ZbnR6BDoI6NHsHqVfp34d7WIKBLIJTL/upnABxAWQnTfsHyQwwbV2fCAdtJJXI4DARUCfdvTp6MjY2QRGR2tXLumZrWd2qzi9/GXnb9WPo7MJrHp6zs5nthudHoEOAno0u0fp16lfR7uYAoFsAtOvuylcAHEBZOcN+wcJTHCtHR9IB63k1QggcBHQpx19OjoydjaB0dHalUt6ZuuZ3SpOL3/Z+Vv14+hsAquenrPzme1Gp0egg4Aeze5R+nXq19EupkAgm8D0624KF0BcANl5w/5BAhNca8cH0kEreTUCCFwE9GlHn46OjJ1NYHS0duWSntl6ZreK08tfdv5W/Tg6m8Cqp+fsfGa70ekR6CCgR7N7lH6d+nW0iykQyCYw/bqbwgUQF0B23rB/kMAE19rxgXTQSl6NAAIXAX3a0aejI2NnExgdrV25pGe2ntmt4vTyl52/VT+Oziaw6uk5O5/ZbnR6BDoI6NHsHqVfp34d7WIKBLIJTL/upnABxAWQnTfsHyQwwbV2fCAdtJJXI4DARUCfdvTp6MjY2QRGR2tXLumZrWd2qzi9/GXnb9WPo7MJrHp6zs5nthudHoEOAno0u0fp16lfR7uYAoFsAtOvuylcAHEBZOcN+wcJTHCtHR9IB63k1QggcBHQpx19OjoydjaB0dHalUt6ZuuZ3SpOL3/Z+Vv14+hsAquenrPzme1Gp0egg4Aeze5R+nXq19EupkAgm8D0624KF0BcANl5w/5BAhNca8cH0kEreTUCCFwE9GlHn46OjJ1NYHS0duWSntl6ZreK08tfdv5W/Tg6m8Cqp+fsfGa70ekR6CCgR7N7lH6d+nW0iykQyCYw/bqbwgUQF0B23rB/kMAE19rxgXTQSl6NAAIXAX3a0aejI2NnExgdrV25pGe2ntmt4vTyl52/VT+Oziaw6uk5O5/ZbnR6BDoI6NHsHqVfp34d7WIKBLIJTL/upnABxAWQnTfsHyQwwbV2fCAdtJJXI4DARUCfdvTp6MjY2QRGR2tXLumZrWd2qzi9/GXnb9WPo7MJrHp6zs5nthudHoEOAno0u0fp16lfR7uYAoFsAtOvuylcAHEBZOcN+wcJTHCtHR9IB63k1QggcBHQpx19OjoydjaB0dHalUt6ZuuZ3SpOL3/Z+Vv14+hsAquenrPzme1Gp0egg4Aeze5R+nXq19EupkAgm8D0624KF0BcANl5w/5BAhNca8cH0kEreTUCCFwE9GlHn46OjJ1NYHS0duWSntl6ZreK08tfdv5W/Tg6m8Cqp+fsfGa70ekR6CCgR7N7lH6d+nW0iykQyCYw/bqbwgUQF0B23rB/kMAE19rxgXTQSl6NAAIXAX3a0aejI2NnExgdrV25pGe2ntmt4vTyl52/VT+Oziaw6uk5O5/ZbnR6BDoI6NHsHqVfp34d7WIKBLIJTL/upnABxAWQnTfsHyQwwbV2fCAdtJJXI4DARUCfdvTp6MjY2QRGR2tXLumZrWd2qzi9/GXnb9WPo7MJrHp6zs5nthudHoEOAno0u0fp16lfR7uYAoFsAtOvuylcAHEBZOcN+wcJTHCtHR9IB63k1QggcBHQpx19OjoydjaB0dHalUt6ZuuZ3SpOL3/Z+Vv14+hsAquenrPzme1Gp0egg4Aeze5R+nXq19EupkAgm8D0624KF0BcANl5w/5BAhNca8cH0kEreTUCCFwE9GlHn46OjJ1NYHS0duWSntl6ZreK08tfdv5W/Tg6m8Cqp+fsfGa70ekR6CCgR7N7lH6d+nW0iykQyCYw/bqbwgUQF0B23rB/kMAE19rxgXTQSl6NAAIXAX3a0aejI2NnExgdrV25pGe2ntmt4vTyl52/VT+Oziaw6uk5O5/ZbnR6BDoI6NHsHqVfp34d7WIKBLIJTL/upnABxAWQnTfsHyQwwbV2fCAdtJJXI4DARUCfdvTp6MjY2QRGR2tXLumZrWd2qzi9/GXnb9WPo7MJrHp6zs5nthudHoEOAno0u0fp16lfR7uYAoFsAtOvuylcAHEBZOcN+wcJTHCtHR9IB63k1QggcBHQpx19OjoydjaB0dHalUt6ZuuZ3SpOL3/Z+Vv14+hsAquenrPzme1Gp0egg4Aeze5R+nXq19EupkAgm8D0624KF0BcANl5w/5BAhNca8cH0kEreTUCCFwE9GlHn46OjJ1NYHS0duWSntl6ZreK08tfdv5W/Tg6m8Cqp+fsfGa70ekR6CCgR7N7lH6d+nW0iykQyCYw/bqbwgUQF0B23rB/kMAE19rxgXTQSl6NAAIXAX3a0aejI2NnExgdrV25pGe2ntmt4vTyl52/VT+Oziaw6uk5O5/ZbnR6BDoI6NHsHqVfp34d7WIKBLIJTL/upnABxAWQnTfsHyQwwbV2fCAdtJJXI4DARUCfdvTp6MjY2QRGR2tXLumZrWd2qzi9/GXnb9WPo7MJrHp6zs5nthudHoEOAno0u0fp16lfR7uYAoFsAtOvuylcAHEBZOcN+wcJTHCtHR9IB63k1QggcBHQpx19OjoydjaB0dHalUt6ZuuZ3SpOL3/Z+Vv14+hsAquenrPzme1Gp0egg4Aeze5R+nXq19EupkAgm8D0624KF0BcANl5w/5BAhNca8cH0kEreTUCCFwE9GlHn46OjJ1NYHS0duWSntl6ZreK08tfdv5W/Tg6m8Cqp+fsfGa70ekR6CCgR7N7lH6d+nW0iykQyCYw/bqbwgUQF0B23rB/kMAE19rxgXTQSl6NAAIXAX3a0aejI2NnExgdrV25pGe2ntmt4vTyl52/VT+Oziaw6uk5O5/ZbnR6BDoI6NHsHqVfp34d7WIKBLIJTL/upnABxAWQnTfsHyQwwbV2fCAdtJJXI4DARUCfdvTp6MjY2QRGR2tXLumZrWd2qzi9/GXnb9WPo7MJrHp6zs5nthudHoEOAno0u0fp16lfR7uYAoFsAtOvuylcAHEBZOcN+wcJTHCtHR9IB63k1QggcBHQpx19OjoydjaB0dHalUt6ZuuZ3SpOL3/Z+Vv14+hsAquenrPzme1Gp0egg4Aeze5R+nXq19EupkAgm8D0624KF0BcANl5w/5BAhNca8cH0kEreTUCCFwE9GlHn46OjJ1NYHS0duWSntl6ZreK08tfdv5W/Tg6m8Cqp+fsfGa70ekR6CCgR7N7lH6d+nW0iykQyCYw/bqbwgUQF0B23rB/kMAE19rxgXTQSl6NAAIXAX3a0aejI2NnExgdrV25pGe2ntmt4vTyl52/VT+Oziaw6uk5O5/ZbnR6BDoI6NHsHqVfp34d7WIKBLIJTL/upnABxAWQnTfsHyQwwbV2fCAdtJJXI4DARUCfdvTp6MjY2QRGR2tXLumZrWd2qzi9/GXnb9WPo7MJrHp6zs5nthudHoEOAno0u0fp16lfR7uYAoFsAtOvuylcAHEBZOcN+wcJTHCtHR9IB63k1QggcBHQpx19OjoydjaB0dHalUt6ZuuZ3SpOL3/Z+Vv14+hsAquenrPzme1Gp0egg4Aeze5R+nXq19EupkAgm8D0624KF0BcANl5w/5BAhNca8cH0kEreTUCCFwE9GlHn46OjJ1NYHS0duWSntl6ZreK08tfdv5W/Tg6m8Cqp+fsfGa70ekR6CCgR7N7lH6d+nW0iykQyCYw/bqbwgUQF0B23rB/kMAE19rxgXTQSl6NAAIXAX3a0aejI2NnExgdrV25pGe2ntmt4vTyl52/VT+Oziaw6uk5O5/ZbnR6BDoI6NHsHqVfp34d7WIKBLIJTL/upnABxAWQnTfsHyQwwbV2fCAdtJJXI4DARUCfdvTp6MjY2QRGR2tXLumZrWd2qzi9/GXnb9WPo7MJrHp6zs5nthudHoEOAno0u0fp16lfR7uYAoFsAtOvuylcAHEBZOcN+wcJTHCtHR9IB63k1QggcBHQpx19OjoydjaB0dHalUt6ZuuZ3SpOL3/Z+Vv14+hsAquenrPzme1Gp0egg4Aeze5R+nXq19EupkAgm8D0624KF0BcANl5w/5BAhNca8cH0kEreTUCCFwE9GlHn46OjJ1NYHS0duWSntl6ZreK08tfdv5W/Tg6m8Cqp+fsfGa70ekR6CCgR7N7lH6d+nW0iykQyCYw/bqbwgUQF0B23rB/kMAE19rxgXTQSl6NAAIXAX3a0aejI2NnExgdrV25pGe2ntmt4vTyl52/VT+Oziaw6uk5O5/ZbnR6BDoI6NHsHqVfp34d7WIKBLIJTL/upnABxAWQnTfsHyQwwbV2fCAdtJJXI4DARUCfdvTp6MjY2QRGR2tXLumZrWd2qzi9/GXnb9WPo7MJrHp6zs5nthudHoEOAno0u0fp16lfR7uYAoFsAtOvuylcAHEBZOcN+wcJTHCtHR9IB63k1QggcBHQpx19OjoydjaB0dHalUt6ZuuZ3SpOL3/Z+Vv14+hsAquenrPzme1Gp0egg4Aeze5R+nXq19EupkAgm8D0624KF0BcANl5w/5BAhNca8cH0kEreTUCCFwE9GlHn46OjJ1NYHS0duWSntl6ZreK08tfdv5W/Tg6m8Cqp+fsfGa70ekR6CCgR7N7lH6d+nW0iykQyCYw/bqbwgUQF0B23rB/kMAE19rxgXTQSl6NAAIXAX3a0aejI2NnExgdrV25pGe2ntmt4vTyl52/VT+Oziaw6uk5O5/ZbnR6BDoI6NHsHqVfp34d7WIKBLIJTL/upnABxAWQnTfsHyQwwbV2fCAdtJJXI4DARUCfdvTp6MjY2QRGR2tXLumZrWd2qzi9/GXnb9WPo7MJrHp6zs5nthudHoEOAno0u0fp16lfR7uYAoFsAtOvuylcAHEBZOcN+wcJTHCtHR9IB63k1QggcBHQpx19OjoydjaB0dHalUt6ZuuZ3SpOL3/Z+Vv14+hsAquenrPzme1Gp0egg4Aeze5R+nXq19EupkAgm8D0624KF0BcANl5w/5BAhNca8cH0kEreTUCCFwE9GlHn46OjJ1NYHS0duWSntl6ZreK08tfdv5W/Tg6m8Cqp+fsfGa70ekR6CCgR7N7lH6d+nW0iykQyCYw/bqbwgUQF0B23rB/kMAE19rxgXTQSl6NAAIXAX3a0aejI2NnExgdrV25pGe2ntmt4vTyl52/VT+Oziaw6uk5O5/ZbnR6BDoI6NHsHqVfp34d7WIKBLIJTL/upnABxAWQnTfsHyQwwbV2fCAdtJJXI4DARUCfdvTp6MjY2QRGR2tXLumZrWd2qzi9/GXnb9WPo7MJrHp6zs5nthudHoEOAno0u0fp16lfR7uYAoFsAtOvuylcAHEBZOcN+wcJTHCtHR9IB63k1QggcBHQpx19OjoydjaB0dHalUt6ZuuZ3SpOL3/Z+Vv14+hsAquenrPzme1Gp0egg4Aeze5R+nXq19EupkAgm8D0624KF0BcANl5w/5BAhNca8cH0kEreTUCCFwE9GlHn46OjJ1NYHS0duWSntl6ZreK08tfdv5W/Tg6m8Cqp+fsfGa70ekR6CCgR7N7lH6d+nW0iykQyCYw/bqbwgUQF0B23rB/kMAE19rxgXTQSl6NAAIXAX3a0aejI2NnExgdrV25pGe2ntmt4vTyl52/VT+Oziaw6uk5O5/ZbnR6BDoI6NHsHqVfp34d7WIKBLIJTL/upnABxAWQnTfsHyQwwbV2fCAdtJJXI4DARUCfdvTp6MjY2QRGR2tXLumZrWd2qzi9/GXnb9WPo7MJrHp6zs5nthudHoEOAno0u0fp16lfR7uYAoFsAtOvuylcAHEBZOcN+wcJTHCtHR9IB63k1QggcBHQpx19OjoydjaB0dHalUt6ZuuZ3SpOL3/Z+Vv14+hsAquenrPzme1Gp0egg4Aeze5R+nXq19EupkAgm8D0624KF0BcANl5w/5BAhNca8cH0kEreTUCCFwE9GlHn46OjJ1NYHS0duWSntl6ZreK08tfdv5W/Tg6m8Cqp+fsfGa70ekR6CCgR7N7lH6d+nW0iykQyCYw/bqbwgUQF0B23rB/kMAE19rxgXTQSl6NAAIXAX3a0aejI2NnExgdrV25pGe2ntmt4vTyl52/VT+Oziaw6uk5O5/ZbnR6BDoI6NHsHqVfp34d7WIKBLIJTL/upnABxAWQnTfsHyQwwbV2fCAdtJJXI4DARUCfdvTp6MjY2QRGR2tXLumZrWd2qzi9/GXnb9WPo7MJrHp6zs5nthudHoEOAno0u0fp16lfR7uYAoFsAtOvuylcAHEBZOcN+wcJTHCtHR9IB63k1QggcBHQpx19OjoydjaB0dHalUt6ZuuZ3SpOL3/Z+Vv14+hsAquenrPzme1Gp0egg4Aeze5R+nXq19EupkAgm8D0624KF0BcANl5w/5BAhNca8cH0kEreTUCCFwE9GlHn46OjJ1NYHS0duWSntl6ZreK08tfdv5W/Tg6m8Cqp+fsfGa70ekR6CCgR7N7lH6d+nW0iykQyCYw/bqbwgUQF0B23rB/kMAE19rxgXTQSl6NAAIXAX3a0aejI2NnExgdrV25pGe2ntmt4vTyl52/VT+Oziaw6uk5O5/ZbnR6BDoI6NHsHqVfp34d7WIKBLIJTL/upnABxAWQnTfsHyQwwbV2fCAdtJJXI4DARUCfdvTp6MjY2QRGR2tXLumZrWd2qzi9/GXnb9WPo7MJrHp6zs5nthudHoEOAno0u0fp16lfR7uYAoFsAtOvuylcAHEBZOcN+wcJTHCtHR9IB63k1QggcBHQpx19OjoydjaB0dHalUt6ZuuZ3SpOL3/Z+Vv14+hsAquenrPzme1Gp0egg4Aeze5R+nXq19EupkAgm8D0624KF0BcANl5w/5BAhNca8cH0kEreTUCCFwE9GlHn46OjJ1NYHS0duWSntl6ZreK08tfdv5W/Tg6m8Cqp+fsfGa70ekR6CCgR7N7lH6d+nW0iykQyCYw/bqbwgUQF0B23rB/kMAE19rxgXTQSl6NAAIXAX3a0aejI2NnExgdrV25pGe2ntmt4vTyl52/VT+Oziaw6uk5O5/ZbnR6BGXFK5wAACAASURBVDoI6NHsHqVfp34d7WIKBLIJTL/upnABxAWQnTfsHyQwwbV2fCAdtJJXI4DARUCfdvTp6MjY2QRGR2tXLumZrWd2qzi9/GXnb9WPo7MJrHp6zs5nthudHoEOAno0u0fp16lfR7uYAoFsAtOvuylcAHEBZOcN+wcJTHCtHR9IB63k1QggcBHQpx19OjoydjaB0dHalUt6ZuuZ3SpOL3/Z+Vv14+hsAquenrPzme1Gp0egg4Aeze5R+nXq19EupkAgm8D0624KF0BcANl5w/5BAhNca8cH0kEreTUCCFwE9GlHn46OjJ1NYHS0duWSntl6ZreK08tfdv5W/Tg6m8Cqp+fsfGa70ekR6CCgR7N7lH6d+nW0iykQyCYw/bqbwgUQF0B23rB/kMAE19rxgXTQSl6NAAIXAX3a0aejI2NnExgdrV25pGe2ntmt4vTyl52/VT+Oziaw6uk5O5/ZbnR6BDoI6NHsHqVfp34d7WIKBLIJTL/upnABxAWQnTfsHyQwwbV2fCAdtJJXI4DARUCfdvTp6MjY2QRGR2tXLumZrWd2qzi9/GXnb9WPo7MJrHp6zs5nthudHoEOAno0u0fp16lfR7uYAoFsAtOvuylcAHEBZOcN+wcJTHCtHR9IB63k1QggcBHQpx19OjoydjaB0dHalUt6ZuuZ3SpOL3/Z+Vv14+hsAquenrPzme1Gp0egg4Aeze5R+nXq19EupkAgm8D0624KF0BcANl5w/5BAhNca8cH0kEreTUCCFwE9GlHn46OjJ1NYHS0duWSntl6ZreK08tfdv5W/Tg6m8Cqp+fsfGa70ekR6CCgR7N7lH6d+nW0iykQyCYw/bqbwgUQF0B23rB/kMAE19rxgXTQSl6NAAIXAX3a0aejI2NnExgdrV25pGe2ntmt4vTyl52/VT+Oziaw6uk5O5/ZbnR6BDoI6NHsHqVfp34d7WIKBLIJTL/upnABxAWQnTfsHyQwwbV2fCAdtJJXI4DARUCfdvTp6MjY2QRGR2tXLumZrWd2qzi9/GXnb9WPo7MJrHp6zs5nthudHoEOAno0u0fp16lfR7uYAoFsAtOvuylcAHEBZOcN+wcJTHCtHR9IB63k1QggcBHQpx19OjoydjaB0dHalUt6ZuuZ3SpOL3/Z+Vv14+hsAquenrPzme1Gp0egg4Aeze5R+nXq19EupkAgm8D0624KF0BcANl5w/5BAhNca8cH0kEreTUCCFwE9GlHn46OjJ1NYHS0duWSntl6ZreK08tfdv5W/Tg6m8Cqp+fsfGa70ekR6CCgR7N7lH6d+nW0iykQyCYw/bqbwgUQF0B23rB/kMAE19rxgXTQSl6NAAIXAX3a0aejI2NnExgdrV25pGe2ntmt4vTyl52/VT+Oziaw6uk5O5/ZbnR6BDoI6NHsHqVfp34d7WIKBLIJTL/upnABxAWQnTfsHyQwwbV2fCAdtJJXI4DARUCfdvTp6MjY2QRGR2tXLumZrWd2qzi9/GXnb9WPo7MJrHp6zs5nthudHoEOAno0u0fp16lfR7uYAoFsAtOvuylcAHEBZOcN+wcJTHCtHR9IB63k1QggcBHQpx19OjoydjaB0dHalUt6ZuuZ3SpOL3/Z+Vv14+hsAquenrPzme1Gp0egg4Aeze5R+nXq19EupkAgm8D0624KF0BcANl5w/5BAhNca8cH0kEreTUCCFwE9GlHn46OjJ1NYHS0duWSntl6ZreK08tfdv5W/Tg6m8Cqp+fsfGa70ekR6CCgR7N7lH6d+nW0iykQyCYw/bqbwgUQF0B23rB/kMAE19rxgXTQSl6NAAIXAX3a0aejI2NnExgdrV25pGe2ntmt4vTyl52/VT+Oziaw6uk5O5/ZbnR6BDoI6NHsHqVfp34d7WIKBLIJTL/upnABxAWQnTfsHyQwwbV2fCAdtJJXI4DARUCfdvTp6MjY2QRGR2tXLumZrWd2qzi9/GXnb9WPo7MJrHp6zs5nthudHoEOAno0u0fp16lfR7uYAoFsAtOvuylcAHEBZOcN+wcJTHCtHR9IB63k1QggcBHQpx19OjoydjaB0dHalUt6ZuuZ3SpOL3/Z+Vv14+hsAquenrPzme1Gp0egg4Aeze5R+nXq19EupkAgm8D0624KF0BcANl5w/5BAhNca8cH0kEreTUCCFwE9GlHn46OjJ1NYHS0duWSntl6ZreK08tfdv5W/Tg6m8Cqp+fsfGa70ekR6CCgR7N7lH6d+nW0iykQyCYw/bqbwgUQF0B23rB/kMAE19rxgXTQSl6NAAIXAX3a0aejI2NnExgdrV25pGe2ntmt4vTyl52/VT+Oziaw6uk5O5/ZbnR6BDoI6NHsHqVfp34d7WIKBLIJTL/upnABxAWQnTfsHyQwwbV2fCAdtJJXI4DARUCfdvTp6MjY2QRGR2tXLumZrWd2qzi9/GXnb9WPo7MJrHp6zs5nthudHoEOAno0u0fp16lfR7uYAoFsAtOvuylcAHEBZOcN+wcJTHCtHR9IB63k1QggcBHQpx19OjoydjaB0dHalUt6ZuuZ3SpOL3/Z+Vv14+hsAquenrPzme1Gp0egg4Aeze5R+nXq19EupkAgm8D0624KF0BcANl5w/5BAhNca8cH0kEreTUCCFwE9GlHn46OjJ1NYHS0duWSntl6ZreK08tfdv5W/Tg6m8Cqp+fsfGa70ekR6CCgR7N7lH6d+nW0iykQyCYw/bqbwgUQF0B23rB/kMAE19rxgXTQSl6NAAIXAX3a0aejI2NnExgdrV25pGe2ntmt4vTyl52/VT+Oziaw6uk5O5/ZbnR6BDoI6NHsHqVfp34d7WIKBLIJTL/upnABxAWQnTfsHyQwwbV2fCAdtJJXI4DARUCfdvTp6MjY2QRGR2tXLumZrWd2qzi9/GXnb9WPo7MJrHp6zs5nthudHoEOAno0u0fp16lfR7uYAoFsAtOvuylcAHEBZOcN+wcJTHCtHR9IB63k1QggcBHQpx19OjoydjaB0dHalUt6ZuuZ3SpOL3/Z+Vv14+hsAquenrPzme1Gp0egg4Aeze5R+nXq19EupkAgm8D0624KF0BcANl5w/5BAhNca8cH0kEreTUCCFwE9GlHn46OjJ1NYHS0duWSntl6ZreK08tfdv5W/Tg6m8Cqp+fsfGa70ekR6CCgR7N7lH6d+nW0iykQyCYw/bqbwgUQF0B23rB/kMAE19rxgXTQSl6NAAIXAX3a0aejI2NnExgdrV25pGe2ntmt4vTyl52/VT+Oziaw6uk5O5/ZbnR6BDoI6NHsHqVfp34d7WIKBLIJTL/upnABxAWQnTfsHyQwwbV2fCAdtJJXI4DARUCfdvTp6MjY2QRGR2tXLumZrWd2qzi9/GXnb9WPo7MJrHp6zs5nthudHoEOAno0u0fp16lfR7uYAoFsAtOvuylcAHEBZOcN+wcJTHCtHR9IB63k1QggcBHQpx19OjoydjaB0dHalUt6ZuuZ3SpOL3/Z+Vv14+hsAquenrPzme1Gp0egg4Aeze5R+nXq19EupkAgm8D0624KF0BcANl5w/5BAhNca8cH0kEreTUCCFwE9GlHn46OjJ1NYHS0duWSntl6ZreK08tfdv5W/Tg6m8Cqp+fsfGa70ekR6CCgR7N7lH6d+nW0iykQyCYw/bqbwgUQF0B23rB/kMAE19rxgXTQSl6NAAIXAX3a0aejI2NnExgdrV25pGe2ntmt4vTyl52/VT+Oziaw6uk5O5/ZbnR6BDoI6NHsHqVfp34d7WIKBLIJTL/upnABxAWQnTfsHyQwwbV2fCAdtJJXI4DARUCfdvTp6MjY2QRGR2tXLumZrWd2qzi9/GXnb9WPo7MJrHp6zs5nthudHoEOAno0u0fp16lfR7uYAoFsAtOvuylcAHEBZOcN+wcJTHCtHR9IB63k1QggcBHQpx19OjoydjaB0dHalUt6ZuuZ3SpOL3/Z+Vv14+hsAquenrPzme1Gp0egg4Aeze5R+nXq19EupkAgm8D0624KF0BcANl5w/5BAhNca8cH0kEreTUCCFwE9GlHn46OjJ1NYHS0duWSntl6ZreK08tfdv5W/Tg6m8Cqp+fsfGa70ekR6CCgR7N7lH6d+nW0iykQyCYw/bqbwgUQF0B23rB/kMAE19rxgXTQSl6NAAIXAX3a0aejI2NnExgdrV25pGe2ntmt4vTyl52/VT+Oziaw6uk5O5/ZbnR6BDoI6NHsHqVfp34d7WIKBLIJTL/upnABxAWQnTfsHyQwwbV2fCAdtJJXI4DARUCfdvTp6MjY2QRGR2tXLumZrWd2qzi9/GXnb9WPo7MJrHp6zs5nthudHoEOAno0u0fp16lfR7uYAoFsAtOvuylcAHEBZOcN+wcJTHCtHR9IB63k1QggcBHQpx19OjoydjaB0dHalUt6ZuuZ3SpOL3/Z+Vv14+hsAquenrPzme1Gp0egg4Aeze5R+nXq19EupkAgm8D0624KF0BcANl5w/5BAhNca8cH0kEreTUCCFwE9GlHn46OjJ1NYHS0duWSntl6ZreK08tfdv5W/Tg6m8Cqp+fsfGa70ekR6CCgR7N7lH6d+nW0iykQyCYw/bqbwgUQF0B23rB/kMAE19rxgXTQSl6NAAIXAX3a0aejI2NnExgdrV25pGe2ntmt4vTyl52/VT+Oziaw6uk5O5/ZbnR6BDoI6NHsHqVfp34d7WIKBLIJTL/upnABxAWQnTfsHyQwwbV2fCAdtJJXI4DARUCfdvTp6MjY2QRGR2tXLumZrWd2qzi9/GXnb9WPo7MJrHp6zs5nthudHoEOAno0u0fp16lfR7uYAoFsAtOvuylcAHEBZOcN+wcJTHCtHR9IB63k1QggcBHQpx19OjoydjaB0dHalUt6ZuuZ3SpOL3/Z+Vv14+hsAquenrPzme1Gp0egg4Aeze5R+nXq19EupkAgm8D0624KF0BcANl5w/5BAhNca8cH0kEreTUCCFwE9GlHn46OjJ1NYHS0duWSntl6ZreK08tfdv5W/Tg6m8Cqp+fsfGa70ekR6CCgR7N7lH6d+nW0iykQyCYw/bqbwgUQF0B23rB/kMAE19rxgXTQSl6NAAIXAX3a0aejI2NnExgdrV25pGe2ntmt4vTyl52/VT+Oziaw6uk5O5/ZbnR6BDoI6NHsHqVfp34d7WIKBLIJTL/upnABxAWQnTfsHyQwwbV2fCAdtJJXI4DARUCfdvTp6MjY2QRGR2tXLumZrWd2qzi9/GXnb9WPo7MJrHp6zs5nthudHoEOAno0u0fp16lfR7uYAoFsAtOvuylcAHEBZOcN+wcJTHCtHR9IB63k1QggcBHQpx19OjoydjaB0dHalUt6ZuuZ3SpOL3/Z+Vv14+hsAquenrPzme1Gp0egg4Aeze5R+nXq19EupkAgm8D0624KF0BcANl5w/5BAhNca8cH0kEreTUCCFwE9GlHn46OjJ1NYHS0duWSntl6ZreK08tfdv5W/Tg6m8Cqp+fsfGa70ekR6CCgR7N7lH6d+nW0iykQyCYw/bqbwgUQF0B23rB/kMAE19rxgXTQSl6NAAIXAX3a0aejI2NnExgdrV25pGe2ntmt4vTyl52/VT+Oziaw6uk5O5/ZbnR6BDoI6NHsHqVfp34d7WIKBLIJTL/upnABxAWQnTfsHyQwwbV2fCAdtJJXI4DARUCfdvTp6MjY2QRGR2tXLumZrWd2qzi9/GXnb9WPo7MJrHp6zs5nthudHoEOAno0u0fp16lfR7uYAoFsAtOvuylcAHEBZOcN+wcJTHCtHR9IB63k1QggcBHQpx19OjoydjaB0dHalUt6ZuuZ3SpOL3/Z+Vv14+hsAquenrPzme1Gp0egg4Aeze5R+nXq19EupkAgm8D0624KF0BcANl5w/5BAhNca8cH0kEreTUCCFwE9GlHn46OjJ1NYHS0duWSntl6ZreK08tfdv5W/Tg6m8Cqp+fsfGa70ekR6CCgR7N7lH6d+nW0iykQyCYw/bqbwgUQF0B23rB/kMAE19rxgXTQSl6NAAIXAX3a0aejI2NnExgdrV25pGe2ntmt4vTyl52/VT+Oziaw6uk5O5/ZbnR6BDoI6NHsHqVfp34d7WIKBLIJTL/upnABxAWQnTfsHyQwwbV2fCAdtJJXI4DARUCfdvTp6MjY2QRGR2tXLumZrWd2qzi9/GXnb9WPo7MJrHp6zs5nthudHoEOAno0u0fp16lfR7uYAoFsAtOvuylcAHEBZOcN+wcJTHCtHR9IB63k1QggcBHQpx19OjoydjaB0dHalUt6ZuuZ3SpOL3/Z+Vv14+hsAquenrPzme1Gp0egg4Aeze5R+nXq19EupkAgm8D0624KF0BcANl5w/5BAhNca8cH0v/X3r3jVhLDQBTd/6rHSTMhwGAiuconElqA0dKtjzsg8B5ayasRQOAjoE87+nR0ZOxsAqOjtSuX9MzWM7tVnF7+svO39ePobAJbT8/Z+cx2o9Mj0EFAj2b3KP069etoF7dAIJvA9Ot1CwMgBkAub9h/SGCCa+34QHpoJa9GAIGPgD7t6NPRkbGzCYyO1q5c0jNbz+xWcXr5y87f1o+jswlsPT1n5zPbjU6PQAcBPZrdo/Tr1K+jXdwCgWwC06/XLQyAGAC5vGH/IYEJrrXjA+mhlbwaAQQ+Avq0o09HR8bOJjA6WrtySc9sPbNbxenlLzt/Wz+Oziaw9fScnc9sNzo9Ah0E9Gh2j9KvU7+OdnELBLIJTL9etzAAYgDk8ob9hwQmuNaOD6SHVvJqBBD4COjTjj4dHRk7m8DoaO3KJT2z9cxuFaeXv+z8bf04OpvA1tNzdj6z3ej0CHQQ0KPZPUq/Tv062sUtEMgmMP163cIAiAGQyxv2HxKY4Fo7PpAeWsmrEUDgI6BPO/p0dGTsbAKjo7Url/TM1jO7VZxe/rLzt/Xj6GwCW0/P2fnMdqPTI9BBQI9m9yj9OvXraBe3QCCbwPTrdQsDIAZALm/Yf0hggmvt+EB6aCWvRgCBj4A+7ejT0ZGxswmMjtauXNIzW8/sVnF6+cvO39aPo7MJbD09Z+cz241Oj0AHAT2a3aP069Svo13cAoFsAtOv1y0MgBgAubxh/yGBCa614wPpoZW8GgEEPgL6tKNPR0fGziYwOlq7cknPbD2zW8Xp5S87f1s/js4msPX0nJ3PbDc6PQIdBPRodo/Sr1O/jnZxCwSyCUy/XrcwAGIA5PKG/YcEJrjWjg+kh1byagQQ+Ajo044+HR0ZO5vA6GjtyiU9s/XMbhWnl7/s/G39ODqbwNbTc3Y+s93o9Ah0ENCj2T1Kv079OtrFLRDIJjD9et3CAIgBkMsb9h8SmOBaOz6QHlrJqxFA4COgTzv6dHRk7GwCo6O1K5f0zNYzu1WcXv6y87f14+hsAltPz9n5zHaj0yPQQUCPZvco/Tr162gXt0Agm8D063ULAyAGQC5v2H9IYIJr7fhAemglr0YAgY+APu3o09GRsbMJjI7WrlzSM1vP7FZxevnLzt/Wj6OzCWw9PWfnM9uNTo9ABwE9mt2j9OvUr6Nd3AKBbALTr9ctDIAYALm8Yf8hgQmuteMD6aGVvBoBBD4C+rSjT0dHxs4mMDpau3JJz2w9s1vF6eUvO39bP47OJrD19Jydz2w3Oj0CHQT0aHaP0q9Tv452cQsEsglMv163MABiAOTyhv2HBCa41o4PpIdW8moEEPgI6NOOPh0dGTubwOho7colPbP1zG4Vp5e/7Pxt/Tg6m8DW03N2PrPd6PQIdBDQo9k9Sr9O/TraxS0QyCYw/XrdwgCIAZDLG/YfEpjgWjs+kB5ayasRQOAjoE87+nR0ZOxsAqOjtSuX9MzWM7tVnF7+svO39ePobAJbT8/Z+cx2o9Mj0EFAj2b3KP069etoF7dAIJvA9Ot1CwMgBkAub9h/SGCCa+34QHpoJa9GAIGPgD7t6NPRkbGzCYyO1q5c0jNbz+xWcXr5y87f1o+jswlsPT1n5zPbjU6PQAcBPZrdo/Tr1K+jXdwCgWwC06/XLQyAGAC5vGH/IYEJrrXjA+mhlbwaAQQ+Avq0o09HR8bOJjA6WrtySc9sPbNbxenlLzt/Wz+Oziaw9fScnc9sNzo9Ah0E9Gh2j9KvU7+OdnELBLIJTL9etzAAYgDk8ob9hwQmuNaOD6SHVvJqBBD4COjTjj4dHRk7m8DoaO3KJT2z9cxuFaeXv+z8bf04OpvA1tNzdj6z3ej0CHQQ0KPZPUq/Tv062sUtEMgmMP163cIAiAGQyxv2HxKY4Fo7PpAeWsmrEUDgI6BPO/p0dGTsbAKjo7Url/TM1jO7VZxe/rLzt/Xj6GwCW0/P2fnMdqPTI9BBQI9m9yj9OvXraBe3QCCbwPTrdQsDIAZALm/Yf0hggmvt+EB6aCWvRgCBj4A+7ejT0ZGxswmMjtauXNIzW8/sVnF6+cvO39aPo7MJbD09Z+cz241Oj0AHAT2a3aP069Svo13cAoFsAtOv1y0MgBgAubxh/yGBCa614wPpoZW8GgEEPgL6tKNPR0fGziYwOlq7cknPbD2zW8Xp5S87f1s/js4msPX0nJ3PbDc6PQIdBPRodo/Sr1O/jnZxCwSyCUy/XrcwAGIA5PKG/YcEJrjWjg+kh1byagQQ+Ajo044+HR0ZO5vA6GjtyiU9s/XMbhWnl7/s/G39ODqbwNbTc3Y+s93o9Ah0ENCj2T1Kv079OtrFLRDIJjD9et3CAIgBkMsb9h8SmOBaOz6QHlrJqxFA4COgTzv6dHRk7GwCo6O1K5f0zNYzu1WcXv6y87f14+hsAltPz9n5zHaj0yPQQUCPZvco/Tr162gXt0Agm8D063ULAyAGQC5v2H9IYIJr7fhAemglr0YAgY+APu3o09GRsbMJjI7WrlzSM1vP7FZxevnLzt/Wj6OzCWw9PWfnM9uNTo9ABwE9mt2j9OvUr6Nd3AKBbALTr9ctDIAYALm8Yf8hgQmuteMD6aGVvBoBBD4C+rSjT0dHxs4mMDpau3JJz2w9s1vF6eUvO39bP47OJrD19Jydz2w3Oj0CHQT0aHaP0q9Tv452cQsEsglMv163MABiAOTyhv2HBCa41o4PpIdW8moEEPgI6NOOPh0dGTubwOho7colPbP1zG4Vp5e/7Pxt/Tg6m8DW03N2PrPd6PQIdBDQo9k9Sr9O/TraxS0QyCYw/XrdwgCIAZDLG/YfEpjgWjs+kB5ayasRQOAjoE87+nR0ZOxsAqOjtSuX9MzWM7tVnF7+svO39ePobAJbT8/Z+cx2o9Mj0EFAj2b3KP069etoF7dAIJvA9Ot1CwMgBkAub9h/SGCCa+34QHpoJa9GAIGPgD7t6NPRkbGzCYyO1q5c0jNbz+xWcXr5y87f1o+jswlsPT1n5zPbjU6PQAcBPZrdo/Tr1K+jXdwCgWwC06/XLQyAGAC5vGH/IYEJrrXjA+mhlbwaAQQ+Avq0o09HR8bOJjA6WrtySc9sPbNbxenlLzt/Wz+Oziaw9fScnc9sNzo9Ah0E9Gh2j9KvU7+OdnELBLIJTL9etzAAYgDk8ob9hwQmuNaOD6SHVvJqBBD4COjTjj4dHRk7m8DoaO3KJT2z9cxuFaeXv+z8bf04OpvA1tNzdj6z3ej0CHQQ0KPZPUq/Tv062sUtEMgmMP163cIAiAGQyxv2HxKY4Fo7PpAeWsmrEUDgI6BPO/p0dGTsbAKjo7Url/TM1jO7VZxe/rLzt/Xj6GwCW0/P2fnMdqPTI9BBQI9m9yj9OvXraBe3QCCbwPTrdQsDIAZALm/Yf0hggmvt+EB6aCWvRgCBj4A+7ejT0ZGxswmMjtauXNIzW8/sVnF6+cvO39aPo7MJbD09Z+cz241Oj0AHAT2a3aP069Svo13cAoFsAtOv1y0MgBgAubxh/yGBCa614wPpoZW8GgEEPgL6tKNPR0fGziYwOlq7cknPbD2zW8Xp5S87f1s/js4msPX0nJ3PbDc6PQIdBPRodo/Sr1O/jnZxCwSyCUy/XrcwAGIA5PKG/YcEJrjWjg+kh1byagQQ+Ajo044+HR0ZO5vA6GjtyiU9s/XMbhWnl7/s/G39ODqbwNbTc3Y+s93o9Ah0ENCj2T1Kv079OtrFLRDIJjD9et3CAIgBkMsb9h8SmOBaOz6QHlrJqxFA4COgTzv6dHRk7GwCo6O1K5f0zNYzu1WcXv6y87f14+hsAltPz9n5zHaj0yPQQUCPZvco/Tr162gXt0Agm8D063ULAyAGQC5v2H9IYIJr7fhAemglr0YAgY+APu3o09GRsbMJjI7WrlzSM1vP7FZxevnLzt/Wj6OzCWw9PWfnM9uNTo9ABwE9mt2j9OvUr6Nd3AKBbALTr9ctDIAYALm8Yf8hgQmuteMD6aGVvBoBBD4C+rSjT0dHxs4mMDpau3JJz2w9s1vF6eUvO39bP47OJrD19Jydz2w3Oj0CHQT0aHaP0q9Tv452cQsEsglMv163MABiAOTyhv2HBCa41o4PpIdW8moEEPgI6NOOPh0dGTubwOho7colPbP1zG4Vp5e/7Pxt/Tg6m8DW03N2PrPd6PQIdBDQo9k9Sr9O/TraxS0QyCYw/XrdwgCIAZDLG/YfEpjgWjs+kB5ayasRQOAjoE87+nR0ZOxsAqOjtSuX9MzWM7tVnF7+svO39ePobAJbT8/Z+cx2o9Mj0EFAj2b3KP069etoF7dAIJvA9Ot1CwMgBkAub9h/SGCCa+34QHpoJa9GAIGPgD7t6NPRkbGzCYyO1q5c0jNbz+xWcXr5y87f1o+jswlsPT1n5zPbjU6PQAcBPZrdo/Tr1K+jXdwCgWwC06/XLQyAGAC5vGH/IYEJrrXjA+mhlbwaAQQ+Avq0o09HR8bOJjA6WrtySc9sPbNbxenlLzt/Wz+Oziaw9fScnc9sNzo9Ah0E9Gh2j9KvU7+OdnELBLIJ8yatBAAAFFVJREFUTL9etzAAYgDk8ob9hwQmuNaOD6SHVvJqBBD4COjTjj4dHRk7m8DoaO3KJT2z9cxuFaeXv+z8bf04OpvA1tNzdj6z3ej0CHQQ0KPZPUq/Tv062sUtEMgmMP163cIAiAGQyxv2HxKY4Fo7PpAeWsmrEUDgI6BPO/p0dGTsbAKjo7Url/TM1jO7VZxe/rLzt/Xj6GwCW0/P2fnMdqPTI9BBQI9m9yj9OvXraBe3QCCbwPTrdQsDIAZALm/Yf0hggmvt+EB6aCWvRgCBj4A+7ejT0ZGxswmMjtauXNIzW8/sVnF6+cvO39aPo7MJbD09Z+cz241Oj0AHAT2a3aP069Svo13cAoFsAtOv1y0MgBgAubxh/yGBCa614wPpoZW8GgEEPgL6tKNPR0fGziYwOlq7cknPbD2zW8Xp5S87f1s/js4msPX0nJ3PbDc6PQIdBPRodo/Sr1O/jnZxCwSyCUy/XrcwAGIA5PKG/YcEJrjWjg+kh1byagQQ+Ajo044+HR0ZO5vA6GjtyiU9s/XMbhWnl7/s/G39ODqbwNbTc3Y+s93o9Ah0ENCj2T1Kv079OtrFLRDIJjD9et3CAIgBkMsb9h8SmOBaOz6QHlrJqxFA4COgTzv6dHRk7GwCo6O1K5f0zNYzu1WcXv6y87f14+hsAltPz9n5zHaj0yPQQUCPZvco/Tr162gXt0Agm8D063ULAyAGQC5v2H9IYIJr7fhAemglr0YAgY+APu3o09GRsbMJjI7WrlzSM1vP7FZxevnLzt/Wj6OzCWw9PWfnM9uNTo9ABwE9mt2j9OvUr6Nd3AKBbALTr9ctDIAYALm8Yf8hgQmuteMD6aGVvBoBBD4C+rSjT0dHxs4mMDpau3JJz2w9s1vF6eUvO39bP47OJrD19Jydz2w3Oj0CHQT0aHaP0q9Tv452cQsEsglMv163MABiAOTyhv2HBCa41o4PpIdW8moEEPgI6NOOPh0dGTubwOho7colPbP1zG4Vp5e/7Pxt/Tg6m8DW03N2PrPd6PQIdBDQo9k9Sr9O/TraxS0QyCYw/XrdwgCIAZDLG/YfEpjgWjs+kB5ayasRQOAjoE87+nR0ZOxsAqOjtSuX9MzWM7tVnF7+svO39ePobAJbT8/Z+cx2o9Mj0EFAj2b3KP069etoF7dAIJvA9Ot1CwMgBkAub9h/SGCCa+34QHpoJa9GAIGPgD7t6NPRkbGzCYyO1q5c0jNbz+xWcXr5y87f1o+jswlsPT1n5zPbjU6PQAcBPZrdo/Tr1K+jXdwCgWwC06/XLQyAGAC5vGH/IYEJrrXjA+mhlbwaAQQ+Avq0o09HR8bOJjA6WrtySc9sPbNbxenlLzt/Wz+Oziaw9fScnc9sNzo9Ah0E9Gh2j9KvU7+OdnELBLIJTL9etzAAYgDk8ob9hwQmuNaOD6SHVvJqBBD4COjTjj4dHRk7m8DoaO3KJT2z9cxuFaeXv+z8bf04OpvA1tNzdj6z3ej0CHQQ0KPZPUq/Tv062sUtEMgmMP163cIAiAGQyxv2HxKY4Fo7PpAeWsmrEUDgI6BPO/p0dGTsbAKjo7Url/TM1jO7VZxe/rLzt/Xj6GwCW0/P2fnMdqPTI9BBQI9m9yj9OvXraBe3QCCbwPTrdQsDIAZALm/Yf0hggmvt+EB6aCWvRgCBj4A+7ejT0ZGxswmMjtauXNIzW8/sVnF6+cvO39aPo7MJbD09Z+cz241Oj0AHAT2a3aP069Svo13cAoFsAtOv1y0MgBgAubxh/yGBCa614wPpoZW8GgEEPgL6tKNPR0fGziYwOlq7cknPbD2zW8Xp5S87f1s/js4msPX0nJ3PbDc6PQIdBPRodo/Sr1O/jnZxCwSyCUy/XrcwAGIA5PKG/YcEJrjWjg+kh1byagQQ+Ajo044+HR0ZO5vA6GjtyiU9s/XMbhWnl7/s/G39ODqbwNbTc3Y+s93o9Ah0ENCj2T1Kv079OtrFLRDIJjD9et3CAIgBkMsb9h8SmOBaOz6QHlrJqxFA4COgTzv6dHRk7GwCo6O1K5f0zNYzu1WcXv6y87f14+hsAltPz9n5zHaj0yPQQUCPZvco/Tr162gXt0Agm8D063ULAyAGQC5v2H9IYIJr7fhAemglr0YAgY+APu3o09GRsbMJjI7WrlzSM1vP7FZxevnLzt/Wj6OzCWw9PWfnM9uNTo9ABwE9mt2j9OvUr6Nd3AKBbALTr9ctDIAYALm8Yf8hgQmuteMD6aGVvBoBBD4C+rSjT0dHxs4mMDpau3JJz2w9s1vF6eUvO39bP47OJrD19Jydz2w3Oj0CHQT0aHaP0q9Tv452cQsEsglMv163MABiAOTyhv2HBCa41o4PpIdW8moEEPgI6NOOPh0dGTubwOho7colPbP1zG4Vp5e/7Pxt/Tg6m8DW03N2PrPd6PQIdBDQo9k9Sr9O/TraxS0QyCYw/XrdwgCIAZDLG/YfEpjgWjs+kB5ayasRQOAjoE87+nR0ZOxsAqOjtSuX9MzWM7tVnF7+svO39ePobAJbT8/Z+cx2o9Mj0EFAj2b3KP069etoF7dAIJvA9Ot1CwMgBkAub9h/SGCCa+34QHpoJa9GAIGPgD7t6NPRkbGzCYyO1q5c0jNbz+xWcXr5y87f1o+jswlsPT1n5zPbjU6PQAcBPZrdo/Tr1K+jXdwCgWwC06/XLQyAGAC5vGH/IYEJrrXjA+mhlbwaAQQ+Avq0o09HR8bOJjA6WrtySc9sPbNbxenlLzt/Wz+Oziaw9fScnc9sNzo9Ah0E9Gh2j9KvU7+OdnELBLIJTL9etzAAYgDk8ob9hwQmuNaOD6SHVvJqBBD4COjTjj4dHRk7m8DoaO3KJT2z9cxuFaeXv+z8bf04OpvA1tNzdj6z3ej0CHQQ0KPZPUq/Tv062sUtEMgmMP163cIAiAGQyxv2HxKY4Fo7PpAeWsmrEUDgI6BPO/p0dGTsbAKjo7Url/TM1jO7VZxe/rLzt/Xj6GwCW0/P2fnMdqPTI9BBQI9m9yj9OvXraBe3QCCbwPTrdQsDIAZALm/Yf0hggmvt+EB6aCWvRgCBj4A+7ejT0ZGxswmMjtauXNIzW8/sVnF6+cvO39aPo7MJbD09Z+cz241Oj0AHAT2a3aP069Svo13cAoFsAtOv1y0MgBgAubxh/yGBCa614wPpoZW8GgEEPgL6tKNPR0fGziYwOlq7cknPbD2zW8Xp5S87f1s/js4msPX0nJ3PbDc6PQIdBPRodo/Sr1O/jnZxCwSyCUy/XrcwAGIA5PKG/YcEJrjWjg+kh1byagQQ+Ajo044+HR0ZO5vA6GjtyiU9s/XMbhWnl7/s/G39ODqbwNbTc3Y+s93o9Ah0ENCj2T1Kv079OtrFLRDIJjD9et3CAIgBkMsb9h8SmOBaOz6QHlrJqxFA4COgTzv6dHRk7GwCo6O1K5f0zNYzu1WcXv6y87f14+hsAltPz9n5zHaj0yPQQUCPZvco/Tr162gXt0Agm8D063ULAyAGQC5v2H9IYIJr7fhAemglr0YAgY+APu3o09GRsbMJjI7WrlzSM1vP7FZxevnLzt/Wj6OzCWw9PWfnM9uNTo9ABwE9mt2j9OvUr6Nd3AKBbALTr9ctDIAYALm8Yf8hgQmuteMD6aGVvBoBBD4C+rSjT0dHxs4mMDpau3JJz2w9s1vF6eUvO39bP47OJrD19Jydz2w3Oj0CHQT0aHaP0q9Tv452cQsEsglMv163MABiAOTyhv2HBCa41o4PpIdW8moEEPgI6NOOPh0dGTubwOho7colPbP1zG4Vp5e/7Pxt/Tg6m8DW03N2PrPd6PQIdBDQo9k9Sr9O/TraxS0QyCYw/XrdwgCIAZDLG/YfEpjgWjs+kB5ayasRQOAjoE87+nR0ZOxsAqOjtSuX9MzWM7tVnF7+svO39ePobAJbT8/Z+cx2o9Mj0EFAj2b3KP069etoF7dAIJvA9Ot1CwMgBkAub9h/SGCCa+34QHpoJa9GAIGPgD7t6NPRkbGzCYyO1q5c0jNbz+xWcXr5y87f1o+jswlsPT1n5zPbjU6PQAcBPZrdo/Tr1K+jXdwCgWwC06/XLQyAGAC5vGH/IYEJrrXjA+mhlbwaAQQ+Avq0o09HR8bOJjA6WrtySc9sPbNbxenlLzt/Wz+Oziaw9fScnc9sNzo9Ah0E9Gh2j9KvU7+OdnELBLIJTL9etzAAYgDk8ob9hwQmuNaOD6SHVvJqBBD4COjTjj4dHRk7m8DoaO3KJT2z9cxuFaeXv+z8bf04OpvA1tNzdj6z3ej0CHQQ0KPZPUq/Tv062sUtEMgmMP163cIAiAGQyxv2HxKY4Fo7PpAeWsmrEUDgI6BPO/p0dGTsbAKjo7Url/TM1jO7VZxe/rLzt/Xj6GwCW0/P2fnMdqPTI9BBQI9m9yj9OvXraBe3QCCbwPTrdQsDIAZALm/Yf0hggmvt+EB6aCWvRgCBj4A+7ejT0ZGxswmMjtauXNIzW8/sVnF6+cvO39aPo7MJbD09Z+cz241Oj0AHAT2a3aP069Svo13cAoFsAtOv1y0MgBgAubxh/yGBCa614wPpoZW8GgEEPgL6tKNPR0fGziYwOlq7cknPbD2zW8Xp5S87f1s/js4msPX0nJ3PbDc6PQIdBPRodo/Sr1O/jnZxCwSyCUy/XrcwAGIA5PKG/YcEJrjWjg+kh1byagQQ+Ajo044+HR0ZO5vA6GjtyiU9s/XMbhWnl7/s/G39ODqbwNbTc3Y+s93o9Ah0ENCj2T1Kv079OtrFLRDIJjD9et3CAIgBkMsb9h8SmOBaOz6QHlrJqxFA4COgTzv6dHRk7GwCo6O1K5f0zNYzu1WcXv6y87f14+hsAltPz9n5zHaj0yPQQUCPZvco/Tr162gXt0Agm8D063ULAyAGQC5v2H9IYIJr7fhAemglr0YAgY+APu3o09GRsbMJjI7WrlzSM1vP7FZxevnLzt/Wj6OzCWw9PWfnM9uNTo9ABwE9mt2j9OvUr6Nd3AKBbALTr9ctDIAYALm8Yf8hgQmuteMD6aGVvBoBBD4C+rSjT0dHxs4mMDpau3JJz2w9s1vF6eUvO39bP47OJrD19Jydz2w3Oj0CHQT0aHaP0q9Tv452cQsEsglMv163MABiAOTyhv2HBCa41o4PpIdW8moEEPgI6NOOPh0dGTubwOho7colPbP1zG4Vp5e/7Pxt/Tg6m8DW03N2PrPd6PQIdBDQo9k9Sr9O/TraxS0QyCYw/XrdwgCIAZDLG/YfEpjgWjs+kB5ayasRQOAjoE87+nR0ZOxsAqOjtSuX9MzWM7tVnF7+svO39ePobAJbT8/Z+cx2o9Mj0EFAj2b3KP069etoF7dAIJvA9Ot1CwMgBkAub9h/SGCCa+34QHpoJa9GAIGPgD7t6NPRkbGzCYyO1q5c0jNbz+xWcXr5y87f1o+jswlsPT1n5zPbjU6PQAcBPZrdo/Tr1K+jXdwCgWwC06/XLQyAGAC5vGH/IYEJrrXjA+mhlbwaAQQ+Avq0o09HR8bOJjA6WrtySc9sPbNbxenlLzt/Wz+Oziaw9fScnc9sNzo9Ah0E9Gh2j9KvU7+OdnELBLIJTL9etzAAYgDk8ob9hwQmuNaOD6SHVvJqBBD4COjTjj4dHRk7m8DoaO3KJT2z9cxuFaeXv+z8bf04OpvA1tNzdj6z3ej0CHQQ0KPZPUq/Tv062sUtEMgmMP163cIAiAGQyxv2HxKY4Fo7PpAeWsmrEUDgI6BPO/p0dGTsbAKjo7Url/TM1jO7VZxe/rLzt/Xj6GwCW0/P2fnMdqPTI9BBQI9m9yj9OvXraBe3QCCbwPTrdQsDIAZALm/Yf0hggmvt+EB6aCWvRgCBj4A+7ejT0ZGxswmMjtauXNIzW8/sVnF6+cvO39aPo7MJbD09Z+cz241Oj0AHAT2a3aP069Svo13cAoFsAtOv1y0MgBgAubxh/yGBCa614wPpoZW8GgEEPgL6tKNPR0fGziYwOlq7cknPbD2zW8Xp5S87f1s/js4msPX0nJ3PbDc6PQIdBPRodo/Sr1O/jnZxCwSyCUy/XrcwAGIA5PKG/YcEJrjWjg+kh1byagQQ+Ajo044+HR0ZO5vA6GjtyiU9s/XMbhWnl7/s/G39ODqbwNbTc3Y+s93o9Ah0ENCj2T1Kv079OtrFLRDIJjD9et3CAIgBkMsb9h8SmOBaOz6QHlrJqxFA4COgTzv6dHRk7GwCo6O1K5f0zNYzu1WcXv6y87f14+hsAltPz9n5zHaj0yPQQUCPZvco/Tr162gXt0Agm8D063ULAyAGQC5v2H9IYIJr7fhAemglr0YAgY+APu3o09GRsbMJjI7WrlzSM1vP7FZxevnLzt/Wj6OzCWw9PWfnM9uNTo9ABwE9mt2j9OvUr6Nd3AKBbALTr9ctDICUDoCM8NbOf7B0pSsP8AAP8AAP8AAP8AAP8AAP8AAP8AAP8AAP8AAP8AAP8AAP8AAP8AAP/E0PGAAx6PFP+P9m+OlOdx7gAR7gAR7gAR7gAR7gAR7gAR7gAR7gAR7gAR7gAR7gAR7gAR7gAR7o8cB/D4Bcf2AfAQQQQAABBBBAAAEEEEAAAQQQQAABBBBAAAEEEEAAAQQQQAABBBBA4HcROH8C5ncd02kQQAABBBBAAAEEEEAAAQQQQAABBBBAAAEEEEAAAQQQQAABBBBAAAEELgIGQC4y9hFAAAEEEEAAAQQQQAABBBBAAAEEEEAAAQQQQAABBBBAAAEEEEAAgRACBkBChHJMBBBAAAEEEEAAAQQQQAABBBBAAAEEEEAAAQQQQAABBBBAAAEEEEDgImAA5CJjHwEEEEAAAQQQQAABBBBAAAEEEEAAAQQQQAABBBBAAAEEEEAAAQQQCCFgACREKMdEAAEEEEAAAQQQQAABBBBAAAEEEEAAAQQQQAABBBBAAAEEEEAAAQQuAj9AqGWJh3ML+QAAAABJRU5ErkJggg==;" vertex="1" parent="1">
          <mxGeometry x="77" y="105.22" width="522.17" height="184.78" as="geometry" />
        </mxCell>
      </root>
    </mxGraphModel>
  </diagram>
  <diagram id="h3FoTtnk9iMjgGqWxMyq" name="Page-2">
    <mxGraphModel dx="786" dy="1504" grid="1" gridSize="10" guides="1" tooltips="1" connect="1" arrows="1" fold="1" page="1" pageScale="1" pageWidth="850" pageHeight="1100" math="0" shadow="0">
      <root>
        <mxCell id="WySd1Tmm8CnbsxbkeUSg-0" />
        <mxCell id="WySd1Tmm8CnbsxbkeUSg-1" parent="WySd1Tmm8CnbsxbkeUSg-0" />
        <mxCell id="WySd1Tmm8CnbsxbkeUSg-29" style="edgeStyle=orthogonalEdgeStyle;rounded=0;orthogonalLoop=1;jettySize=auto;html=1;exitX=0.5;exitY=1;exitDx=0;exitDy=0;" edge="1" parent="WySd1Tmm8CnbsxbkeUSg-1" source="WySd1Tmm8CnbsxbkeUSg-5" target="WySd1Tmm8CnbsxbkeUSg-28">
          <mxGeometry relative="1" as="geometry" />
        </mxCell>
        <mxCell id="WySd1Tmm8CnbsxbkeUSg-5" value="&lt;span&gt;读取一帧激光帧，检测其中的符合设计长度的连续线段&lt;/span&gt;" style="rounded=1;whiteSpace=wrap;html=1;absoluteArcSize=1;arcSize=14;strokeWidth=2;" vertex="1" parent="WySd1Tmm8CnbsxbkeUSg-1">
          <mxGeometry x="300" y="-40" width="150" height="40" as="geometry" />
        </mxCell>
        <mxCell id="WySd1Tmm8CnbsxbkeUSg-9" value="" style="edgeStyle=orthogonalEdgeStyle;rounded=0;orthogonalLoop=1;jettySize=auto;html=1;" edge="1" parent="WySd1Tmm8CnbsxbkeUSg-1" source="WySd1Tmm8CnbsxbkeUSg-6" target="WySd1Tmm8CnbsxbkeUSg-8">
          <mxGeometry relative="1" as="geometry" />
        </mxCell>
        <mxCell id="WySd1Tmm8CnbsxbkeUSg-6" value="统计该线段中的激光平均反射强度" style="whiteSpace=wrap;html=1;rounded=1;strokeWidth=2;arcSize=14;" vertex="1" parent="WySd1Tmm8CnbsxbkeUSg-1">
          <mxGeometry x="300" y="110" width="150" height="40" as="geometry" />
        </mxCell>
        <mxCell id="WySd1Tmm8CnbsxbkeUSg-11" value="" style="edgeStyle=orthogonalEdgeStyle;rounded=0;orthogonalLoop=1;jettySize=auto;html=1;" edge="1" parent="WySd1Tmm8CnbsxbkeUSg-1" source="WySd1Tmm8CnbsxbkeUSg-8" target="WySd1Tmm8CnbsxbkeUSg-10">
          <mxGeometry relative="1" as="geometry" />
        </mxCell>
        <mxCell id="WySd1Tmm8CnbsxbkeUSg-8" value="使用双阈值检测连续多条激光反射条" style="whiteSpace=wrap;html=1;rounded=1;strokeWidth=2;arcSize=14;" vertex="1" parent="WySd1Tmm8CnbsxbkeUSg-1">
          <mxGeometry x="300" y="170" width="150" height="40" as="geometry" />
        </mxCell>
        <mxCell id="WySd1Tmm8CnbsxbkeUSg-13" style="edgeStyle=orthogonalEdgeStyle;rounded=0;orthogonalLoop=1;jettySize=auto;html=1;exitX=1;exitY=0.5;exitDx=0;exitDy=0;" edge="1" parent="WySd1Tmm8CnbsxbkeUSg-1" source="WySd1Tmm8CnbsxbkeUSg-10">
          <mxGeometry relative="1" as="geometry">
            <mxPoint x="375" y="160" as="targetPoint" />
            <Array as="points">
              <mxPoint x="460" y="260" />
              <mxPoint x="460" y="160" />
            </Array>
          </mxGeometry>
        </mxCell>
        <mxCell id="WySd1Tmm8CnbsxbkeUSg-14" value="N" style="edgeLabel;html=1;align=center;verticalAlign=middle;resizable=0;points=[];" vertex="1" connectable="0" parent="WySd1Tmm8CnbsxbkeUSg-13">
          <mxGeometry x="-0.2783" y="1" relative="1" as="geometry">
            <mxPoint as="offset" />
          </mxGeometry>
        </mxCell>
        <mxCell id="WySd1Tmm8CnbsxbkeUSg-15" style="edgeStyle=orthogonalEdgeStyle;rounded=0;orthogonalLoop=1;jettySize=auto;html=1;exitX=0.5;exitY=1;exitDx=0;exitDy=0;" edge="1" parent="WySd1Tmm8CnbsxbkeUSg-1" source="WySd1Tmm8CnbsxbkeUSg-10">
          <mxGeometry relative="1" as="geometry">
            <mxPoint x="375" y="330" as="targetPoint" />
          </mxGeometry>
        </mxCell>
        <mxCell id="WySd1Tmm8CnbsxbkeUSg-16" value="Y" style="edgeLabel;html=1;align=center;verticalAlign=middle;resizable=0;points=[];" vertex="1" connectable="0" parent="WySd1Tmm8CnbsxbkeUSg-15">
          <mxGeometry x="-0.2" y="-4" relative="1" as="geometry">
            <mxPoint as="offset" />
          </mxGeometry>
        </mxCell>
        <mxCell id="WySd1Tmm8CnbsxbkeUSg-10" value="达到预期的条数" style="rhombus;whiteSpace=wrap;html=1;rounded=1;strokeWidth=2;arcSize=14;" vertex="1" parent="WySd1Tmm8CnbsxbkeUSg-1">
          <mxGeometry x="335" y="220" width="80" height="80" as="geometry" />
        </mxCell>
        <mxCell id="WySd1Tmm8CnbsxbkeUSg-19" value="" style="edgeStyle=orthogonalEdgeStyle;rounded=0;orthogonalLoop=1;jettySize=auto;html=1;" edge="1" parent="WySd1Tmm8CnbsxbkeUSg-1" source="WySd1Tmm8CnbsxbkeUSg-17" target="WySd1Tmm8CnbsxbkeUSg-18">
          <mxGeometry relative="1" as="geometry" />
        </mxCell>
        <mxCell id="WySd1Tmm8CnbsxbkeUSg-17" value="使用分支限界算法计算反射条的最优宽度" style="whiteSpace=wrap;html=1;rounded=1;strokeWidth=2;arcSize=14;" vertex="1" parent="WySd1Tmm8CnbsxbkeUSg-1">
          <mxGeometry x="300" y="330" width="150" height="40" as="geometry" />
        </mxCell>
        <mxCell id="WySd1Tmm8CnbsxbkeUSg-22" style="edgeStyle=orthogonalEdgeStyle;rounded=0;orthogonalLoop=1;jettySize=auto;html=1;exitX=0.5;exitY=1;exitDx=0;exitDy=0;entryX=0.5;entryY=0;entryDx=0;entryDy=0;entryPerimeter=0;" edge="1" parent="WySd1Tmm8CnbsxbkeUSg-1" source="WySd1Tmm8CnbsxbkeUSg-18" target="WySd1Tmm8CnbsxbkeUSg-21">
          <mxGeometry relative="1" as="geometry" />
        </mxCell>
        <mxCell id="WySd1Tmm8CnbsxbkeUSg-31" style="edgeStyle=orthogonalEdgeStyle;rounded=0;orthogonalLoop=1;jettySize=auto;html=1;exitX=0.5;exitY=1;exitDx=0;exitDy=0;entryX=1;entryY=0.5;entryDx=0;entryDy=0;" edge="1" parent="WySd1Tmm8CnbsxbkeUSg-1" source="WySd1Tmm8CnbsxbkeUSg-18" target="WySd1Tmm8CnbsxbkeUSg-28">
          <mxGeometry relative="1" as="geometry">
            <mxPoint x="375" y="10" as="targetPoint" />
            <Array as="points">
              <mxPoint x="375" y="440" />
              <mxPoint x="500" y="440" />
              <mxPoint x="500" y="60" />
            </Array>
          </mxGeometry>
        </mxCell>
        <mxCell id="WySd1Tmm8CnbsxbkeUSg-18" value="基于ITF编码规则解析编码" style="whiteSpace=wrap;html=1;rounded=1;strokeWidth=2;arcSize=14;" vertex="1" parent="WySd1Tmm8CnbsxbkeUSg-1">
          <mxGeometry x="300" y="390" width="150" height="40" as="geometry" />
        </mxCell>
        <mxCell id="WySd1Tmm8CnbsxbkeUSg-21" value="返回检测的编码" style="strokeWidth=2;html=1;shape=mxgraph.flowchart.terminator;whiteSpace=wrap;" vertex="1" parent="WySd1Tmm8CnbsxbkeUSg-1">
          <mxGeometry x="325" y="450" width="100" height="40" as="geometry" />
        </mxCell>
        <mxCell id="WySd1Tmm8CnbsxbkeUSg-24" style="edgeStyle=orthogonalEdgeStyle;rounded=0;orthogonalLoop=1;jettySize=auto;html=1;" edge="1" parent="WySd1Tmm8CnbsxbkeUSg-1" source="WySd1Tmm8CnbsxbkeUSg-23" target="WySd1Tmm8CnbsxbkeUSg-5">
          <mxGeometry relative="1" as="geometry" />
        </mxCell>
        <mxCell id="WySd1Tmm8CnbsxbkeUSg-23" value="开始" style="strokeWidth=2;html=1;shape=mxgraph.flowchart.start_1;whiteSpace=wrap;" vertex="1" parent="WySd1Tmm8CnbsxbkeUSg-1">
          <mxGeometry x="325" y="-100" width="100" height="40" as="geometry" />
        </mxCell>
        <mxCell id="WySd1Tmm8CnbsxbkeUSg-30" style="edgeStyle=orthogonalEdgeStyle;rounded=0;orthogonalLoop=1;jettySize=auto;html=1;exitX=0.5;exitY=1;exitDx=0;exitDy=0;" edge="1" parent="WySd1Tmm8CnbsxbkeUSg-1" source="WySd1Tmm8CnbsxbkeUSg-28" target="WySd1Tmm8CnbsxbkeUSg-6">
          <mxGeometry relative="1" as="geometry" />
        </mxCell>
        <mxCell id="WySd1Tmm8CnbsxbkeUSg-28" value="遍历所有的线段" style="rhombus;whiteSpace=wrap;html=1;rounded=1;strokeWidth=2;arcSize=14;" vertex="1" parent="WySd1Tmm8CnbsxbkeUSg-1">
          <mxGeometry x="335" y="20" width="80" height="80" as="geometry" />
        </mxCell>
      </root>
    </mxGraphModel>
  </diagram>
  <diagram id="9g206F6wxSoFdxYqn8gM" name="Page-3">
    <mxGraphModel dx="786" dy="404" grid="1" gridSize="10" guides="1" tooltips="1" connect="1" arrows="1" fold="1" page="1" pageScale="1" pageWidth="850" pageHeight="1100" math="0" shadow="0">
      <root>
        <mxCell id="TvdOQRNhezggHM5ko8uu-0" />
        <mxCell id="TvdOQRNhezggHM5ko8uu-1" parent="TvdOQRNhezggHM5ko8uu-0" />
        <mxCell id="TvdOQRNhezggHM5ko8uu-2" value="" style="endArrow=none;dashed=1;html=1;dashPattern=1 3;strokeWidth=2;" edge="1" parent="TvdOQRNhezggHM5ko8uu-1" source="TvdOQRNhezggHM5ko8uu-14">
          <mxGeometry width="50" height="50" relative="1" as="geometry">
            <mxPoint x="160" y="120" as="sourcePoint" />
            <mxPoint x="500" y="120" as="targetPoint" />
          </mxGeometry>
        </mxCell>
        <mxCell id="TvdOQRNhezggHM5ko8uu-4" value="X" style="text;html=1;strokeColor=none;fillColor=none;align=center;verticalAlign=middle;whiteSpace=wrap;rounded=0;" vertex="1" parent="TvdOQRNhezggHM5ko8uu-1">
          <mxGeometry x="165" y="110" width="20" height="20" as="geometry" />
        </mxCell>
        <mxCell id="TvdOQRNhezggHM5ko8uu-5" value="" style="endArrow=none;dashed=1;html=1;dashPattern=1 3;strokeWidth=2;" edge="1" parent="TvdOQRNhezggHM5ko8uu-1" target="TvdOQRNhezggHM5ko8uu-4">
          <mxGeometry width="50" height="50" relative="1" as="geometry">
            <mxPoint x="160" y="120" as="sourcePoint" />
            <mxPoint x="500" y="120" as="targetPoint" />
          </mxGeometry>
        </mxCell>
        <mxCell id="TvdOQRNhezggHM5ko8uu-6" value="X" style="text;html=1;strokeColor=none;fillColor=none;align=center;verticalAlign=middle;whiteSpace=wrap;rounded=0;" vertex="1" parent="TvdOQRNhezggHM5ko8uu-1">
          <mxGeometry x="220" y="110" width="20" height="20" as="geometry" />
        </mxCell>
        <mxCell id="TvdOQRNhezggHM5ko8uu-7" value="" style="endArrow=none;dashed=1;html=1;dashPattern=1 3;strokeWidth=2;" edge="1" parent="TvdOQRNhezggHM5ko8uu-1" source="TvdOQRNhezggHM5ko8uu-4" target="TvdOQRNhezggHM5ko8uu-6">
          <mxGeometry width="50" height="50" relative="1" as="geometry">
            <mxPoint x="190" y="120" as="sourcePoint" />
            <mxPoint x="500" y="120" as="targetPoint" />
          </mxGeometry>
        </mxCell>
        <mxCell id="TvdOQRNhezggHM5ko8uu-8" value="X" style="text;html=1;strokeColor=none;fillColor=none;align=center;verticalAlign=middle;whiteSpace=wrap;rounded=0;" vertex="1" parent="TvdOQRNhezggHM5ko8uu-1">
          <mxGeometry x="250" y="110" width="20" height="20" as="geometry" />
        </mxCell>
        <mxCell id="TvdOQRNhezggHM5ko8uu-9" value="" style="endArrow=none;dashed=1;html=1;dashPattern=1 3;strokeWidth=2;" edge="1" parent="TvdOQRNhezggHM5ko8uu-1" source="TvdOQRNhezggHM5ko8uu-6" target="TvdOQRNhezggHM5ko8uu-8">
          <mxGeometry width="50" height="50" relative="1" as="geometry">
            <mxPoint x="240" y="120" as="sourcePoint" />
            <mxPoint x="500" y="120" as="targetPoint" />
          </mxGeometry>
        </mxCell>
        <mxCell id="TvdOQRNhezggHM5ko8uu-10" value="X" style="text;html=1;strokeColor=none;fillColor=none;align=center;verticalAlign=middle;whiteSpace=wrap;rounded=0;" vertex="1" parent="TvdOQRNhezggHM5ko8uu-1">
          <mxGeometry x="290" y="110" width="20" height="20" as="geometry" />
        </mxCell>
        <mxCell id="TvdOQRNhezggHM5ko8uu-11" value="" style="endArrow=none;dashed=1;html=1;dashPattern=1 3;strokeWidth=2;" edge="1" parent="TvdOQRNhezggHM5ko8uu-1" source="TvdOQRNhezggHM5ko8uu-8" target="TvdOQRNhezggHM5ko8uu-10">
          <mxGeometry width="50" height="50" relative="1" as="geometry">
            <mxPoint x="270" y="120" as="sourcePoint" />
            <mxPoint x="500" y="120" as="targetPoint" />
          </mxGeometry>
        </mxCell>
        <mxCell id="TvdOQRNhezggHM5ko8uu-12" value="X" style="text;html=1;strokeColor=none;fillColor=none;align=center;verticalAlign=middle;whiteSpace=wrap;rounded=0;" vertex="1" parent="TvdOQRNhezggHM5ko8uu-1">
          <mxGeometry x="350" y="110" width="20" height="20" as="geometry" />
        </mxCell>
        <mxCell id="TvdOQRNhezggHM5ko8uu-13" value="" style="endArrow=none;dashed=1;html=1;dashPattern=1 3;strokeWidth=2;" edge="1" parent="TvdOQRNhezggHM5ko8uu-1" source="TvdOQRNhezggHM5ko8uu-10" target="TvdOQRNhezggHM5ko8uu-12">
          <mxGeometry width="50" height="50" relative="1" as="geometry">
            <mxPoint x="310" y="120" as="sourcePoint" />
            <mxPoint x="500" y="120" as="targetPoint" />
          </mxGeometry>
        </mxCell>
        <mxCell id="TvdOQRNhezggHM5ko8uu-14" value="X" style="text;html=1;strokeColor=none;fillColor=none;align=center;verticalAlign=middle;whiteSpace=wrap;rounded=0;" vertex="1" parent="TvdOQRNhezggHM5ko8uu-1">
          <mxGeometry x="415" y="110" width="20" height="20" as="geometry" />
        </mxCell>
        <mxCell id="TvdOQRNhezggHM5ko8uu-15" value="" style="endArrow=none;dashed=1;html=1;dashPattern=1 3;strokeWidth=2;" edge="1" parent="TvdOQRNhezggHM5ko8uu-1" source="TvdOQRNhezggHM5ko8uu-12" target="TvdOQRNhezggHM5ko8uu-14">
          <mxGeometry width="50" height="50" relative="1" as="geometry">
            <mxPoint x="370" y="120" as="sourcePoint" />
            <mxPoint x="500" y="120" as="targetPoint" />
          </mxGeometry>
        </mxCell>
        <mxCell id="TvdOQRNhezggHM5ko8uu-16" value="" style="endArrow=none;html=1;" edge="1" parent="TvdOQRNhezggHM5ko8uu-1">
          <mxGeometry width="50" height="50" relative="1" as="geometry">
            <mxPoint x="160" y="244" as="sourcePoint" />
            <mxPoint x="160" y="114" as="targetPoint" />
          </mxGeometry>
        </mxCell>
        <mxCell id="TvdOQRNhezggHM5ko8uu-17" value="线段最左侧" style="edgeLabel;html=1;align=center;verticalAlign=middle;resizable=0;points=[];" vertex="1" connectable="0" parent="TvdOQRNhezggHM5ko8uu-16">
          <mxGeometry x="-0.2308" relative="1" as="geometry">
            <mxPoint x="-30" y="-14" as="offset" />
          </mxGeometry>
        </mxCell>
        <mxCell id="TvdOQRNhezggHM5ko8uu-18" value="" style="rounded=0;whiteSpace=wrap;html=1;" vertex="1" parent="TvdOQRNhezggHM5ko8uu-1">
          <mxGeometry x="160" y="160" width="50" height="60" as="geometry" />
        </mxCell>
        <mxCell id="TvdOQRNhezggHM5ko8uu-19" value="" style="rounded=0;whiteSpace=wrap;html=1;labelBackgroundColor=#000000;fillColor=#000000;" vertex="1" parent="TvdOQRNhezggHM5ko8uu-1">
          <mxGeometry x="210" y="160" width="80" height="60" as="geometry" />
        </mxCell>
        <mxCell id="TvdOQRNhezggHM5ko8uu-20" value="&lt;span style=&quot;background-color: rgb(255 , 255 , 255)&quot;&gt;o&lt;/span&gt;" style="text;html=1;strokeColor=none;fillColor=none;align=center;verticalAlign=middle;whiteSpace=wrap;rounded=0;labelBackgroundColor=#000000;" vertex="1" parent="TvdOQRNhezggHM5ko8uu-1">
          <mxGeometry x="175" y="180" width="20" height="20" as="geometry" />
        </mxCell>
        <mxCell id="TvdOQRNhezggHM5ko8uu-21" value="&lt;font color=&quot;#ffffff&quot;&gt;o&lt;/font&gt;" style="text;html=1;strokeColor=none;fillColor=none;align=center;verticalAlign=middle;whiteSpace=wrap;rounded=0;labelBackgroundColor=#000000;" vertex="1" parent="TvdOQRNhezggHM5ko8uu-1">
          <mxGeometry x="240" y="180" width="20" height="20" as="geometry" />
        </mxCell>
        <mxCell id="TvdOQRNhezggHM5ko8uu-22" value="" style="shape=crossbar;whiteSpace=wrap;html=1;rounded=1;labelBackgroundColor=#000000;fillColor=#d5e8d4;strokeColor=#82b366;dashed=1;" vertex="1" parent="TvdOQRNhezggHM5ko8uu-1">
          <mxGeometry x="175" y="130" width="10" height="150" as="geometry" />
        </mxCell>
        <mxCell id="TvdOQRNhezggHM5ko8uu-40" value="" style="endArrow=none;dashed=1;html=1;dashPattern=1 3;strokeWidth=2;" edge="1" parent="TvdOQRNhezggHM5ko8uu-1">
          <mxGeometry width="50" height="50" relative="1" as="geometry">
            <mxPoint x="268" y="125" as="sourcePoint" />
            <mxPoint x="273" y="125" as="targetPoint" />
          </mxGeometry>
        </mxCell>
        <mxCell id="TvdOQRNhezggHM5ko8uu-41" value="" style="shape=crossbar;whiteSpace=wrap;html=1;rounded=1;labelBackgroundColor=#000000;fillColor=#d5e8d4;strokeColor=#82b366;dashed=1;" vertex="1" parent="TvdOQRNhezggHM5ko8uu-1">
          <mxGeometry x="228" y="130" width="22" height="150" as="geometry" />
        </mxCell>
        <mxCell id="TvdOQRNhezggHM5ko8uu-42" value="" style="shape=curlyBracket;whiteSpace=wrap;html=1;rounded=1;dashed=1;labelBackgroundColor=#000000;fillColor=#000000;rotation=-90;" vertex="1" parent="TvdOQRNhezggHM5ko8uu-1">
          <mxGeometry x="170" y="290" width="20" height="10" as="geometry" />
        </mxCell>
        <mxCell id="TvdOQRNhezggHM5ko8uu-43" value="残差" style="edgeLabel;html=1;align=center;verticalAlign=middle;resizable=0;points=[];" vertex="1" connectable="0" parent="TvdOQRNhezggHM5ko8uu-1">
          <mxGeometry x="180" y="310" as="geometry" />
        </mxCell>
        <mxCell id="TvdOQRNhezggHM5ko8uu-44" value="" style="shape=curlyBracket;whiteSpace=wrap;html=1;rounded=1;dashed=1;labelBackgroundColor=#000000;fillColor=#000000;rotation=-90;size=0.5;" vertex="1" parent="TvdOQRNhezggHM5ko8uu-1">
          <mxGeometry x="228" y="285" width="20" height="20" as="geometry" />
        </mxCell>
        <mxCell id="TvdOQRNhezggHM5ko8uu-45" value="残差" style="edgeLabel;html=1;align=center;verticalAlign=middle;resizable=0;points=[];" vertex="1" connectable="0" parent="TvdOQRNhezggHM5ko8uu-1">
          <mxGeometry x="238" y="310" as="geometry" />
        </mxCell>
      </root>
    </mxGraphModel>
  </diagram>
</mxfile>
